<svg width="391" height="290" viewBox="0 0 391 290" fill="none" xmlns="http://www.w3.org/2000/svg">
<path d="M324.9 86.691C324.9 86.691 320.491 85.763 320.665 82.63C320.665 82.63 316.952 75.784 318.865 72.361C319.314 71.4141 319.987 70.5911 320.826 69.9637C321.665 69.3363 322.645 68.9234 323.68 68.761C323.68 68.761 321.88 59.769 326.465 56.404C326.465 56.404 329.888 54.373 336.908 56.81C337.995 59.2987 338.261 62.0693 337.666 64.7192C337.071 67.3692 335.648 69.7605 333.601 71.546C333.601 71.546 324.377 70.56 324.145 69.864C323.913 69.168 325.537 82.279 325.537 82.279L324.145 85.122L324.9 86.691Z" fill="#FBDBCC"/>
<path d="M190.657 110.804C195.785 110.522 200.745 111.609 205.708 112.656C213.144 114.224 220.692 115.304 228.015 117.356C244.114 121.724 259.802 127.487 274.901 134.578C279.625 136.847 284.339 139.198 288.939 141.739C293.521 144.091 298.307 146.021 303.239 147.504C315.227 151.51 327.333 155.155 339.459 158.738C346.879 160.931 354.311 163.103 361.731 165.304C365.097 166.304 368.611 166.953 371.866 168.233C379.026 171.048 383.457 176.255 384.466 184.062C385.12 189.106 385.575 194.174 386.144 199.223C386.644 203.699 386.966 208.176 387.319 212.657C388.075 222.233 380.47 231.102 370.899 231.511C364.571 231.782 358.23 231.804 351.894 231.833C348.823 231.847 346.045 231.123 344.837 227.555C343.097 235.442 338.818 242.54 332.655 247.761C333.46 248.158 334.367 248.301 335.255 248.172C353.103 248.183 370.951 248.191 388.799 248.196C389.482 248.196 390.466 247.796 390.799 248.486C391.146 249.214 390.422 250.027 389.89 250.497C387.973 252.186 386.231 253.997 383.239 253.997C266.867 253.945 150.495 253.935 34.1231 253.966C32.6215 253.994 31.1306 253.709 29.7455 253.128C28.3605 252.548 27.1117 251.684 26.0791 250.594C25.3633 249.92 24.894 249.025 24.7461 248.053H82.3891C79.9611 244.853 76.8081 242.721 75.0141 239.414C73.171 236.278 71.84 232.869 71.0711 229.314C70.8161 229.381 70.629 229.372 70.578 229.451C67.942 233.52 64.1441 233.027 60.1491 232.274C51.0971 230.568 42.0231 228.982 32.9491 227.391C31.4491 227.129 29.9751 227.628 28.3771 227.368C23.7244 226.666 19.3304 224.78 15.6171 221.89C15.0219 221.501 14.3958 221.161 13.745 220.875C11.716 219.78 11.5721 217.629 10.9721 215.775C9.85907 212.336 9.17204 211.843 5.61504 212.25C4.83944 212.366 4.05233 212.385 3.27206 212.306C2.95883 212.302 2.64964 212.235 2.36336 212.108C2.07709 211.981 1.81974 211.796 1.60702 211.566C1.3943 211.337 1.23068 211.066 1.12615 210.77C1.02162 210.475 0.978368 210.162 0.999046 209.849C1.04838 203.838 1.10138 197.828 1.15804 191.818C1.17104 190.578 1.72206 189.887 3.09206 189.945C4.52706 190.005 5.96806 189.945 7.40606 189.923C10.0791 189.887 10.801 189.065 10.922 186.37C11.2297 179 11.9106 171.651 12.9621 164.35C14.5841 153.35 22.9521 146.267 34.0621 146.036C35.7621 146.001 37.4621 146.056 39.1561 146.136C41.5134 146.322 43.8752 145.837 45.9681 144.736C52.5851 141.047 59.6111 138.22 66.4481 134.998C70.4581 133.108 74.403 130.921 78.525 129.468C82.778 127.968 87.099 126.568 91.341 125.005C103.541 120.522 116.127 117.411 128.676 114.17C133.498 113.001 138.412 112.254 143.363 111.935C143.754 111.903 144.141 111.841 144.522 111.749C148.139 110.886 148.61 110.337 148.3 106.644C147.866 101.488 147.86 101.684 152.894 101.705C161.778 101.741 170.663 101.747 179.547 101.779C181.558 101.786 182 102.419 182.072 105.237C182.032 105.425 181.977 105.615 181.954 105.809C181.243 111.723 181.354 111.861 186.954 112.389C187.659 112.536 188.392 112.463 189.053 112.18C189.715 111.896 190.274 111.416 190.654 110.805M379.284 189.964C379.163 188.349 379.12 186.724 378.907 185.121C378.136 179.321 375.179 175.246 369.414 173.554C365.322 172.354 361.199 171.262 357.089 170.122C343.549 166.009 330.021 161.856 316.465 157.797C305.374 154.475 294.404 150.95 284.042 145.602C254.333 130.272 223.193 119.431 189.688 116.129C176.746 114.834 163.704 114.914 150.779 116.369C139.157 117.776 127.651 120.021 116.352 123.086C95.0681 128.834 74.4218 136.726 54.7301 146.64C47.7641 150.087 40.5301 152.278 32.5911 151.988C23.8531 151.669 18.9481 159.797 18.4111 165.505C18.2661 167.043 18.8611 167.644 20.3971 167.617C23.7971 167.557 27.1971 167.59 30.5971 167.588C31.5761 167.588 32.6971 167.403 32.646 168.938C32.599 170.356 31.5461 170.353 30.5391 170.348C27.0761 170.331 23.6111 170.336 20.1491 170.26C18.6301 170.227 17.8291 170.817 17.6941 172.36C16.8781 181.717 16.0474 191.072 15.202 200.426C15.043 202.166 15.5851 202.97 17.4551 202.915C20.6551 202.821 23.861 202.901 27.064 202.882C28.148 202.875 29.3841 202.805 29.34 204.282C29.303 205.514 28.2221 205.677 27.1491 205.661C23.8171 205.614 20.4831 205.63 17.1491 205.583C15.1091 205.554 14.5811 206.026 14.5661 208.053C14.6084 210.85 15.58 213.554 17.3277 215.739C19.0754 217.924 21.5001 219.465 24.2201 220.121C29.3101 221.495 34.5551 222.137 39.7381 223.066C46.9751 224.366 54.214 225.651 61.473 226.814C64.537 227.305 65.0651 226.794 65.0991 223.657C65.1228 221.049 65.4804 218.454 66.163 215.937C68.4909 207.212 73.9955 199.673 81.5963 194.798C89.1972 189.923 98.3456 188.065 107.246 189.588C123.423 192.288 136.057 206.821 136.559 223.3C136.692 227.659 137.237 228.183 141.67 228.139C153.303 228.024 164.936 227.905 176.57 227.782C188.857 227.657 201.144 227.534 213.431 227.412C233.498 227.212 253.564 227.017 273.631 226.827C276.708 226.798 277.295 226.304 277.331 223.195C277.417 220.134 277.887 217.096 278.731 214.152C282.792 198.936 300.876 184.877 319.743 188.458C329.368 190.285 337.661 194.681 343.752 202.658C348.422 208.771 350.324 215.858 351.125 223.343C351.361 225.543 351.953 226.183 354.025 226.174C359.384 226.149 364.745 226.174 370.1 225.99C373.129 225.901 376.012 224.669 378.168 222.54C380.324 220.411 381.594 217.544 381.721 214.517C381.794 209.93 381.06 205.417 380.621 200.875C380.455 199.16 379.566 198.547 377.894 198.575C373.711 198.636 369.526 198.599 365.343 198.592C364.394 198.592 363.367 198.516 363.309 197.292C363.244 195.921 364.292 195.824 365.345 195.828C368.352 195.838 371.36 195.838 374.367 195.828C379.922 195.8 380.167 195.498 379.286 189.971M283.381 222.543L282.901 222.605C282.801 223.799 282.741 224.998 282.586 226.185C281.959 230.985 280.535 232.185 275.722 232.232C266.968 232.318 258.215 232.471 249.461 232.561C230.581 232.756 211.701 232.938 192.82 233.109C175.179 233.27 157.537 233.386 139.896 233.581C136.333 233.62 133.138 233.104 131.158 229.7C131.127 229.647 130.925 229.693 130.658 229.693C129.031 237.031 124.683 242.752 118.969 247.947H295.95C292.537 244.155 288.85 241.026 286.808 236.498C284.855 232.083 283.696 227.359 283.382 222.542M339.096 223.116C339.11 218.185 337.662 213.362 334.936 209.253C332.21 205.145 328.328 201.936 323.78 200.032C319.231 198.129 314.221 197.615 309.381 198.557C304.542 199.498 300.089 201.853 296.587 205.323C293.084 208.793 290.688 213.223 289.701 218.054C288.714 222.884 289.181 227.899 291.042 232.465C292.903 237.031 296.075 240.943 300.158 243.707C304.24 246.472 309.051 247.964 313.981 247.997C320.611 248.028 326.981 245.423 331.691 240.757C336.401 236.091 339.065 229.746 339.096 223.116ZM75.9741 222.853C75.9561 226.166 76.5965 229.449 77.8582 232.513C79.1199 235.576 80.9777 238.358 83.3236 240.697C85.6696 243.037 88.457 244.887 91.5239 246.139C94.5909 247.392 97.8762 248.023 101.189 247.996C114.656 247.927 126.042 236.565 125.846 223.074C125.824 216.494 123.202 210.189 118.552 205.534C113.902 200.879 107.6 198.25 101.02 198.221C94.4397 198.192 88.1148 200.764 83.4234 205.378C78.732 209.992 76.0545 216.273 75.9741 222.853ZM169.467 111.107C172.191 110.93 174.598 110.792 177.002 110.612C178.527 110.497 179.645 109.967 179.502 108.112C179.277 105.141 178.827 104.502 176.553 104.533C172.774 104.586 168.995 104.686 165.216 104.833C161.303 104.988 157.405 104.783 153.5 104.606C151.449 104.513 150.647 105.606 150.656 108.112C150.662 109.858 151.656 110.738 153.585 110.677C154.493 110.648 155.4 110.571 156.309 110.551C160.701 110.471 165.094 110.659 169.464 111.112M9.82406 197.859H9.97704C9.97704 196.759 10.0491 195.646 9.96206 194.549C9.76206 192.069 9.31007 191.762 6.31707 191.882C3.95807 191.977 3.61706 192.465 3.39806 194.796C2.98806 199.085 3.64505 203.356 3.44305 207.636C3.36205 209.361 4.36304 210.079 5.97704 210.145C7.93504 210.225 8.92604 209.471 9.05904 207.769C9.31771 204.465 9.57272 201.161 9.82406 197.856" fill="#474A4C"/>
<path d="M190.657 110.804C190.277 111.415 189.718 111.895 189.056 112.178C188.395 112.462 187.662 112.535 186.957 112.388C181.357 111.86 181.245 111.721 181.957 105.808C181.98 105.614 182.035 105.424 182.075 105.236C182.175 106.2 182.339 107.159 182.355 108.121C182.387 110.066 183.462 110.766 185.247 110.702C187.048 110.471 188.872 110.505 190.663 110.802" fill="#EDB81B"/>
<path d="M379.287 189.963C380.171 195.49 379.923 195.792 374.368 195.82C371.361 195.835 368.353 195.835 365.346 195.82C364.293 195.82 363.246 195.913 363.31 197.284C363.368 198.508 364.395 198.584 365.344 198.584C369.528 198.591 373.713 198.628 377.896 198.567C379.567 198.543 380.457 199.155 380.623 200.867C381.062 205.408 381.795 209.922 381.723 214.509C381.596 217.539 380.326 220.408 378.168 222.538C376.01 224.668 373.124 225.9 370.093 225.987C364.739 226.167 359.377 226.147 354.018 226.171C351.945 226.181 351.353 225.543 351.118 223.34C350.318 215.855 348.418 208.768 343.745 202.655C337.653 194.681 329.36 190.285 319.736 188.455C300.869 184.874 282.786 198.933 278.724 214.149C277.88 217.093 277.41 220.131 277.324 223.192C277.289 226.3 276.701 226.792 273.624 226.824C253.557 227.014 233.491 227.209 213.424 227.409C201.137 227.53 188.85 227.653 176.563 227.778C164.93 227.896 153.297 228.015 141.663 228.135C137.23 228.179 136.685 227.654 136.552 223.296C136.052 206.817 123.416 192.286 107.24 189.584C98.3396 188.061 89.1912 189.919 81.5904 194.794C73.9895 199.669 68.4849 207.208 66.1571 215.933C65.4748 218.45 65.1172 221.045 65.093 223.653C65.059 226.79 64.5301 227.3 61.4671 226.81C54.2081 225.647 46.9671 224.359 39.7321 223.061C34.5491 222.132 29.3041 221.491 24.2141 220.116C21.4941 219.46 19.0695 217.919 17.3217 215.734C15.574 213.549 14.6024 210.845 14.5601 208.048C14.5741 206.021 15.1021 205.548 17.1421 205.578C20.4751 205.625 23.8081 205.609 27.1421 205.656C28.2151 205.671 29.2961 205.509 29.3331 204.277C29.3781 202.8 28.1411 202.87 27.0571 202.877C23.8571 202.896 20.6491 202.816 17.4481 202.91C15.5781 202.965 15.0361 202.161 15.1951 200.422C16.0517 191.069 16.8824 181.713 17.6871 172.356C17.8211 170.815 18.6231 170.225 20.1411 170.256C23.6041 170.332 27.0671 170.328 30.5311 170.344C31.5391 170.344 32.5911 170.351 32.6381 168.934C32.6891 167.399 31.5671 167.583 30.5891 167.584C27.1891 167.584 23.7891 167.554 20.3891 167.613C18.8521 167.64 18.2581 167.039 18.4031 165.501C18.9391 159.794 23.8451 151.665 32.5831 151.984C40.5261 152.274 47.7571 150.084 54.7221 146.636C74.4138 136.722 95.0601 128.83 116.344 123.082C127.643 120.016 139.149 117.771 150.771 116.364C163.696 114.91 176.738 114.829 189.68 116.125C223.18 119.425 254.324 130.267 284.034 145.598C294.396 150.945 305.366 154.471 316.457 157.792C330.013 161.852 343.541 166.005 357.081 170.118C356.353 172.275 356.058 174.555 356.215 176.827C356.569 179.472 356.486 182.135 356.647 184.784C356.856 188.225 359.288 190.26 362.719 190.36C368.247 190.522 373.747 189.66 379.276 189.96M168.428 150.726C168.503 151.175 168.612 151.621 168.646 152.073C168.961 156.238 168.62 156.609 164.516 156.609C153.732 156.609 142.948 156.609 132.163 156.609C127.463 156.609 122.755 156.568 118.051 156.537C116.94 156.53 116.097 156.796 116.123 158.148C116.148 159.448 117.032 159.538 118.014 159.542C119.185 159.542 120.357 159.602 121.529 159.602C173.228 159.602 224.928 159.602 276.629 159.602C277.672 159.602 278.715 159.502 279.758 159.439C280.628 159.383 281.308 159.056 281.313 158.055C281.319 157.013 280.534 156.771 279.721 156.698C278.812 156.617 277.893 156.62 276.979 156.621C243.646 156.636 210.312 156.653 176.979 156.674C171.579 156.674 171.351 156.433 171.93 151.143C201.536 151.143 231.142 151.14 260.747 151.134C261.463 151.176 262.182 151.143 262.891 151.034C263.577 150.884 264.348 150.599 264.391 149.711C264.434 148.823 264.749 147.838 263.701 147.255C263.137 146.941 262.586 146.616 262.001 146.331C253.432 142.173 244.594 138.674 235.666 135.379C227.486 132.387 219.125 129.915 210.633 127.979C204.687 126.604 198.685 125.596 192.642 124.729C187.489 123.99 182.312 123.583 177.142 123.361C168.164 123.064 159.178 123.541 150.282 124.785C143.317 125.685 136.444 127.036 129.634 128.617C120.448 130.784 111.401 133.504 102.543 136.763C94.4001 139.726 86.4201 143.086 78.4431 146.463C77.5731 146.831 76.809 147.251 76.929 148.444C77.055 149.68 77.9021 150.076 78.8951 150.272C79.5416 150.362 80.1953 150.389 80.8471 150.354C91.4664 150.354 102.086 150.354 112.706 150.354C121.299 150.354 129.895 150.477 138.486 150.322C148.477 150.141 158.449 150.858 168.435 150.737M207.943 217.377H262.243C262.766 217.377 263.289 217.387 263.811 217.367C264.699 217.332 265.321 216.994 265.344 215.982C265.368 214.889 264.726 214.472 263.754 214.422C262.782 214.372 261.798 214.34 260.82 214.34C225.203 214.336 189.587 214.338 153.97 214.345C153.122 214.347 152.276 214.418 151.44 214.558C151.107 214.586 150.799 214.745 150.584 215.001C150.368 215.256 150.263 215.586 150.291 215.919C150.278 216.252 150.395 216.577 150.618 216.824C150.841 217.072 151.153 217.222 151.485 217.243C152.196 217.338 152.912 217.381 153.629 217.373C171.731 217.379 189.833 217.381 207.936 217.378M96.7361 156.621V156.649C92.6841 156.649 88.6324 156.649 84.5811 156.649C83.5811 156.649 82.4811 156.571 82.4271 157.987C82.3661 159.51 83.5771 159.587 84.6101 159.595C92.6507 159.627 100.691 159.629 108.731 159.601C109.831 159.601 110.998 159.356 110.925 157.96C110.858 156.671 109.725 156.621 108.699 156.622C104.712 156.626 100.724 156.626 96.7371 156.622M180.512 173.103C182.012 173.103 183.512 173.118 185.012 173.098C185.948 173.085 186.731 172.755 186.776 171.686C186.824 170.543 186.003 170.303 185.069 170.302C182.135 170.296 179.2 170.302 176.269 170.302C175.341 170.302 174.504 170.489 174.511 171.636C174.517 172.701 175.263 173.086 176.211 173.103C177.645 173.129 179.08 173.11 180.511 173.103" fill="#FCFCFC"/>
<path d="M283.384 222.535C283.698 227.352 284.858 232.076 286.811 236.491C288.848 241.019 292.54 244.148 295.953 247.94H118.964C124.678 242.745 129.026 237.024 130.653 229.686C130.923 229.686 131.126 229.639 131.153 229.693C133.134 233.093 136.328 233.613 139.891 233.574C157.532 233.374 175.174 233.263 192.815 233.102C211.696 232.93 230.576 232.747 249.456 232.554C258.21 232.463 266.963 232.31 275.717 232.225C280.531 232.178 281.954 230.975 282.581 226.178C282.736 224.991 282.794 223.792 282.897 222.599L283.376 222.536" fill="#FDFDFE"/>
<path d="M339.098 223.109C339.079 228.033 337.603 232.84 334.857 236.927C332.111 241.013 328.218 244.196 323.667 246.075C319.116 247.953 314.111 248.443 309.282 247.483C304.453 246.522 300.016 244.155 296.53 240.678C293.044 237.202 290.664 232.771 289.691 227.945C288.717 223.119 289.193 218.113 291.059 213.556C292.925 209 296.097 205.098 300.176 202.341C304.255 199.584 309.059 198.095 313.982 198.062C320.633 198.058 327.013 200.693 331.722 205.389C336.431 210.086 339.084 216.459 339.098 223.109ZM299.678 222.701C299.641 226.561 301.136 230.277 303.835 233.036C306.535 235.794 310.219 237.369 314.078 237.414C315.959 237.43 317.824 237.071 319.565 236.359C321.306 235.646 322.888 234.595 324.218 233.265C325.548 231.935 326.601 230.354 327.314 228.613C328.027 226.872 328.386 225.007 328.371 223.126C328.335 214.764 322.309 208.672 314.113 208.714C306.231 208.754 299.639 215.14 299.674 222.702" fill="#FBFBFB"/>
<path d="M75.9771 222.846C76.0574 216.266 78.7351 209.985 83.4265 205.371C88.1178 200.757 94.4427 198.185 101.023 198.214C107.603 198.243 113.905 200.872 118.555 205.527C123.205 210.182 125.827 216.487 125.849 223.067C126.049 236.558 114.659 247.921 101.192 247.989C97.8792 248.017 94.5939 247.385 91.527 246.133C88.4601 244.88 85.6726 243.03 83.3267 240.69C80.9807 238.351 79.1229 235.569 77.8612 232.506C76.5995 229.442 75.9591 226.159 75.9771 222.846ZM85.9501 222.773C86.0321 231.861 92.0051 238.111 100.534 238.12C102.547 238.198 104.555 237.871 106.44 237.16C108.325 236.448 110.048 235.367 111.507 233.978C112.967 232.59 114.134 230.923 114.938 229.077C115.743 227.23 116.17 225.241 116.193 223.226C116.216 221.212 115.836 219.213 115.074 217.349C114.312 215.484 113.184 213.791 111.757 212.369C110.329 210.947 108.632 209.826 106.764 209.071C104.896 208.317 102.896 207.944 100.882 207.975C98.9168 207.918 96.9603 208.26 95.1314 208.982C93.3025 209.704 91.6394 210.789 90.2429 212.174C88.8465 213.558 87.7459 215.211 87.0079 217.034C86.27 218.856 85.9101 220.809 85.9501 222.775" fill="#FBFBFB"/>
<path d="M379.287 189.963C373.758 189.663 368.259 190.525 362.731 190.363C359.299 190.263 356.867 188.228 356.658 184.787C356.497 182.137 356.58 179.474 356.226 176.829C356.07 174.557 356.364 172.277 357.092 170.12C361.201 171.26 365.325 172.351 369.416 173.552C375.182 175.244 378.139 179.317 378.91 185.119C379.123 186.719 379.166 188.347 379.287 189.962" fill="#EBF0F8"/>
<path d="M169.467 111.1C165.097 110.647 160.704 110.459 156.312 110.539C155.404 110.559 154.497 110.639 153.588 110.665C151.663 110.727 150.665 109.846 150.659 108.1C150.65 105.593 151.451 104.5 153.503 104.594C157.403 104.771 161.303 104.976 165.219 104.821C168.996 104.671 172.775 104.571 176.556 104.521C178.83 104.489 179.28 105.129 179.505 108.1C179.646 109.958 178.528 110.489 177.005 110.6C174.605 110.78 172.194 110.918 169.47 111.095" fill="#FAF9F7"/>
<path d="M9.82407 197.859C9.5694 201.164 9.31442 204.468 9.05908 207.772C8.92608 209.472 7.93508 210.228 5.97708 210.148C4.36408 210.082 3.36209 209.364 3.44309 207.639C3.64309 203.359 2.98807 199.088 3.39807 194.799C3.62107 192.468 3.95808 191.979 6.31708 191.885C9.31008 191.765 9.76607 192.072 9.96207 194.552C10.0491 195.652 9.97708 196.758 9.97708 197.862H9.82407" fill="#FBFAF5"/>
<path d="M168.426 150.726C158.44 150.847 148.468 150.126 138.477 150.311C129.886 150.466 121.291 150.343 112.697 150.343C102.077 150.343 91.4574 150.343 80.838 150.343C80.1862 150.379 79.5326 150.351 78.8861 150.261C77.8931 150.061 77.0451 149.67 76.9201 148.433C76.8001 147.241 77.564 146.821 78.434 146.453C86.409 143.078 94.389 139.717 102.534 136.753C111.392 133.495 120.439 130.774 129.625 128.607C136.434 127.026 143.308 125.677 150.273 124.775C159.169 123.531 168.156 123.054 177.134 123.35C182.304 123.572 187.48 123.98 192.634 124.718C198.678 125.585 204.679 126.593 210.625 127.968C219.117 129.904 227.478 132.376 235.658 135.368C244.586 138.663 253.424 142.162 261.993 146.32C262.58 146.605 263.131 146.93 263.693 147.245C264.741 147.828 264.422 148.828 264.383 149.701C264.344 150.59 263.573 150.874 262.883 151.024C262.174 151.133 261.455 151.166 260.739 151.124C231.133 151.13 201.527 151.133 171.921 151.133C171.864 144.358 171.805 137.582 171.744 130.806C171.744 130.224 171.688 129.642 171.578 129.07C171.506 128.746 171.312 128.461 171.036 128.275C170.761 128.089 170.424 128.016 170.096 128.07C169.764 128.057 169.439 128.17 169.187 128.386C168.935 128.603 168.774 128.907 168.737 129.237C168.686 129.755 168.674 130.276 168.701 130.796C168.608 137.438 168.514 144.08 168.421 150.721" fill="#EBF1F9"/>
<path d="M168.428 150.726C168.521 144.084 168.615 137.442 168.708 130.801C168.681 130.281 168.693 129.76 168.744 129.242C168.781 128.912 168.942 128.608 169.194 128.391C169.446 128.174 169.771 128.062 170.103 128.075C170.431 128.02 170.768 128.094 171.043 128.28C171.319 128.466 171.513 128.75 171.585 129.075C171.695 129.647 171.75 130.228 171.751 130.811C171.818 137.586 171.877 144.362 171.928 151.138C171.349 156.429 171.577 156.673 176.977 156.669C210.31 156.649 243.644 156.631 276.977 156.616C277.891 156.616 278.81 156.616 279.719 156.694C280.532 156.766 281.319 157.008 281.311 158.051C281.306 159.051 280.626 159.379 279.756 159.435C278.714 159.503 277.67 159.598 276.627 159.599C224.928 159.606 173.228 159.606 121.527 159.599C120.355 159.599 119.184 159.544 118.012 159.539C117.03 159.539 116.146 159.447 116.12 158.145C116.094 156.793 116.937 156.527 118.048 156.535C122.748 156.566 127.456 156.602 132.159 156.607C142.944 156.617 153.728 156.617 164.512 156.607C168.612 156.607 168.958 156.236 168.642 152.071C168.608 151.619 168.498 151.171 168.424 150.724" fill="#4F5254"/>
<path d="M207.937 217.366C189.834 217.366 171.732 217.364 153.63 217.361C152.913 217.369 152.197 217.326 151.486 217.232C151.153 217.211 150.842 217.06 150.619 216.813C150.396 216.565 150.279 216.24 150.292 215.907C150.264 215.574 150.37 215.244 150.585 214.989C150.801 214.734 151.108 214.575 151.441 214.547C152.277 214.408 153.123 214.336 153.971 214.334C189.588 214.324 225.204 214.322 260.821 214.329C261.799 214.329 262.778 214.361 263.755 214.411C264.732 214.461 265.369 214.878 265.345 215.971C265.322 216.982 264.7 217.321 263.812 217.356C263.29 217.377 262.766 217.366 262.244 217.366H207.937Z" fill="#505355"/>
<path d="M96.733 156.609C100.72 156.609 104.708 156.609 108.695 156.609C109.72 156.609 110.853 156.658 110.921 157.947C110.994 159.347 109.821 159.586 108.727 159.588C100.687 159.607 92.6466 159.605 84.606 159.582C83.573 159.582 82.362 159.498 82.423 157.975C82.48 156.558 83.574 156.636 84.578 156.637C88.63 156.64 92.682 156.64 96.734 156.637L96.733 156.609Z" fill="#505355"/>
<path d="M180.508 173.091C179.073 173.091 177.639 173.111 176.208 173.086C175.258 173.069 174.508 172.686 174.508 171.619C174.501 170.472 175.338 170.285 176.266 170.285C179.2 170.285 182.134 170.285 185.066 170.285C186 170.285 186.821 170.527 186.773 171.669C186.728 172.738 185.945 173.069 185.009 173.081C183.509 173.101 182.009 173.086 180.509 173.088" fill="#46494B"/>
<path d="M299.676 222.701C299.64 215.139 306.233 208.753 314.115 208.713C322.315 208.671 328.337 214.764 328.373 223.125C328.388 225.006 328.029 226.871 327.316 228.612C326.603 230.352 325.55 231.934 324.22 233.263C322.89 234.593 321.308 235.645 319.567 236.357C317.826 237.07 315.961 237.429 314.08 237.413C310.221 237.367 306.537 235.793 303.837 233.034C301.138 230.276 299.643 226.559 299.68 222.7" fill="#3422F2"/>
<path d="M85.947 222.773C85.907 220.807 86.2669 218.854 87.0048 217.031C87.7428 215.209 88.8434 213.555 90.2398 212.171C91.6363 210.787 93.2994 209.701 95.1283 208.98C96.9572 208.258 98.9137 207.915 100.879 207.973C102.893 207.942 104.893 208.314 106.761 209.069C108.629 209.824 110.326 210.945 111.754 212.367C113.181 213.788 114.309 215.482 115.071 217.346C115.833 219.211 116.213 221.21 116.19 223.224C116.167 225.238 115.74 227.228 114.935 229.074C114.13 230.921 112.964 232.588 111.504 233.976C110.044 235.364 108.321 236.446 106.437 237.158C104.552 237.869 102.544 238.195 100.531 238.118C92.003 238.109 86.031 231.86 85.947 222.772" fill="#3422F2"/>
<path d="M249.273 109.507C247.54 108.313 246.573 106.425 245.173 104.922C243.573 103.197 242.365 101.109 240.846 99.297C237.434 95.227 236.617 90.69 237.683 85.541C238.107 83.494 238.323 81.383 238.733 79.306C239.581 75.2823 240.681 71.3161 242.028 67.431C242.966 64.605 243.976 61.803 244.986 59.001C245.451 57.712 245.799 56.374 246.158 55.072C246.788 53.0966 248.071 51.3936 249.795 50.242C251.225 49.2852 252.922 48.8085 254.641 48.881C256.218 48.8918 257.78 48.5687 259.223 47.933C260.798 48.125 262.27 47.501 263.804 47.36L263.386 48.414C263.572 49.23 264.38 49.272 264.863 49.77V52.728L266.552 53.87C267.11 54.581 266.543 55.378 267.123 55.897C267.701 56.612 268.777 56.557 269.312 57.275C269.467 58.124 269.151 58.975 269.295 59.288C270.18 60.851 271.437 60.055 272.378 60.721V63.903C274.266 64.47 275.404 66.183 277.309 66.558C278.551 68.32 280.648 68.781 282.335 69.865C282.34 72.2303 282.344 74.597 282.348 76.965C282.348 77.354 282.218 77.801 282.806 77.899C282.637 80.488 281.737 82.981 281.806 85.599C281.051 86.529 281.491 87.669 281.267 88.699C280.767 90.977 280.339 93.27 279.86 95.551C279.26 98.383 278.525 101.192 278.087 104.051C277.851 105.592 276.726 106.837 276.854 108.445C276.106 108.383 276.577 109.513 275.854 109.473C274.654 108.84 274.037 107.5 272.916 106.845C269.974 105.127 268.096 102.345 266.109 99.803C263.921 97.1455 262.198 94.1362 261.016 90.903C259.993 88.373 259.415 85.685 259.309 82.958C259.353 79.958 259.318 76.958 259.322 73.952C259.322 73.372 259.128 72.658 259.393 72.239C260.085 71.139 259.764 70.082 259.498 68.947C258.964 70.43 258.675 71.978 258.218 73.457C257.754 74.957 257.255 76.496 256.887 78.013C256.532 79.476 255.807 80.932 255.877 82.413C255.957 84.093 255.269 85.618 255.307 87.255C255.345 88.892 254.365 90.414 254.958 92.286C255.207 92.511 255.432 92.7625 255.627 93.036C258.477 97.3932 261.731 101.472 265.346 105.219C265.791 105.597 266.198 106.017 266.561 106.474C268.089 108.99 270.616 110.606 272.331 112.946C272.689 114.061 273.866 114.497 274.4 115.54C274.958 116.624 275.854 117.496 276.953 118.024C276.884 118.34 276.747 118.638 276.553 118.897C276.358 119.156 276.11 119.369 275.826 119.524C273.364 121.374 270.554 122.939 269.716 126.273C269.679 126.419 269.516 126.531 269.409 126.661C268.683 127.639 268.143 128.743 267.815 129.916C267.772 130.233 267.664 130.537 267.499 130.811C267.333 131.084 267.114 131.321 266.854 131.507C265.901 131.274 266.481 130.507 266.323 129.992C266.699 128.085 265.783 126.307 265.749 124.414C265.627 123.147 265.174 121.934 264.437 120.897C262.328 117.753 259.596 115.075 256.411 113.028C254.249 111.569 251.875 110.387 249.795 108.911C249.656 108.946 249.531 109.023 249.437 109.131C249.343 109.24 249.285 109.374 249.27 109.517" fill="#534E54"/>
<path d="M313.898 218.587C313.204 218.51 313.426 217.987 313.398 217.576C313.535 217.506 313.798 217.428 313.791 217.367C313.653 215.154 314.262 213.013 314.416 210.827C314.602 208.184 313.667 205.656 313.846 203.008C313.959 201.329 314.246 199.562 313.387 197.94C313.563 195.24 312.826 192.665 312.424 190.04C312.124 188.065 311.587 186.14 311.168 184.208C310.626 181.703 310.392 179.162 309.919 176.654C309.696 175.474 310.169 174.263 310.311 173.077C310.825 169.292 312.16 165.664 314.223 162.449C315.072 161.271 316.004 160.149 316.898 159.009C317.276 158.964 317.659 159.05 317.982 159.252C318.305 159.454 318.549 159.761 318.674 160.121C319.52 161.853 321.148 162.9 322.215 164.459C323.256 165.979 324.295 167.523 325.385 169.02C325.465 169.13 325.401 169.346 325.404 169.513C325.395 169.582 325.401 169.652 325.424 169.718C325.446 169.784 325.482 169.844 325.531 169.893C325.58 169.943 325.64 169.98 325.705 170.003C325.771 170.026 325.841 170.034 325.91 170.026C325.902 170.094 325.909 170.163 325.93 170.229C325.952 170.294 325.989 170.353 326.037 170.402C326.085 170.452 326.143 170.489 326.208 170.513C326.272 170.537 326.341 170.546 326.41 170.539C326.416 170.697 326.416 170.855 326.41 171.013C326.4 171.082 326.406 171.152 326.428 171.218C326.449 171.284 326.485 171.345 326.533 171.395C326.581 171.445 326.64 171.484 326.706 171.508C326.771 171.532 326.841 171.541 326.91 171.534C328.605 173.984 329.816 176.737 330.475 179.643C330.975 181.693 330.606 183.743 330.975 185.723C331.284 187.485 331.43 189.272 331.411 191.061C330.645 191.192 330.923 191.792 330.921 192.224C330.907 195.842 330.914 199.46 330.914 203.078C330.914 205.914 330.914 208.75 330.914 211.585C330.914 212.539 330.919 213.492 330.894 214.446C330.88 214.522 330.883 214.6 330.902 214.675C330.921 214.751 330.956 214.821 331.004 214.882C331.052 214.942 331.112 214.992 331.181 215.028C331.25 215.063 331.326 215.084 331.403 215.088C331.061 215.634 330.881 216.265 330.883 216.909C330.983 218.144 330.848 219.396 330.922 220.634C331.26 226.313 330.329 231.951 330.411 237.62C329.636 237.757 329.935 238.364 329.919 238.802C329.782 242.415 330.279 246.056 329.41 249.635C329.41 251.137 329.413 252.639 329.419 254.141C329.416 255.308 329.412 256.474 329.408 257.641C328.87 257.99 328.243 258.174 327.602 258.172C326.209 258.077 324.802 258.147 323.402 258.149H320.758C320.258 257.975 320.589 257.127 319.896 257.14C319.771 255.385 319.475 253.647 319.011 251.95C318.759 250.782 318.587 249.598 318.497 248.407C318.217 245.853 317.809 243.314 317.273 240.801C316.605 237.617 316.822 234.247 315.381 231.225C315.757 229.564 314.899 228.042 314.808 226.413C314.56 224.816 314.419 223.205 314.385 221.59C314.385 220.803 314.378 220.014 314.401 219.228C314.414 219.152 314.411 219.074 314.391 219C314.372 218.926 314.337 218.856 314.289 218.796C314.241 218.736 314.181 218.687 314.112 218.652C314.044 218.618 313.969 218.598 313.892 218.594" fill="#D2D2D2"/>
<path d="M300.373 248.122C300.367 247.959 300.367 247.795 300.373 247.632C300.192 247.132 300.831 246.366 299.878 246.121C299.809 246.13 299.739 246.123 299.673 246.1C299.608 246.077 299.548 246.04 299.5 245.99C299.451 245.94 299.415 245.88 299.394 245.814C299.373 245.748 299.367 245.678 299.378 245.609C300.061 245.072 300.058 244.65 299.369 244.118C299.301 244.126 299.231 244.118 299.167 244.095C299.102 244.073 299.043 244.035 298.995 243.985C298.948 243.936 298.912 243.876 298.891 243.811C298.87 243.745 298.865 243.676 298.875 243.608C299.561 243.071 299.558 242.645 298.864 242.115C298.788 242.114 298.714 242.097 298.645 242.065C298.576 242.033 298.516 241.986 298.467 241.929C298.418 241.871 298.382 241.803 298.362 241.73C298.341 241.657 298.337 241.581 298.349 241.506C298.372 241.043 298.361 240.578 298.365 240.114C298.184 239.614 298.823 238.847 297.865 238.608C297.859 238.445 297.858 238.283 297.865 238.12C297.689 237.62 298.329 236.845 297.365 236.602C297.359 236.442 297.359 236.282 297.365 236.123C297.184 235.623 297.826 234.852 296.865 234.606C296.865 234.142 296.856 233.677 296.878 233.214C296.89 233.139 296.886 233.063 296.866 232.99C296.846 232.916 296.81 232.849 296.761 232.791C296.712 232.733 296.65 232.687 296.582 232.655C296.513 232.623 296.438 232.607 296.362 232.607C296.362 232.141 296.356 231.674 296.378 231.207C296.39 231.132 296.385 231.056 296.364 230.983C296.343 230.91 296.307 230.843 296.258 230.786C296.208 230.729 296.147 230.683 296.078 230.652C296.009 230.621 295.934 230.606 295.858 230.607C295.858 230.141 295.853 229.674 295.875 229.207C295.887 229.132 295.883 229.055 295.862 228.981C295.842 228.908 295.805 228.84 295.756 228.782C295.706 228.725 295.644 228.678 295.575 228.647C295.506 228.615 295.43 228.599 295.354 228.6C295.354 228.133 295.354 227.666 295.371 227.2C295.383 227.125 295.378 227.049 295.357 226.976C295.336 226.903 295.3 226.835 295.25 226.778C295.2 226.721 295.138 226.675 295.069 226.645C295 226.614 294.925 226.599 294.849 226.6C294.855 226.133 294.849 225.665 294.87 225.2C294.883 225.125 294.88 225.048 294.859 224.974C294.839 224.9 294.802 224.832 294.752 224.775C294.702 224.717 294.639 224.672 294.569 224.641C294.499 224.611 294.423 224.597 294.347 224.6C294.354 224.134 294.347 223.668 294.373 223.2C294.388 223.125 294.385 223.048 294.365 222.974C294.345 222.901 294.309 222.833 294.259 222.775C294.209 222.718 294.146 222.672 294.076 222.643C294.005 222.614 293.929 222.601 293.853 222.605L293.839 222.589C293.716 222.065 294.293 221.318 293.352 221.053C293.343 220.92 293.337 220.784 293.334 220.646C293.408 219.197 293.434 217.758 292.344 216.592C292.437 215.97 292.397 215.335 292.224 214.731C292.052 214.126 291.751 213.565 291.344 213.086L291.349 213.091C291.513 210.78 290.605 208.674 290.019 206.518C289.747 205.518 289.766 204.337 288.842 203.573L288.848 203.578C288.82 202.319 289.155 200.957 287.848 200.065L287.854 200.071C287.854 199.606 287.845 199.14 287.869 198.671C287.881 198.596 287.877 198.519 287.857 198.446C287.836 198.373 287.801 198.305 287.752 198.246C287.703 198.188 287.642 198.141 287.573 198.108C287.505 198.076 287.43 198.058 287.354 198.057C287.173 197.557 287.811 196.794 286.854 196.557C286.255 195.859 285.901 194.983 285.848 194.064C285.802 193.664 286.048 193.123 285.348 193.053C285.305 192.653 285.548 192.115 284.848 192.053C284.804 191.653 285.048 191.117 284.348 191.053C284.303 190.653 284.54 190.121 283.848 190.048C283.052 188.956 282.384 187.777 281.857 186.534C282.457 186.452 282.301 185.995 282.357 185.601C282.366 184.708 282.448 183.818 282.603 182.939C283.475 179.958 285.616 178.147 288.066 176.671C289.886 175.696 291.755 174.818 293.666 174.038C295.7 173.18 297.365 171.63 298.366 169.663C298.547 169.29 298.115 168.614 299.015 168.547C299.723 168.762 299.338 169.515 299.545 169.982C300.954 173.163 302.221 176.402 303.464 179.653C303.739 180.855 304.214 182.001 304.87 183.045C304.898 183.332 304.926 183.618 304.961 183.976L305.885 184.038C305.892 184.197 305.892 184.357 305.885 184.516C306.066 185.016 305.407 185.804 306.393 186.04V186.034C306.406 186.592 306.501 187.146 306.677 187.676C307.882 190.645 308.456 193.832 308.361 197.035C308.275 198.529 309.095 199.835 308.924 201.346C308.834 202.75 308.823 204.158 308.891 205.564C308.891 206.851 308.891 208.139 308.871 209.425C308.857 209.502 308.86 209.581 308.88 209.657C308.899 209.733 308.934 209.804 308.983 209.866C309.032 209.927 309.093 209.977 309.163 210.013C309.232 210.049 309.309 210.07 309.387 210.074C309.387 210.246 309.387 210.418 309.387 210.591C309.387 212.203 309.387 213.816 309.37 215.428C309.356 215.505 309.359 215.585 309.378 215.661C309.397 215.737 309.432 215.808 309.481 215.87C309.529 215.931 309.59 215.982 309.66 216.018C309.729 216.055 309.806 216.076 309.884 216.081C309.884 217.781 309.892 219.481 309.884 221.188C309.884 221.603 309.822 222.01 310.389 222.088C311.082 222.171 310.852 222.698 310.877 223.101C310.723 223.216 310.597 223.366 310.511 223.539C310.425 223.711 310.38 223.901 310.38 224.094C310.38 224.287 310.425 224.477 310.511 224.649C310.597 224.822 310.723 224.972 310.877 225.087C310.801 228.107 311.577 231.069 311.55 234.068C311.539 235.142 311.913 236.153 311.838 237.146C311.61 240.204 312.622 243.165 312.394 246.21C312.294 247.51 313.086 248.672 312.934 250.038C312.739 251.25 312.87 252.493 313.314 253.638C313.702 254.553 313.355 255.767 313.398 256.846C313.427 257.56 313.087 258.368 313.879 258.889C310.8 260.016 307.664 259.536 304.572 259.647C304.188 259.66 303.943 259.547 303.872 259.153C303.882 258.76 303.794 258.37 303.618 258.019C303.441 257.668 303.18 257.366 302.859 257.139C302.865 256.67 302.859 256.201 302.882 255.734C302.894 255.658 302.89 255.581 302.869 255.507C302.848 255.434 302.811 255.366 302.761 255.308C302.711 255.25 302.648 255.204 302.578 255.173C302.508 255.142 302.433 255.126 302.356 255.128L302.363 255.136C302.191 254.636 302.832 253.853 301.85 253.624C301.783 253.63 301.715 253.621 301.652 253.597C301.59 253.573 301.533 253.535 301.487 253.486C301.441 253.437 301.406 253.378 301.387 253.314C301.367 253.25 301.362 253.182 301.372 253.115C302.06 252.582 302.057 252.154 301.362 251.621C301.362 251.156 301.354 250.689 301.377 250.221C301.389 250.146 301.385 250.069 301.364 249.996C301.344 249.922 301.308 249.854 301.259 249.797C301.209 249.739 301.148 249.692 301.079 249.66C301.01 249.628 300.935 249.611 300.859 249.611C300.68 249.111 301.319 248.343 300.359 248.104" fill="#D2D2D2"/>
<path d="M298.868 126.973C299.594 129.115 300.564 131.166 301.758 133.086C303.595 136.61 305.634 140.024 307.865 143.312C308.712 144.512 309.57 145.695 310.465 146.855C310.726 147.171 310.907 147.546 310.992 147.947C309.68 147.846 308.36 147.923 307.068 148.176C301.994 149.899 296.815 151.423 292.248 154.361C290.095 155.746 287.921 157.053 286.784 159.621C286.561 160.351 286.145 161.007 285.578 161.519C285.012 162.031 284.318 162.38 283.569 162.528C280.369 162.175 277.569 163.49 274.953 165.594C273.217 166.994 271.276 168.189 268.853 168.014L265.824 164.526C265.832 164.459 265.825 164.392 265.804 164.328C265.784 164.264 265.749 164.205 265.703 164.156C265.658 164.107 265.602 164.068 265.54 164.043C265.478 164.017 265.411 164.005 265.344 164.008L265.333 163.996C265.402 163.098 265.124 162.208 264.556 161.51C263.169 159.291 262.136 156.869 261.496 154.331C260.438 150.415 259.241 146.546 260.221 142.287C260.835 139.615 261.821 137.631 264.048 136.562C266.963 136.171 269.929 136.532 272.665 137.61C276.251 139.263 280.168 140.077 284.116 139.988C286.399 139.888 288.716 140.288 290.944 139.446H296.187C296.589 138.256 297.268 137.178 298.169 136.301C298.6 135.23 297.789 134.884 297.898 134.073C298.378 133.062 298.515 131.923 298.288 130.827C298.02 130.19 297.327 129.953 297.393 129.05C297.834 128.475 297.655 127.275 298.866 126.972" fill="#D2D2D2"/>
<path d="M303.385 103.475C304.571 106.134 305.389 108.942 305.816 111.822C305.855 112.039 305.703 112.291 305.64 112.522C302.315 110.312 298.367 109.232 294.381 109.441C293.535 109.627 292.881 108.508 292.081 108.974C290.541 109.874 288.7 108.981 287.172 109.913C286.964 110.006 286.734 110.038 286.509 110.004C286.284 109.97 286.074 109.872 285.903 109.722C285.875 109.492 285.838 109.178 285.803 108.863C285.803 108.223 285.801 107.583 285.796 106.943L286.32 106.726C286.269 106.623 286.183 106.543 286.078 106.498C285.973 106.453 285.855 106.448 285.746 106.483C285.213 106.12 285.209 105.757 285.746 105.395C286.074 105.423 286.332 105.353 286.353 104.957C286.374 104.561 286.112 104.464 285.792 104.431C285.921 101.383 285.562 98.307 286.301 95.292C286.178 87.872 287.084 80.4 285.119 72.7999C285.124 72.7069 284.487 73.0509 284.541 72.5669C284.905 72.0959 285.058 71.667 284.356 71.391L284.923 70.4369C285.608 70.5119 285.993 70.1019 286.369 69.4739C286.098 68.1129 286.769 66.8839 287.526 65.5809C287.113 64.5299 286.339 63.358 286.926 62.318C287.678 60.978 287.145 59.9789 286.61 58.8729C286.51 58.6589 286.431 58.431 286.365 58.264L287.365 56.381C287.45 55.3505 287.295 54.3144 286.912 53.354C286.385 52.4166 286.175 51.3344 286.312 50.2679L288.395 50.368L288.35 50.325C288.325 50.701 288.55 50.833 288.878 50.866C290.131 51.34 291.325 52.0499 292.75 51.8359C292.923 52.4169 293.514 52.4359 293.923 52.6089C297.082 53.9089 298.513 56.5209 299.366 59.5919C300.278 62.2666 300.786 65.0624 300.872 67.887C300.736 67.952 300.493 68 300.48 68.087C300.294 69.1633 300.298 70.2639 300.491 71.339L301.34 71.3959C301.365 71.8946 301.389 72.3946 301.413 72.8959C301.085 72.9459 300.813 73.0549 300.879 73.4679C300.945 73.8809 301.224 73.9009 301.552 73.8249C301.975 74.0999 301.901 74.51 301.852 74.915C301.728 74.9113 301.608 74.9554 301.516 75.0381C301.425 75.1208 301.368 75.2357 301.359 75.359C301.144 77.965 301.359 90.4529 301.946 93.1959C302.225 94.4959 302.122 95.8109 302.427 97.0359C303.01 99.1353 303.332 101.299 303.386 103.477" fill="#544F55"/>
<path d="M259.422 46.373C259.623 44.7257 260.273 43.1655 261.302 41.863C263.16 40.557 263.612 38.325 264.786 36.569C264.576 35.176 265.964 33.894 265.074 32.423C264.874 32.602 264.595 32.736 264.529 32.94C263.816 35.0767 262.375 36.8954 260.459 38.079C258.802 39.194 257.337 40.616 255.675 41.76C255.267 42.04 255.302 42.46 255.313 42.871C255.249 42.8649 255.185 42.8716 255.124 42.8909C255.063 42.9102 255.007 42.9416 254.958 42.9833C254.909 43.0249 254.87 43.076 254.841 43.1333C254.813 43.1907 254.797 43.2532 254.793 43.317L254.75 43.355C254.638 43.3583 254.53 43.4012 254.446 43.476C254.362 43.5508 254.307 43.6528 254.291 43.764C254.239 44.0188 254.12 44.255 253.946 44.4482C253.772 44.6414 253.55 44.7847 253.302 44.863C252.677 44.797 252.837 44.333 252.84 43.949C253.724 42.3714 254.859 40.9478 256.2 39.734C257.941 38.2108 259.524 36.5155 260.925 34.674C262.019 33.1445 262.768 31.3953 263.118 29.5476C263.469 27.7 263.414 25.7981 262.956 23.974C262.583 21.7768 262.777 19.5208 263.518 17.419C265.774 9.41204 271.164 4.47704 278.848 1.89004C281.075 1.0482 283.452 0.67739 285.83 0.801039C288.283 0.441039 289.505 2.20104 290.83 3.59304C290.989 4.24304 290.53 4.89304 291.316 5.34104C291.849 4.78804 292.803 5.12504 293.343 4.43004C294.024 4.22969 294.752 4.26064 295.414 4.51804C295.566 4.99004 295.986 4.73304 296.275 4.83504C298.043 4.98704 298.787 6.38104 299.304 7.70804C300.298 10.257 301.104 12.886 301.853 15.519C302.418 17.3841 302.75 19.3122 302.84 21.259C302.976 23.419 302.684 25.5846 301.98 27.6313C301.277 29.678 300.176 31.5654 298.74 33.185C298.411 33.554 298.116 33.953 297.806 34.338C297.659 34.3454 297.513 34.349 297.366 34.349C297.327 33.7423 297.414 33.1341 297.62 32.5623C297.827 31.9905 298.149 31.4672 298.566 31.025C299.644 29.47 300.442 27.7387 300.925 25.909C300.195 24.5275 299.346 23.2119 298.388 21.977C296.768 20.0563 295.873 17.6285 295.859 15.116C295.917 13.622 295.87 12.124 295.87 10.583C294.983 10.067 294.962 8.85504 294 8.30504L293.151 8.35204L290.851 14.073L291.366 14.324C291.265 14.5357 291.149 14.7393 291.017 14.933C289.227 17.191 286.767 18.533 284.283 19.838C282.304 19.323 280.329 18.914 278.42 20.086C278.663 20.467 279.45 20.229 279.396 20.945C279.31 21.0785 279.205 21.1985 279.084 21.301C277.398 22.162 276.069 23.5876 275.327 25.329C274.521 25.8474 273.826 26.52 273.282 27.308C272.42 27.281 271.753 28.181 270.822 27.823L270.855 27.854C271.185 27.154 271.515 26.448 271.827 25.784V22.843C271.908 22.824 272.047 22.826 272.061 22.785C272.815 20.562 273.742 18.485 276.027 17.363C276.443 17.163 276.471 16.708 276.044 16.348C274.581 16.608 273.677 17.94 272.281 18.334C271.19 18.709 270.245 19.4183 269.581 20.361C268.389 21.7228 267.544 23.3522 267.118 25.1107C266.691 26.8692 266.696 28.7047 267.131 30.461C267.625 32.6394 267.644 34.8985 267.188 37.085C266.427 40.712 263.947 43.371 261.163 45.675C260.939 45.9088 260.668 46.0918 260.367 46.2115C260.066 46.3313 259.743 46.385 259.42 46.369M279.344 13.821C279.129 13.851 278.894 13.862 278.976 14.191C279.305 14.272 279.315 14.037 279.345 13.822C279.561 13.793 279.795 13.782 279.713 13.453C279.383 13.372 279.374 13.607 279.344 13.821ZM277.161 15.321C276.861 15.578 276.771 15.844 276.996 16.167C277.056 16.2175 277.126 16.2542 277.202 16.2748C277.277 16.2953 277.356 16.2991 277.433 16.286C277.511 16.2729 277.584 16.2431 277.649 16.1987C277.713 16.1543 277.767 16.0964 277.807 16.029C277.829 15.697 277.829 15.379 277.162 15.322M280.262 12.533L280.102 12.363L279.93 12.528L280.179 12.703L280.265 12.537" fill="black"/>
<path d="M305.884 184.515C305.889 184.356 305.889 184.196 305.884 184.037C305.838 183.787 305.716 183.558 305.534 183.38C305.353 183.203 305.121 183.085 304.87 183.045C304.214 182.001 303.739 180.854 303.464 179.652C302.221 176.401 300.954 173.161 299.546 169.981C299.339 169.513 299.724 168.76 299.015 168.546C298.115 168.613 298.547 169.289 298.366 169.662C297.365 171.629 295.7 173.179 293.666 174.037C291.755 174.817 289.885 175.695 288.066 176.67C285.615 178.146 283.475 179.957 282.603 182.938C282.449 183.817 282.367 184.708 282.358 185.6C282.304 185.994 282.458 186.451 281.858 186.533C280.253 183.229 278.415 180.043 276.358 176.999C276.043 176.521 275.743 176.583 275.358 176.544C275.843 174.695 277.016 173.101 278.637 172.087C280.258 171.073 282.205 170.716 284.08 171.088C285.846 172.411 288.115 172.806 290.257 173.458C290.815 173.622 291.408 173.635 291.972 173.494C292.537 173.354 293.055 173.065 293.471 172.658C293.956 172.204 294.392 171.7 294.848 171.221C294.848 169.608 294.938 168.021 294.826 166.45C294.737 165.58 294.911 164.703 295.324 163.933C295.738 163.163 296.373 162.534 297.147 162.127C298.411 161.22 299.87 160.619 301.407 160.374C302.569 159.16 303.666 157.898 304.884 156.766C307.77 154.087 311.984 153.142 315.462 155.421L315.045 155.621C315.196 156.464 315.667 157.217 316.36 157.721C316.556 157.866 316.709 158.061 316.803 158.287C316.896 158.512 316.926 158.759 316.89 159C315.996 160.145 315.064 161.263 314.215 162.441C312.156 165.658 310.825 169.287 310.315 173.072C310.173 174.259 309.7 175.472 309.923 176.649C310.396 179.157 310.63 181.698 311.172 184.203C311.591 186.14 312.126 188.06 312.428 190.035C312.828 192.663 313.566 195.241 313.391 197.935C314.247 199.557 313.963 201.324 313.85 203.003C313.671 205.651 314.606 208.179 314.42 210.822C314.266 213.008 313.657 215.149 313.795 217.362C313.795 217.423 313.539 217.501 313.402 217.571C313.421 215.061 313.082 212.561 312.396 210.147C312.378 210.065 312.378 209.98 312.396 209.898C312.739 207.498 311.596 205.198 311.916 202.817C312.111 201.381 311.276 200.138 311.375 198.725C311.564 197.405 311.543 196.063 311.312 194.749C311.034 193.649 310.895 192.519 310.898 191.385L307.498 186.407C307.368 186.245 307.194 186.124 306.998 186.057C306.801 185.989 306.59 185.979 306.388 186.027V186.032C306.237 185.518 306.809 184.763 305.88 184.508" fill="#D2D2D2"/>
<path d="M315.473 155.419C311.992 153.141 307.781 154.085 304.895 156.764C303.676 157.896 302.58 159.159 301.418 160.372C299.881 160.617 298.422 161.218 297.157 162.125C296.383 162.532 295.748 163.161 295.335 163.931C294.921 164.702 294.747 165.578 294.836 166.448C294.948 168.019 294.859 169.606 294.859 171.219C294.403 171.698 293.966 172.202 293.482 172.656C293.066 173.063 292.549 173.352 291.984 173.492C291.419 173.633 290.826 173.62 290.268 173.456C288.125 172.803 285.857 172.408 284.091 171.085C282.216 170.713 280.269 171.07 278.648 172.084C277.027 173.098 275.854 174.692 275.369 176.541C275.192 177.918 274.612 179.241 274.869 180.797L273.583 181.928C271.746 182.379 270.597 180.786 268.856 180.428V168.008C271.275 168.182 273.216 166.983 274.956 165.588C277.575 163.488 280.373 162.168 283.572 162.521C284.321 162.373 285.015 162.024 285.581 161.512C286.148 161 286.564 160.344 286.787 159.614C287.923 157.047 290.097 155.74 292.251 154.354C296.818 151.416 301.997 149.892 307.071 148.169C308.363 147.917 309.683 147.84 310.995 147.94C312.836 149.803 314.85 151.487 317.009 152.969C318.26 153.72 319.701 153.994 320.866 154.7C320.956 155.47 320.423 155.648 320.029 155.968C318.497 156.02 316.929 156.192 315.477 155.412" fill="#D2D2D2"/>
<path d="M290.947 139.448C288.724 140.295 286.402 139.888 284.119 139.99C280.17 140.079 276.254 139.266 272.667 137.612C269.931 136.534 266.965 136.173 264.051 136.564C261.819 137.633 260.838 139.617 260.224 142.289C259.245 146.548 260.441 150.417 261.499 154.333C262.14 156.87 263.172 159.292 264.559 161.511C265.128 162.209 265.406 163.099 265.337 163.997C263.666 162.87 262.667 161.107 261.359 159.65C259.077 157.297 257.172 154.606 255.711 151.672C254.134 148.21 252.976 144.572 252.262 140.835C251.676 137.757 251.016 134.677 251.417 131.564C252.069 126.51 252.745 121.436 254.779 116.683C254.856 116.447 254.911 116.204 254.944 115.957C255.763 115.831 256.119 116.501 256.538 116.963C257.993 118.404 259.561 119.727 261.227 120.918C262.338 121.711 263.277 122.72 263.99 123.885C264.702 125.05 265.172 126.346 265.372 127.696C265.384 128.552 265.726 129.371 266.326 129.981C266.484 130.493 265.904 131.263 266.857 131.496C267.176 133.925 267.663 134.552 269.629 134.94C269.919 134.377 270.153 133.786 270.326 133.177C270.374 132.89 270.484 132.618 270.648 132.378C270.813 132.138 271.027 131.937 271.277 131.789C272.135 131.188 272.843 130.397 273.347 129.478C274.213 130.068 275 130.767 275.687 131.559C276.174 131.971 276.531 132.572 277.28 132.565C278.654 133.983 280.028 135.401 281.402 136.818C281.985 137.386 282.711 137.785 283.502 137.975C285.349 138.555 287.26 138.904 289.193 139.014C289.779 139.029 290.544 138.607 290.951 139.448" fill="#D2D2D2"/>
<path d="M290.947 139.447C290.54 138.606 289.775 139.028 289.189 139.013C287.256 138.902 285.345 138.553 283.498 137.974C282.706 137.784 281.981 137.384 281.398 136.816C280.026 135.397 278.652 133.979 277.276 132.563C277.236 130.234 277.609 127.917 278.376 125.718C278.916 124.243 279.69 122.854 280.359 121.427L281.349 121.476C282.277 122.251 283.406 122.746 284.605 122.901C285.804 123.057 287.023 122.867 288.118 122.355C288.875 121.972 289.726 121.812 290.57 121.896C291.414 121.98 292.217 122.303 292.884 122.828C291.795 125 291.795 125 288.856 126.464C287.818 126.328 286.766 126.594 285.918 127.208C289.063 128.762 291.311 128.908 293.825 127.724L293.883 126.996C295.583 126.119 296.091 124.235 297.308 122.951C297.773 122.951 297.959 123.343 298.376 123.718C298.302 124.826 298.473 125.937 298.876 126.972C297.665 127.272 297.844 128.472 297.403 129.05C297.336 129.95 298.029 130.19 298.298 130.828C298.525 131.924 298.388 133.063 297.908 134.074C297.8 134.886 298.608 135.231 298.179 136.302C297.278 137.179 296.599 138.257 296.197 139.448L290.947 139.447ZM296.425 131.597C296.835 131.214 296.945 130.951 296.719 130.627C295.819 130.727 295.819 130.727 296.425 131.597Z" fill="#FBDBCC"/>
<path d="M320.903 73.401C320.98 73.4014 321.057 73.3843 321.127 73.3508C321.196 73.3174 321.258 73.2686 321.306 73.208C321.354 73.1474 321.388 73.0767 321.405 73.0012C321.421 72.9256 321.421 72.8473 321.403 72.772C321.355 72.372 321.345 71.982 321.88 71.892C322.88 71.678 322.224 70.892 322.399 70.392C323.352 70.159 322.732 69.404 322.891 68.908C324.455 68.525 325.885 69.391 327.408 69.394C327.766 70.916 328.675 72.276 328.538 74.08C329.799 73.541 331.068 73.674 331.868 72.613L328.939 71.157C329.039 70.509 328.189 70.128 328.409 69.39C328.411 69.3138 328.429 69.2389 328.463 69.1703C328.496 69.1018 328.544 69.0412 328.602 68.9926C328.661 68.944 328.73 68.9085 328.803 68.8886C328.877 68.8686 328.954 68.8647 329.029 68.877C329.653 68.897 330.277 68.89 330.901 68.893L331.91 68.886C333.514 69.8049 335.351 70.2345 337.196 70.122C336.166 69.241 336.486 68.161 336.388 67.173C335.788 66.608 335.445 65.727 334.418 65.887L333.396 62.955C333.606 62.415 332.959 61.535 334.037 61.339L335.907 61.416C336.253 63.366 337.534 64.499 339.357 65.582C339.402 64.7031 339.223 63.8272 338.838 63.036C338.107 61.37 337.838 59.304 335.857 58.42C335.709 58.4113 335.562 58.3977 335.415 58.379V57.237C335.681 56.783 336.107 56.904 336.478 56.858C337.191 56.592 337.625 57.593 338.351 57.272C338.689 58.272 339.741 58.672 340.397 59.854C340.918 61.1814 341.073 62.6243 340.846 64.032C340.254 64.952 340.005 66.367 338.959 67.14C338.744 68.01 339.359 68.495 339.412 68.729C339.468 70.506 338.226 70.893 337.43 71.629V74.559C336.111 76.159 334.173 76.351 332.466 76.859C331.1 77.2116 329.835 77.8751 328.768 78.7978C327.701 79.7205 326.862 80.8774 326.316 82.178C325.666 83.634 324.568 84.915 324.984 86.783C323.901 86.412 322.944 86.383 322.184 85.507C320.649 83.743 320.457 82.738 321.794 80.793C322.542 79.7699 322.932 78.5291 322.905 77.262C322.045 75.945 319.978 75.484 320.405 73.407H320.905" fill="#FBDBCC"/>
<path d="M281.34 121.477L280.35 121.428L279.84 120.464C280.02 120.488 280.203 120.472 280.377 120.419C280.55 120.366 280.711 120.276 280.847 120.156C280.983 120.036 281.091 119.888 281.166 119.722C281.24 119.556 281.277 119.377 281.276 119.195C279.954 118.307 278.338 118.575 276.956 118.02C275.857 117.492 274.961 116.62 274.404 115.536C273.87 114.493 272.692 114.057 272.334 112.942C274.56 112.342 274.996 111.914 275.856 109.463C276.583 109.504 276.111 108.373 276.856 108.435L279.83 108.48C279.85 108.601 279.914 108.711 280.009 108.789C280.104 108.868 280.224 108.909 280.347 108.906C282.163 108.906 283.98 108.886 285.796 108.873C285.833 109.187 285.871 109.502 285.896 109.732C286.067 109.882 286.277 109.98 286.502 110.014C286.727 110.048 286.957 110.016 287.165 109.923C288.693 108.991 290.533 109.881 292.074 108.984C292.874 108.518 293.53 109.636 294.374 109.451C294.038 111.391 295.074 113.201 294.92 115.132C294.899 115.391 295.206 115.676 295.361 115.948C295.361 116.295 295.359 116.641 295.355 116.986C295.283 117.453 295.549 117.98 295.018 118.475C292.177 118.251 289.35 119.075 286.508 119.553C284.662 119.795 282.895 120.453 281.34 121.477Z" fill="#D2D2D2"/>
<path d="M303.94 82.818C304.782 83.18 304.763 84.229 305.697 84.88C307.84 85.521 309.49 83.92 311.208 82.809C313.369 81.5369 315.129 79.6835 316.288 77.46L317.855 80.26C317.855 81.798 317.888 83.3 317.847 84.799C317.877 86.7718 318.494 88.691 319.619 90.312C320.419 91.5154 321.66 92.3562 323.075 92.653C320.254 93.6966 317.51 94.9367 314.862 96.364C314.153 95.364 312.873 96.358 311.989 95.503C311.603 95.13 310.555 95.44 309.808 95.44C309.539 95.2604 309.261 95.0955 308.974 94.946C308.155 94.6266 307.414 94.1348 306.801 93.5041C306.189 92.8733 305.719 92.1182 305.424 91.29C304.459 88.5703 303.957 85.7078 303.939 82.822" fill="#544F55"/>
<path d="M319.901 257.137C320.593 257.124 320.258 257.971 320.763 258.145H323.407C323.418 259.788 324.207 261.213 324.72 262.707C326.146 266.554 328.292 270.094 331.044 273.137C333.505 276.004 335.763 279.07 338.624 281.537C340.624 283.265 342.535 285.063 344.589 287.08H339.575C339.215 286.3 339.538 285.374 339.442 284.761C338.234 281.648 335.668 280.532 333.042 279.711C330.781 278.917 328.661 277.769 326.76 276.311C325.189 275.115 323.716 273.795 322.355 272.365C320.95 271.118 319.769 269.64 318.862 267.995C318.449 267.378 317.956 266.817 317.396 266.329C318.477 263.312 318.696 260.087 319.903 257.129" fill="#FCEBE4"/>
<path d="M303.94 82.8181C303.958 85.7039 304.46 88.5664 305.425 91.2861C305.72 92.1144 306.19 92.8695 306.803 93.5003C307.415 94.1311 308.157 94.6228 308.976 94.942C309.263 95.0915 309.541 95.2565 309.81 95.4361C310.557 95.4361 311.605 95.1261 311.991 95.4991C312.876 96.3551 314.155 95.358 314.864 96.36C311.521 98.91 308.234 101.549 304.302 103.187C304.008 103.31 303.693 103.38 303.387 103.475C303.333 101.297 303.011 99.1334 302.428 97.0341C302.123 95.8081 302.228 94.4931 301.947 93.1931C301.358 90.4511 301.147 77.9631 301.36 75.3571C301.369 75.2338 301.426 75.1189 301.517 75.0362C301.609 74.9535 301.729 74.9094 301.853 74.9131L303.942 82.8131" fill="#2C272D"/>
<path d="M259.423 46.3731C259.746 46.3891 260.069 46.3354 260.37 46.2156C260.671 46.0959 260.942 45.9129 261.166 45.6791C263.95 43.3791 266.43 40.7161 267.191 37.0891C267.647 34.9025 267.628 32.6434 267.134 30.465C266.699 28.7087 266.694 26.8732 267.12 25.1146C267.547 23.3561 268.392 21.7267 269.584 20.3651C270.249 19.4224 271.193 18.7132 272.284 18.3381C273.684 17.9441 274.584 16.6121 276.047 16.3521C276.474 16.7111 276.447 17.1631 276.03 17.3671C273.745 18.4871 272.818 20.5671 272.064 22.7891C272.05 22.8301 271.911 22.829 271.83 22.848C271.31 22.672 270.892 22.1481 270.095 22.4481C269.384 22.8902 268.787 23.4952 268.356 24.2131C268.129 26.4141 268.634 28.6286 269.794 30.5131C270.463 31.5131 271.866 30.9131 272.556 31.8201C272.345 33.1761 272.133 34.5314 271.921 35.886L270.816 39.8101C270.356 39.9901 269.833 39.6431 269.068 40.2261C269.001 41.7861 268.15 43.4471 267.755 45.2491C267.333 45.4101 267.295 45.788 267.243 46.1581C266.02 46.2933 264.843 46.7035 263.801 47.358C262.268 47.5 260.795 48.1231 259.22 47.9321C259.232 47.7893 259.212 47.6456 259.16 47.512C259.108 47.3785 259.026 47.2587 258.92 47.162L259.42 46.3761" fill="black"/>
<path d="M292.752 51.844C291.327 52.058 290.133 51.344 288.88 50.873C288.881 50.8028 288.868 50.733 288.842 50.6678C288.816 50.6025 288.778 50.543 288.729 50.4928C288.68 50.4426 288.621 50.4026 288.556 50.3752C288.492 50.3477 288.422 50.3334 288.352 50.333L288.397 50.376C287.093 48.6848 285.581 47.1648 283.897 45.852C283.853 45.279 283.81 44.705 283.767 44.139C283.334 43.789 282.781 43.547 282.779 42.876L282.851 41.859C284.227 41.9288 285.598 41.6458 286.834 41.037C289.231 39.8122 291.299 38.0287 292.862 35.837L293.468 35.867C293.163 37.86 292.632 39.846 292.468 41.824C292.042 45.1568 292.138 48.5356 292.751 51.839" fill="black"/>
<path d="M291.364 14.3279L290.849 14.0769L293.149 8.35594L293.998 8.30994C294.96 8.85994 294.982 10.0709 295.868 10.5869C295.868 12.1279 295.916 13.6259 295.857 15.1199C295.871 17.6325 296.767 20.0605 298.387 21.9809C299.345 23.2158 300.194 24.5314 300.924 25.9129C300.441 27.7425 299.643 29.4739 298.565 31.0289C298.148 31.4712 297.826 31.9945 297.62 32.5663C297.413 33.1381 297.327 33.7462 297.365 34.3529C297 34.3629 296.884 34.1279 296.844 33.8199C296.804 33.5119 297.018 33.1899 296.722 32.9059C296.027 33.0859 295.75 33.9869 294.934 33.9199L294.834 33.8199C294.775 33.1248 294.951 32.43 295.334 31.8469L298.049 26.6109C297.511 26.0389 297.628 25.1869 296.86 24.8309L296.895 24.8609C296.901 24.7833 296.889 24.7053 296.86 24.6331C296.831 24.5608 296.786 24.4962 296.728 24.4443C296.67 24.3923 296.6 24.3545 296.525 24.3336C296.45 24.3127 296.372 24.3094 296.295 24.3239C296.133 24.3315 295.972 24.3549 295.814 24.3939C295.848 24.2494 295.874 24.1027 295.889 23.9549C295.896 23.4959 296.043 22.9749 295.378 22.8199C293.669 20.4731 292.933 17.5567 293.323 14.6799C293.381 13.9315 293.401 13.1805 293.382 12.4299C293.373 11.9299 293.572 11.3659 293.13 10.8889C292.28 11.9699 292.503 13.4949 291.364 14.3279Z" fill="black"/>
<path d="M281.344 121.477C282.899 120.451 284.667 119.792 286.515 119.549C289.358 119.066 292.184 118.249 295.025 118.471C295.557 117.971 295.29 117.449 295.362 116.982C296.045 118.457 296.534 120.014 296.818 121.614C296.924 122.105 297.263 122.467 297.302 122.951C296.085 124.236 295.575 126.12 293.877 126.996C292.418 126.996 290.958 126.981 289.499 126.996C289.421 127.009 289.341 127.006 289.264 126.986C289.188 126.966 289.116 126.929 289.055 126.88C288.994 126.83 288.943 126.767 288.908 126.696C288.873 126.626 288.853 126.548 288.85 126.469C291.788 125.005 291.788 125.005 292.877 122.833C292.21 122.309 291.408 121.985 290.563 121.902C289.719 121.818 288.869 121.977 288.112 122.36C287.017 122.873 285.798 123.062 284.599 122.906C283.4 122.751 282.271 122.256 281.343 121.481" fill="#D2D2D2"/>
<path d="M266.326 129.982C265.726 129.371 265.385 128.552 265.374 127.696C265.174 126.346 264.704 125.049 263.992 123.885C263.28 122.72 262.34 121.711 261.229 120.918C259.563 119.727 257.994 118.404 256.539 116.962C256.12 116.499 255.764 115.83 254.945 115.956C253.109 113.756 250.852 111.93 249.272 109.508C249.287 109.365 249.345 109.23 249.439 109.122C249.533 109.013 249.658 108.936 249.797 108.901C251.877 110.377 254.251 111.558 256.413 113.018C259.598 115.065 262.33 117.743 264.439 120.887C265.176 121.924 265.629 123.137 265.751 124.404C265.785 126.297 266.702 128.075 266.325 129.982" fill="#2C272D"/>
<path d="M295.368 115.943C295.213 115.67 294.907 115.385 294.927 115.127C295.082 113.196 294.045 111.385 294.381 109.445C298.367 109.236 302.315 110.317 305.64 112.526C305.682 112.597 305.752 112.664 305.761 112.738C305.773 112.914 305.775 113.091 305.767 113.267C302.247 113.948 298.583 114.095 295.367 115.943" fill="#0E080D"/>
<path d="M338.351 57.273C337.625 57.594 337.192 56.593 336.478 56.859C336.361 56.1313 336.474 55.3853 336.802 54.725C337.776 52.783 338.545 50.738 339.502 48.785C339.949 47.87 340.261 46.754 341.477 46.436C341.917 46.536 342.102 46.928 342.427 47.281C342.171 48.523 341.736 49.7212 341.135 50.838C340.072 52.9222 339.143 55.0718 338.353 57.274" fill="#544F55"/>
<path d="M255.32 42.865C255.308 42.451 255.274 42.034 255.681 41.754C257.343 40.61 258.809 39.188 260.466 38.073C262.382 36.8892 263.823 35.0706 264.536 32.934C264.602 32.734 264.884 32.597 265.081 32.418C265.971 33.889 264.581 35.17 264.792 36.564C263.618 38.32 263.166 40.552 261.309 41.858C261.335 40.733 262.329 39.98 262.448 38.891C262.918 38.691 262.929 38.375 262.704 37.976C262.488 38.0276 262.288 38.1313 262.121 38.2781C261.954 38.4249 261.826 38.6102 261.747 38.818C259.767 40.151 257.789 41.487 255.802 42.809C255.682 42.889 255.483 42.85 255.32 42.867" fill="black"/>
<path d="M331.91 68.889L330.901 68.896C330.777 68.0151 330.98 67.1193 331.47 66.377C332.181 65.277 332.383 63.886 333.396 62.957L334.418 65.889C334.081 66.589 333.734 67.278 333.41 67.981C333.307 68.2849 333.1 68.5427 332.826 68.7087C332.551 68.8747 332.227 68.9382 331.91 68.888" fill="#544F55"/>
<path d="M328.408 69.392C328.189 70.13 329.036 70.512 328.939 71.16L331.867 72.615C331.067 73.676 329.798 73.544 328.537 74.082C328.673 72.282 327.766 70.918 327.407 69.396H328.407" fill="#F3B8A1"/>
<path d="M325.556 288.841C329.282 288.619 333.006 288.39 336.733 288.184C337.115 288.163 337.565 288 337.965 288.625C336.733 288.412 335.797 289.194 334.653 289.184C331.616 289.157 328.579 289.175 325.542 289.175L325.556 288.842" fill="#DFE8E4"/>
<path d="M293.345 4.43203C292.805 5.12703 291.851 4.78903 291.318 5.34303C290.528 4.89803 290.991 4.24303 290.832 3.59503C289.51 2.20303 288.288 0.443032 285.832 0.803032C286.442 -0.124968 287.332 0.603032 287.884 0.417032C289.557 1.10503 290.99 1.81703 291.746 3.43203C291.888 3.73539 292.114 3.99125 292.398 4.1687C292.682 4.34615 293.011 4.43761 293.346 4.43203" fill="black"/>
<path d="M329.41 249.627C330.279 246.048 329.782 242.406 329.919 238.794C329.936 238.356 329.636 237.749 330.411 237.611C330.406 241.955 330.402 246.299 330.398 250.643C330.151 250.612 329.925 250.487 329.919 250.243C329.909 249.873 329.78 249.668 329.41 249.628" fill="#D2D2D2"/>
<path d="M330.914 203.068C330.914 199.45 330.907 195.832 330.921 192.215C330.921 191.782 330.644 191.183 331.41 191.052V203.067C331.245 203.067 331.079 203.067 330.91 203.067" fill="#D2D2D2"/>
<path d="M335.415 58.384C335.562 58.403 335.709 58.416 335.857 58.425C335.98 59.203 335.745 60.033 336.349 60.745C336.57 61.005 336.278 61.334 335.906 61.421L334.036 61.344C334.148 60.2299 334.634 59.1866 335.415 58.384Z" fill="#544F55"/>
<path d="M252.844 43.949C252.844 44.333 252.681 44.797 253.307 44.863C253.334 46.116 251.946 46.879 252.323 48.223C251.706 48.152 251.573 47.762 251.273 47.436C251.784 46.272 251.715 44.856 252.845 43.949" fill="#544F55"/>
<path d="M330.911 203.068C331.076 203.063 331.242 203.063 331.411 203.068C331.411 205.903 331.411 208.739 331.411 211.575C331.247 211.583 331.083 211.583 330.919 211.575C330.919 208.74 330.919 205.904 330.919 203.067" fill="#D2D2D2"/>
<path d="M296.844 33.82C296.884 34.128 297 34.362 297.365 34.353C297.512 34.353 297.659 34.353 297.806 34.342L296.036 38.019C295.767 36.339 295.727 34.973 296.845 33.819" fill="#544F55"/>
<path d="M301.343 71.394L300.494 71.337C300.301 70.2619 300.297 69.1614 300.483 68.085C300.496 68.002 300.738 67.953 300.875 67.885C301.025 67.9198 301.156 68.0109 301.241 68.1395C301.325 68.2682 301.357 68.4245 301.33 68.576C301.312 69.513 301.336 70.451 301.343 71.39" fill="#534E54"/>
<path d="M310.387 222.089C309.82 222.013 309.878 221.606 309.882 221.189C309.895 219.489 309.887 217.789 309.882 216.083C310.447 216.167 310.382 216.578 310.382 216.988C310.373 218.688 310.382 220.388 310.382 222.088" fill="#F3B8A1"/>
<path d="M301.5 281.479V277.218C301.894 278.841 301.82 280.489 302.442 282.166C302.054 282.061 301.719 281.816 301.5 281.48" fill="#F7D4C5"/>
<path d="M329.41 249.624C329.78 249.665 329.91 249.87 329.919 250.239C329.925 250.484 330.151 250.608 330.398 250.639C329.98 251.752 329.81 252.942 329.898 254.128C329.739 254.128 329.58 254.128 329.421 254.128C329.421 252.626 329.418 251.124 329.412 249.622" fill="#D2D2D2"/>
<path d="M309.883 216.082C309.805 216.077 309.728 216.056 309.659 216.02C309.589 215.983 309.528 215.933 309.48 215.871C309.431 215.81 309.396 215.738 309.377 215.662C309.358 215.586 309.355 215.507 309.369 215.43C309.39 213.817 309.383 212.205 309.386 210.592C309.765 210.647 309.896 210.859 309.892 211.244C309.874 212.857 309.884 214.47 309.883 216.082Z" fill="#F3B8A1"/>
<path d="M302.083 265.667C301.363 264.06 302.546 263.013 302.473 261.759C302.909 263.096 302.909 263.096 302.083 265.667Z" fill="#F3B8A1"/>
<path d="M309.382 210.074C309.304 210.07 309.227 210.049 309.157 210.014C309.088 209.978 309.026 209.927 308.978 209.866C308.929 209.805 308.894 209.734 308.874 209.658C308.855 209.582 308.852 209.502 308.866 209.425C308.889 208.138 308.881 206.851 308.885 205.564C308.963 205.569 309.04 205.59 309.109 205.626C309.179 205.662 309.24 205.712 309.288 205.774C309.337 205.835 309.373 205.906 309.392 205.982C309.412 206.058 309.415 206.137 309.402 206.214C309.379 207.501 309.386 208.787 309.382 210.074Z" fill="#F7D4C5"/>
<path d="M329.419 254.131C329.578 254.131 329.736 254.131 329.896 254.131C329.904 255.087 329.901 256.044 329.927 257C329.941 257.076 329.938 257.155 329.919 257.23C329.899 257.305 329.863 257.375 329.814 257.435C329.765 257.496 329.703 257.544 329.633 257.578C329.563 257.612 329.487 257.63 329.409 257.631L329.42 254.131" fill="#D2D2D2"/>
<path d="M330.914 211.58C331.078 211.586 331.242 211.586 331.406 211.58C331.406 212.749 331.406 213.915 331.406 215.08C331.329 215.076 331.253 215.056 331.184 215.02C331.115 214.984 331.055 214.935 331.006 214.874C330.958 214.813 330.924 214.743 330.905 214.668C330.886 214.593 330.883 214.514 330.897 214.438C330.922 213.485 330.913 212.531 330.917 211.577" fill="#D2D2D2"/>
<path d="M313.898 218.585C313.975 218.589 314.05 218.609 314.118 218.644C314.187 218.679 314.247 218.728 314.295 218.788C314.343 218.847 314.378 218.917 314.397 218.991C314.417 219.066 314.42 219.143 314.407 219.219C314.384 220.006 314.394 220.794 314.391 221.581C314.314 221.579 314.238 221.559 314.169 221.525C314.1 221.491 314.04 221.442 313.991 221.382C313.943 221.323 313.907 221.253 313.888 221.178C313.869 221.104 313.866 221.026 313.879 220.95C313.901 220.162 313.894 219.373 313.898 218.585Z" fill="#D2D2D2"/>
<path d="M301.609 268.718C301.322 267.819 301.264 266.863 301.44 265.936C301.81 266.817 301.87 267.798 301.609 268.718Z" fill="#F7D4C5"/>
<path d="M310.878 225.088C310.724 224.972 310.598 224.823 310.512 224.65C310.426 224.478 310.381 224.288 310.381 224.095C310.381 223.902 310.426 223.712 310.512 223.54C310.598 223.367 310.724 223.217 310.878 223.102C310.878 223.764 310.878 224.426 310.878 225.088Z" fill="#F3B8A1"/>
<path d="M261.745 38.817C261.824 38.6094 261.952 38.4243 262.119 38.2778C262.286 38.1312 262.486 38.0276 262.702 37.976C262.927 38.376 262.915 38.695 262.446 38.891L261.746 38.817" fill="#DFE8E4"/>
<path d="M293.465 35.872L292.859 35.842C292.85 35.6808 292.85 35.5192 292.859 35.358L293.874 34.87C293.894 35.0079 293.888 35.1482 293.857 35.284C293.878 35.584 293.817 35.823 293.466 35.873" fill="#534E54"/>
<path d="M293.856 35.283C293.887 35.1472 293.893 35.0069 293.873 34.869C293.873 34.451 293.737 33.963 294.368 33.849L294.386 34.409C294.318 34.765 294.463 35.252 293.857 35.283" fill="#2C272D"/>
<path d="M351.064 278.731C350.436 279.388 349.992 279.061 349.379 279.176C349.979 278.284 350.424 278.853 351.064 278.731Z" fill="#DFE8E4"/>
<path d="M309.386 280.166C309.633 280.215 309.859 280.336 310.037 280.514C310.215 280.692 310.337 280.919 310.386 281.166L309.886 281.173C309.214 281.09 309.416 280.573 309.386 280.173V280.166Z" fill="#F3B8A1"/>
<path d="M303.145 260.185C303.369 260.448 303.517 260.713 303.189 261.032C302.623 260.78 302.863 260.486 303.145 260.185Z" fill="#FBDBCC"/>
<path d="M296.277 4.83701C295.989 4.73701 295.569 4.99101 295.416 4.52001C295.79 4.38801 296.216 4.12001 296.277 4.83701Z" fill="black"/>
<path d="M288.848 203.571C289.772 204.335 289.748 205.512 290.026 206.517C290.612 208.672 291.52 210.778 291.356 213.089C290.278 212.101 290.356 210.641 290.087 209.415C289.666 207.473 288.525 205.665 288.848 203.571Z" fill="#D2D2D2"/>
<path d="M292.354 216.596C293.446 217.761 293.417 219.196 293.344 220.65C292.307 219.472 292.307 218.04 292.354 216.596Z" fill="#D2D2D2"/>
<path d="M287.85 200.061C289.16 200.954 288.825 202.316 288.85 203.575C288.453 203.088 288.16 202.525 287.988 201.921C287.816 201.317 287.769 200.684 287.85 200.061Z" fill="#D2D2D2"/>
<path d="M291.351 213.084C291.758 213.563 292.059 214.124 292.231 214.728C292.404 215.333 292.444 215.968 292.351 216.59C291.127 215.675 291.379 214.34 291.351 213.084Z" fill="#D2D2D2"/>
<path d="M302.865 257.141C303.187 257.368 303.447 257.67 303.624 258.022C303.801 258.373 303.888 258.763 303.878 259.156L302.865 259.039V257.141Z" fill="#D2D2D2"/>
<path d="M296.365 232.603C296.441 232.603 296.516 232.619 296.585 232.651C296.653 232.683 296.715 232.729 296.764 232.787C296.813 232.845 296.849 232.912 296.869 232.985C296.889 233.059 296.893 233.135 296.881 233.21C296.859 233.674 296.871 234.138 296.868 234.602C295.855 234.148 296.576 233.259 296.368 232.602" fill="#D2D2D2"/>
<path d="M295.862 230.604C295.938 230.603 296.013 230.618 296.082 230.649C296.151 230.68 296.213 230.725 296.262 230.783C296.312 230.84 296.348 230.907 296.369 230.98C296.39 231.053 296.395 231.129 296.383 231.204C296.361 231.67 296.37 232.136 296.366 232.604C295.355 232.149 296.072 231.258 295.866 230.604" fill="#D2D2D2"/>
<path d="M295.361 228.601C295.437 228.6 295.513 228.616 295.582 228.648C295.651 228.679 295.713 228.725 295.763 228.783C295.812 228.841 295.849 228.909 295.869 228.982C295.89 229.056 295.894 229.133 295.882 229.208C295.86 229.673 295.869 230.14 295.865 230.608C294.849 230.153 295.574 229.26 295.365 228.603" fill="#D2D2D2"/>
<path d="M294.859 226.601C294.935 226.6 295.01 226.615 295.079 226.646C295.148 226.677 295.21 226.722 295.26 226.779C295.31 226.836 295.346 226.904 295.367 226.977C295.388 227.05 295.393 227.126 295.381 227.201C295.36 227.667 295.368 228.134 295.364 228.601C294.336 228.149 295.074 227.253 294.859 226.601Z" fill="#D2D2D2"/>
<path d="M294.359 224.602C294.435 224.599 294.511 224.613 294.581 224.644C294.651 224.674 294.714 224.719 294.764 224.777C294.814 224.834 294.851 224.903 294.871 224.976C294.892 225.05 294.895 225.127 294.882 225.202C294.86 225.669 294.867 226.136 294.861 226.602C293.833 226.151 294.571 225.257 294.361 224.602" fill="#D2D2D2"/>
<path d="M293.862 222.607C293.938 222.602 294.014 222.615 294.085 222.645C294.155 222.674 294.218 222.72 294.268 222.777C294.318 222.834 294.354 222.903 294.374 222.976C294.394 223.05 294.397 223.127 294.382 223.202C294.359 223.667 294.364 224.134 294.356 224.602C293.33 224.151 294.061 223.265 293.862 222.61" fill="#D2D2D2"/>
<path d="M287.355 198.06C287.431 198.061 287.506 198.079 287.574 198.112C287.643 198.144 287.704 198.191 287.752 198.25C287.801 198.308 287.837 198.376 287.857 198.449C287.878 198.522 287.882 198.599 287.87 198.674C287.846 199.138 287.858 199.604 287.855 200.074C286.85 199.612 287.562 198.724 287.355 198.064" fill="#D2D2D2"/>
<path d="M302.365 255.135C302.441 255.134 302.517 255.149 302.587 255.18C302.657 255.211 302.719 255.257 302.77 255.315C302.82 255.373 302.857 255.441 302.878 255.515C302.899 255.588 302.903 255.665 302.891 255.741C302.868 256.209 302.875 256.678 302.868 257.141C301.845 256.685 302.582 255.788 302.368 255.13" fill="#D2D2D2"/>
<path d="M300.87 249.625C300.946 249.625 301.021 249.642 301.09 249.674C301.159 249.706 301.22 249.752 301.27 249.81C301.319 249.868 301.355 249.936 301.375 250.01C301.396 250.083 301.4 250.16 301.388 250.235C301.365 250.7 301.377 251.166 301.374 251.635C300.353 251.18 301.087 250.285 300.874 249.628" fill="#D2D2D2"/>
<path d="M298.873 242.116C299.567 242.646 299.573 243.072 298.884 243.609C298.884 243.109 298.876 242.609 298.873 242.116Z" fill="#D2D2D2"/>
<path d="M286.859 196.557C287.813 196.799 287.175 197.565 287.359 198.057C286.415 197.812 287.031 197.057 286.859 196.557Z" fill="#D2D2D2"/>
<path d="M297.367 236.603C298.331 236.846 297.691 237.618 297.867 238.121C296.924 237.871 297.538 237.108 297.367 236.603Z" fill="#D2D2D2"/>
<path d="M297.87 238.614C298.828 238.853 298.189 239.623 298.37 240.12C297.422 239.878 298.042 239.114 297.87 238.614Z" fill="#D2D2D2"/>
<path d="M299.878 246.12C300.831 246.366 300.191 247.133 300.373 247.631C299.431 247.382 300.044 246.624 299.878 246.12Z" fill="#D2D2D2"/>
<path d="M301.372 251.628C302.067 252.161 302.072 252.59 301.382 253.122C301.379 252.624 301.375 252.126 301.372 251.628Z" fill="#D2D2D2"/>
<path d="M301.859 253.63C302.841 253.859 302.2 254.638 302.372 255.142C301.43 254.899 302.051 254.127 301.859 253.63Z" fill="#D2D2D2"/>
<path d="M300.372 248.125C301.332 248.364 300.693 249.134 300.872 249.632C299.928 249.388 300.545 248.625 300.372 248.125Z" fill="#D2D2D2"/>
<path d="M293.361 221.056C294.302 221.321 293.724 222.068 293.848 222.592C292.898 222.33 293.521 221.569 293.361 221.056Z" fill="#D2D2D2"/>
<path d="M299.375 244.118C300.063 244.65 300.066 245.073 299.383 245.609C299.383 245.112 299.38 244.615 299.375 244.118Z" fill="#D2D2D2"/>
<path d="M296.871 234.605C297.829 234.851 297.187 235.622 297.371 236.122C296.434 235.869 297.043 235.11 296.871 234.605Z" fill="#D2D2D2"/>
<path d="M283.854 190.051C284.546 190.125 284.31 190.661 284.354 191.057C283.684 190.972 283.893 190.45 283.854 190.051Z" fill="#D2D2D2"/>
<path d="M284.849 192.051C285.549 192.118 285.31 192.658 285.349 193.051C284.675 192.969 284.887 192.444 284.849 192.051Z" fill="#D2D2D2"/>
<path d="M285.349 193.052C286.049 193.122 285.807 193.665 285.849 194.063C285.175 193.978 285.386 193.452 285.349 193.052Z" fill="#D2D2D2"/>
<path d="M284.35 191.05C285.05 191.119 284.809 191.658 284.85 192.05C284.18 191.966 284.387 191.444 284.35 191.05Z" fill="#D2D2D2"/>
<path d="M335.915 268.153C335.247 268.076 335.441 267.559 335.407 267.158L335.429 267.137C336.098 267.226 335.9 267.737 335.929 268.145L335.915 268.153Z" fill="#EDAB93"/>
<path d="M301.555 73.824C301.227 73.9 300.949 73.87 300.882 73.467C300.815 73.064 301.082 72.945 301.415 72.895L301.555 73.824Z" fill="#534E54"/>
<path d="M311.406 282.646C311.811 282.671 312.306 282.512 312.415 283.141L312.356 283.2C311.956 283.16 311.456 283.318 311.367 282.685L311.406 282.646Z" fill="#EDAB93"/>
<path d="M314.892 285.172C314.592 285.131 314.24 285.283 313.952 284.939C314.422 284.461 314.711 284.571 314.893 285.171L314.892 285.172Z" fill="#F3B8A1"/>
<path d="M294.386 34.41L294.368 33.85L294.598 33.812H294.831L294.931 33.912C294.911 34.0453 294.846 34.1675 294.745 34.2571C294.645 34.3467 294.516 34.398 294.381 34.402" fill="#560E0B"/>
<path d="M254.298 43.757C254.314 43.6457 254.369 43.5437 254.453 43.4689C254.537 43.3941 254.645 43.3513 254.757 43.348C254.757 43.661 254.641 43.833 254.298 43.757Z" fill="#560E0B"/>
<path d="M254.799 43.31C254.802 43.2461 254.819 43.1835 254.847 43.1261C254.875 43.0687 254.915 43.0176 254.964 42.9759C255.012 42.9342 255.069 42.9028 255.13 42.8836C255.191 42.8644 255.255 42.8577 255.319 42.864C255.319 42.9291 255.305 42.9936 255.278 43.0528C255.251 43.112 255.211 43.1646 255.162 43.2071C255.112 43.2495 255.054 43.2806 254.992 43.2984C254.929 43.3162 254.863 43.3201 254.799 43.31Z" fill="#560E0B"/>
<path d="M326.914 171.525C326.845 171.532 326.775 171.523 326.71 171.499C326.645 171.475 326.586 171.437 326.538 171.386C326.49 171.336 326.453 171.276 326.432 171.21C326.411 171.144 326.404 171.074 326.414 171.005C326.482 171.003 326.55 171.014 326.613 171.04C326.676 171.065 326.733 171.104 326.781 171.153C326.828 171.202 326.864 171.261 326.887 171.325C326.91 171.389 326.919 171.457 326.914 171.525Z" fill="#F3B8A1"/>
<path d="M333.079 263.266C333.138 263.266 333.213 263.243 333.25 263.266C333.397 263.373 333.365 263.5 333.156 263.596C333.132 263.607 333.029 263.496 333.002 263.426C332.987 263.386 333.052 263.315 333.079 263.262" fill="#DFE8E4"/>
<path d="M333.579 264.266C333.639 264.266 333.713 264.242 333.751 264.266C333.898 264.374 333.866 264.502 333.657 264.599C333.633 264.61 333.529 264.499 333.502 264.427C333.486 264.387 333.552 264.315 333.58 264.262" fill="#DFE8E4"/>
<path d="M334.406 265.653C334.187 265.62 333.955 265.599 334.042 265.271C334.37 265.186 334.387 265.422 334.422 265.637L334.406 265.653Z" fill="#DFE8E4"/>
<path d="M334.425 265.638C334.492 265.632 334.559 265.642 334.622 265.665C334.686 265.688 334.743 265.725 334.791 265.772C334.838 265.82 334.875 265.877 334.898 265.94C334.921 266.003 334.93 266.071 334.925 266.138L334.418 266.147C334.415 265.982 334.412 265.818 334.41 265.653L334.425 265.638Z" fill="#DFE8E4"/>
<path d="M334.418 266.148L334.925 266.139C334.932 266.305 334.933 266.472 334.925 266.639L334.907 266.657C334.84 266.661 334.773 266.65 334.71 266.626C334.648 266.601 334.591 266.564 334.545 266.515C334.498 266.467 334.462 266.41 334.44 266.346C334.417 266.283 334.408 266.216 334.414 266.149" fill="#EDAB93"/>
<path d="M335.407 267.156C335.339 267.165 335.27 267.158 335.206 267.136C335.141 267.114 335.082 267.077 335.034 267.029C334.986 266.981 334.949 266.922 334.927 266.857C334.905 266.793 334.898 266.724 334.907 266.656L334.925 266.638C335.263 266.632 335.416 266.813 335.425 267.138L335.407 267.156Z" fill="#EDAB93"/>
<path d="M326.409 170.53C326.341 170.537 326.271 170.528 326.207 170.504C326.142 170.481 326.084 170.443 326.036 170.394C325.988 170.344 325.951 170.285 325.93 170.22C325.908 170.155 325.901 170.085 325.909 170.017C325.977 170.011 326.046 170.021 326.11 170.045C326.174 170.069 326.232 170.107 326.28 170.156C326.327 170.205 326.364 170.264 326.386 170.329C326.408 170.393 326.416 170.462 326.409 170.53Z" fill="#F3B8A1"/>
<path d="M335.923 268.145C336.265 268.138 336.423 268.319 336.423 268.645C336.355 268.653 336.287 268.645 336.223 268.622C336.159 268.6 336.101 268.563 336.053 268.515C336.005 268.467 335.968 268.409 335.946 268.345C335.923 268.281 335.915 268.213 335.923 268.145Z" fill="#EDAB93"/>
<path d="M336.421 268.651C336.489 268.643 336.558 268.65 336.623 268.672C336.688 268.694 336.747 268.731 336.796 268.779C336.845 268.827 336.883 268.885 336.907 268.949C336.93 269.014 336.939 269.083 336.933 269.151L336.919 269.166C336.85 269.173 336.781 269.164 336.717 269.14C336.652 269.116 336.594 269.078 336.546 269.029C336.498 268.979 336.462 268.919 336.44 268.854C336.419 268.789 336.412 268.719 336.421 268.651Z" fill="#EDAB93"/>
<path d="M336.933 269.152C337 269.145 337.067 269.154 337.13 269.176C337.194 269.198 337.251 269.235 337.299 269.282C337.347 269.329 337.383 269.386 337.407 269.449C337.43 269.512 337.439 269.579 337.433 269.646L337.415 269.664C337.348 269.671 337.28 269.664 337.216 269.641C337.152 269.618 337.094 269.582 337.047 269.534C336.999 269.485 336.963 269.427 336.942 269.363C336.92 269.299 336.913 269.231 336.921 269.164L336.933 269.152Z" fill="#F7D4C5"/>
<path d="M337.429 269.642C337.645 269.679 337.88 269.698 337.788 270.026C337.461 270.109 337.442 269.878 337.411 269.66L337.429 269.642Z" fill="#F7D4C5"/>
<path d="M338.421 271.153C338.203 271.124 337.967 271.111 338.054 270.779C338.385 270.7 338.394 270.936 338.422 271.152L338.421 271.153Z" fill="#F7D4C5"/>
<path d="M325.912 170.023C325.843 170.031 325.773 170.023 325.707 170C325.642 169.978 325.582 169.94 325.533 169.89C325.485 169.841 325.448 169.781 325.426 169.715C325.403 169.649 325.397 169.579 325.406 169.51C325.474 169.506 325.542 169.516 325.606 169.54C325.67 169.565 325.728 169.602 325.776 169.651C325.824 169.7 325.861 169.758 325.884 169.822C325.908 169.886 325.917 169.955 325.912 170.023Z" fill="#F3B8A1"/>
<path d="M351.859 279.376L351.771 279.544L351.516 279.368L351.691 279.2L351.859 279.376Z" fill="#DFE8E4"/>
<path d="M309.383 280.165C309.155 280.148 308.949 280.109 309.003 279.798C309.345 279.709 309.354 279.947 309.386 280.162L309.383 280.165Z" fill="#F3B8A1"/>
<path d="M309.887 281.168L310.387 281.16C310.411 281.321 310.416 281.485 310.404 281.647L310.374 281.678C310.307 281.68 310.241 281.668 310.18 281.643C310.118 281.618 310.063 281.58 310.017 281.532C309.971 281.484 309.935 281.426 309.913 281.364C309.891 281.301 309.882 281.234 309.887 281.168Z" fill="#EDAB93"/>
<path d="M310.4 281.65C310.468 281.642 310.537 281.649 310.601 281.671C310.666 281.694 310.725 281.73 310.773 281.778C310.822 281.826 310.859 281.885 310.882 281.949C310.905 282.013 310.913 282.082 310.906 282.15L310.866 282.19C310.799 282.192 310.733 282.18 310.671 282.155C310.609 282.131 310.553 282.093 310.506 282.046C310.459 281.999 310.423 281.942 310.399 281.88C310.374 281.818 310.363 281.752 310.366 281.685L310.4 281.65Z" fill="#EDAB93"/>
<path d="M311.369 282.688C311.303 282.69 311.237 282.678 311.176 282.653C311.114 282.629 311.058 282.592 311.012 282.545C310.965 282.498 310.928 282.443 310.904 282.381C310.879 282.32 310.867 282.254 310.869 282.188L310.909 282.148C310.976 282.141 311.044 282.149 311.108 282.172C311.172 282.195 311.23 282.231 311.278 282.279C311.326 282.327 311.362 282.385 311.385 282.449C311.408 282.513 311.416 282.581 311.409 282.648L311.369 282.688Z" fill="#EDAB93"/>
<path d="M265.348 164.009C265.415 164.006 265.482 164.018 265.544 164.043C265.606 164.069 265.662 164.107 265.708 164.157C265.754 164.206 265.788 164.265 265.809 164.329C265.829 164.393 265.836 164.46 265.828 164.527C265.762 164.527 265.696 164.513 265.635 164.486C265.575 164.46 265.52 164.421 265.475 164.372C265.43 164.324 265.395 164.267 265.374 164.204C265.352 164.141 265.343 164.075 265.348 164.009Z" fill="#AB2C05"/>
<path d="M312.87 283.695C312.803 283.7 312.736 283.691 312.673 283.669C312.61 283.646 312.552 283.611 312.504 283.564C312.456 283.518 312.418 283.462 312.393 283.4C312.368 283.338 312.356 283.271 312.359 283.204L312.418 283.145C312.484 283.145 312.549 283.158 312.61 283.184C312.671 283.209 312.726 283.247 312.772 283.295C312.818 283.342 312.854 283.398 312.878 283.46C312.902 283.521 312.913 283.587 312.911 283.653L312.87 283.695Z" fill="#EDAB93"/>
<path d="M312.909 283.649C313.13 283.69 313.365 283.718 313.267 284.049C312.938 284.149 312.901 283.921 312.867 283.692L312.909 283.649Z" fill="#EDAB93"/>
<path d="M314.892 285.171C315.108 285.2 315.344 285.209 315.261 285.54C314.931 285.624 314.916 285.392 314.89 285.173L314.892 285.171Z" fill="#F3B8A1"/>
<path d="M338.422 271.153C338.639 271.181 338.872 271.192 338.792 271.521C338.461 271.605 338.451 271.37 338.421 271.154L338.422 271.153Z" fill="#F7D4C5"/>
<path d="M275.859 109.455C274.999 111.906 274.559 112.337 272.337 112.933C270.621 110.594 268.096 108.978 266.567 106.462C266.203 106.005 265.796 105.585 265.351 105.207C261.736 101.46 258.482 97.3813 255.633 93.0241C255.438 92.7507 255.213 92.4992 254.964 92.2741C254.371 90.4021 255.35 88.8741 255.312 87.2431C255.274 85.6121 255.962 84.0801 255.882 82.4011C255.811 80.9171 256.536 79.4611 256.891 78.0011C257.259 76.4851 257.758 74.9481 258.222 73.4451C258.679 71.9661 258.968 70.4191 259.502 68.9351C259.768 70.0701 260.089 71.1351 259.397 72.2271C259.132 72.6471 259.326 73.3601 259.326 73.9401C259.326 76.9401 259.357 79.9451 259.313 82.9471C259.419 85.6741 259.997 88.3622 261.021 90.8921C262.203 94.1252 263.925 97.1345 266.113 99.7921C268.1 102.333 269.978 105.116 272.92 106.834C274.041 107.489 274.654 108.834 275.858 109.462" fill="#2C272D"/>
<path d="M263.805 47.356C264.847 46.7015 266.024 46.2912 267.247 46.156C267.31 47.3585 267.635 48.5327 268.198 49.597C269.521 52.3993 271.094 55.0768 272.898 57.597C274.508 59.8842 276.398 61.961 278.524 63.779C279.823 64.8371 281.346 65.5857 282.977 65.968L283.856 64.468C284.556 61.482 284.332 58.445 284.347 55.421C284.355 53.844 284.325 52.266 284.364 50.69C284.375 50.255 284.064 49.671 284.755 49.39C285.336 49.557 285.869 49.8597 286.31 50.273C286.173 51.3394 286.383 52.4216 286.91 53.359C287.292 54.3195 287.448 55.3556 287.363 56.386L286.363 58.269C286.43 58.436 286.505 58.669 286.609 58.878C287.144 59.983 287.677 60.978 286.925 62.323C286.341 63.363 287.115 64.536 287.525 65.587C286.77 66.887 286.096 68.119 286.367 69.48C285.992 70.107 285.607 70.517 284.922 70.442C284.777 70.4101 284.644 70.3402 284.535 70.2394C284.427 70.1387 284.347 70.0108 284.305 69.869C284.005 69.221 283.872 69.256 283.331 69.959L282.337 69.859C280.649 68.775 278.552 68.314 277.311 66.552C275.411 66.177 274.268 64.464 272.38 63.897V60.715C271.439 60.05 270.18 60.846 269.297 59.282C269.152 58.967 269.469 58.118 269.314 57.269C268.778 56.55 267.703 56.605 267.125 55.89C266.545 55.371 267.112 54.574 266.554 53.863L264.865 52.724V49.766C264.381 49.266 263.574 49.226 263.388 48.41L263.805 47.356Z" fill="#F8F8F8"/>
<path d="M279.836 108.475L276.862 108.43C276.733 106.822 277.862 105.577 278.095 104.036C278.533 101.181 279.272 98.372 279.868 95.536C280.348 93.254 280.779 90.962 281.275 88.684C281.499 87.657 281.059 86.517 281.814 85.584C281.741 82.964 282.641 80.471 282.814 77.884C283.543 76.991 283.155 75.877 283.409 74.89C283.718 74.942 284.088 74.804 284.366 75.283C284.364 76.8595 284.506 78.4328 284.793 79.983C285.059 82.111 284.755 84.304 284.893 86.458C285.031 88.612 284.055 90.633 284.357 92.779C284.348 92.9373 284.311 93.0927 284.248 93.238C283.448 96.381 282.773 99.56 281.818 102.653C281.218 104.603 280.951 106.687 279.846 108.472" fill="#DFE8E4"/>
<path d="M276.957 118.016C278.339 118.571 279.957 118.302 281.277 119.191C281.278 119.373 281.241 119.552 281.166 119.718C281.092 119.884 280.984 120.032 280.848 120.152C280.712 120.272 280.551 120.362 280.378 120.415C280.204 120.468 280.021 120.484 279.841 120.46C279.029 120.34 278.541 121.005 277.823 121.271V123.227L276.781 124.352C275.468 124.699 274.14 123.909 273.343 125.307V129.479C272.839 130.398 272.131 131.189 271.273 131.79C271.023 131.939 270.809 132.14 270.645 132.38C270.48 132.62 270.37 132.892 270.322 133.179C270.15 133.788 269.918 134.379 269.629 134.942C267.664 134.554 267.176 133.927 266.857 131.498C267.117 131.312 267.336 131.075 267.502 130.802C267.667 130.528 267.775 130.224 267.818 129.907C268.146 128.734 268.686 127.631 269.412 126.653C269.512 126.523 269.683 126.411 269.719 126.265C270.558 122.932 273.367 121.365 275.829 119.516C276.113 119.362 276.361 119.148 276.556 118.889C276.75 118.63 276.887 118.332 276.956 118.016" fill="#F8F8F8"/>
<path d="M283.404 74.896C283.151 75.883 283.539 76.996 282.809 77.89C282.221 77.79 282.351 77.345 282.351 76.956C282.351 74.5913 282.347 72.2246 282.338 69.856L283.333 69.956C283.502 70.436 283.963 70.812 283.845 71.394C284.03 72.602 283.201 73.682 283.404 74.894" fill="#2C272D"/>
<path d="M304.866 183.045C305.117 183.085 305.349 183.203 305.53 183.38C305.712 183.558 305.834 183.787 305.88 184.037L304.957 183.975L304.866 183.045Z" fill="#EDAB93"/>
<path d="M305.884 184.515C306.812 184.77 306.241 185.525 306.392 186.039C305.406 185.803 306.065 185.019 305.884 184.515Z" fill="#FEFEFE"/>
<path d="M286.315 50.273C285.874 49.8598 285.342 49.5572 284.761 49.39C284.061 49.667 284.38 50.25 284.369 50.69C284.33 52.267 284.36 53.844 284.352 55.421C284.336 58.445 284.564 61.482 283.861 64.467L282.982 65.967C281.351 65.5847 279.829 64.8361 278.53 63.778C276.404 61.96 274.514 59.8832 272.904 57.596C271.1 55.0757 269.527 52.3983 268.204 49.596C267.64 48.5318 267.316 47.3575 267.253 46.155C267.304 45.785 267.342 45.408 267.764 45.246C268.454 46.239 269.223 47.187 269.821 48.233C271.907 51.879 274.03 55.491 277.121 58.41C277.38 58.6203 277.606 58.8676 277.793 59.144C278.724 60.806 280.331 61.398 281.912 61.976C282.523 61.543 283.038 60.9876 283.423 60.345C282.967 56.269 284.182 51.935 282.413 48.088C281.404 47.588 280.475 48.268 279.713 47.349C280.913 46.133 282.585 46.449 283.893 45.849C285.577 47.1612 287.089 48.6809 288.393 50.372L286.31 50.272" fill="#DFE8E4"/>
<path d="M283.404 74.9C283.204 73.689 284.03 72.609 283.845 71.4H284.358C285.058 71.68 284.907 72.1 284.543 72.576C284.488 73.06 285.125 72.716 285.121 72.809C287.086 80.409 286.179 87.881 286.303 95.301C285.565 98.315 285.923 101.391 285.794 104.439L285.747 105.404C285.208 105.765 285.213 106.128 285.747 106.491C285.817 106.634 285.835 106.797 285.797 106.952C285.797 107.592 285.799 108.232 285.804 108.872C283.988 108.885 282.171 108.904 280.355 108.905C280.232 108.908 280.112 108.867 280.017 108.789C279.922 108.71 279.858 108.6 279.838 108.479C280.938 106.694 281.208 104.61 281.81 102.659C282.765 99.566 283.445 96.387 284.241 93.244C284.304 93.099 284.341 92.9439 284.35 92.786C284.05 90.64 285.018 88.613 284.886 86.465C284.754 84.317 285.057 82.119 284.786 79.99C284.499 78.4398 284.356 76.8665 284.359 75.29C284.081 74.811 283.712 74.949 283.402 74.897" fill="#F8F8F8"/>
<path d="M284.357 71.397H283.844C283.963 70.815 283.501 70.439 283.332 69.959C283.873 69.259 284.006 69.222 284.306 69.869C284.348 70.0108 284.428 70.1388 284.536 70.2395C284.645 70.3403 284.778 70.4102 284.923 70.442L284.356 71.396" fill="#DFE8E4"/>
<path d="M285.746 105.4L285.793 104.436C286.113 104.47 286.374 104.567 286.353 104.962C286.332 105.357 286.074 105.428 285.746 105.4Z" fill="#534E54"/>
<path d="M288.352 50.333C288.422 50.3334 288.492 50.3477 288.556 50.3751C288.621 50.4026 288.68 50.4426 288.729 50.4928C288.778 50.543 288.816 50.6025 288.842 50.6677C288.868 50.733 288.881 50.8028 288.88 50.873C288.554 50.84 288.328 50.709 288.352 50.333Z" fill="#DFE8E4"/>
<path d="M285.794 106.948C285.832 106.794 285.814 106.631 285.744 106.488C285.853 106.453 285.971 106.458 286.076 106.503C286.181 106.548 286.267 106.628 286.318 106.731L285.794 106.948Z" fill="#534E54"/>
<path d="M292.861 35.356C292.852 35.5172 292.852 35.6787 292.861 35.84C291.298 38.0316 289.23 39.8151 286.833 41.04C285.597 41.6486 284.226 41.9313 282.85 41.861L282.837 41.854C280.988 40.7182 279.325 39.305 277.905 37.664C276.171 35.84 274.084 34.313 273.024 31.911C272.986 31.824 272.714 31.841 272.551 31.811C271.861 30.903 270.458 31.506 269.789 30.504C268.629 28.6195 268.124 26.405 268.351 24.204C268.783 23.4861 269.379 22.8811 270.09 22.439C270.89 22.147 271.305 22.667 271.825 22.839V25.786L270.853 27.856C270.666 27.895 270.418 27.872 270.499 28.194C270.813 28.246 270.825 28.042 270.82 27.824C271.751 28.182 272.42 27.282 273.28 27.309C273.746 27.423 274.262 27.196 274.79 27.578C274.819 28.061 274.852 28.612 274.882 29.13L276.964 31.23C281.223 32.317 280.308 31.895 282.33 30.547V28.656C281.609 27.6017 280.577 26.7978 279.379 26.356C278.422 26.356 277.596 26.376 276.772 26.344C276.521 26.334 276.372 26.106 276.347 25.835C277.773 24.6397 279.332 23.612 280.993 22.772C281.401 23.487 282.151 23.334 282.87 23.32C283 24.11 282.517 24.955 283.104 25.765C285.204 26.16 284.431 24.122 285.258 23.558C284.531 22.44 283.617 22.982 282.858 22.843C282.903 22.414 282.705 21.858 283.458 21.828C283.708 21.818 283.825 21.585 283.858 21.336C284.708 21.096 285.486 22.436 286.458 21.483C286.082 20.389 284.697 20.743 284.289 19.835C286.773 18.528 289.233 17.188 291.023 14.93C291.155 14.7363 291.271 14.5326 291.372 14.321C292.511 13.488 292.287 11.964 293.137 10.882C293.579 11.359 293.381 11.922 293.389 12.423C293.408 13.1738 293.388 13.9251 293.33 14.674C292.94 17.5504 293.676 20.4663 295.385 22.813C295.317 23.501 294.785 23.29 294.385 23.325C293.904 23.465 293.285 22.925 292.906 23.607C293.314 23.9276 293.782 24.1621 294.283 24.2961C294.784 24.4302 295.308 24.4611 295.821 24.387C295.761 25.073 296.096 25.487 296.863 25.787V24.828C297.632 25.184 297.514 26.036 298.053 26.608L295.338 31.844C294.145 31.6384 292.919 31.915 291.93 32.613C291.889 33.258 291.163 33.689 291.371 34.406C291.465 34.7182 291.668 34.9862 291.944 35.161C292.219 35.3358 292.548 35.4057 292.871 35.358M293.837 26.812C294.479 26.76 295.168 27.033 295.818 26.666C295.708 26.3792 295.5 26.1406 295.231 25.9925C294.962 25.8445 294.649 25.7964 294.348 25.857L293.24 25.318L292.398 26.052C292.498 26.762 292.069 27.564 292.809 28.544L293.837 26.81M289.377 33.857C289.85 33.805 290.031 33.401 290.29 33.118C290.766 31.618 289.918 30.454 289.409 29.424C289.429 28.0108 289.366 26.5977 289.22 25.192C288.826 25.7495 288.571 26.3936 288.478 27.0701C288.385 27.7465 288.455 28.4355 288.684 29.079C289.33 30.5768 289.563 32.2205 289.359 33.839C288.919 33.969 288.323 33.539 288.02 34.227C288.553 34.363 289.111 34.671 289.376 33.857M282.827 35.463C282.913 35.915 282.68 36.426 283.081 36.819C283.596 37.2861 284.209 37.631 284.876 37.828C285.155 37.956 285.676 38.049 285.844 37.49C286.725 37.351 287.683 37.331 287.952 35.943C286.163 35.0096 284.283 34.2617 282.342 33.711C282.465 34.502 282.115 35.087 282.828 35.463" fill="#F7D4C5"/>
<path d="M276.345 25.843C276.367 26.114 276.519 26.343 276.77 26.352C277.595 26.384 278.421 26.364 279.377 26.364C280.575 26.8059 281.607 27.6097 282.328 28.664V30.549C280.306 31.897 281.222 32.319 276.962 31.232L274.88 29.132C274.849 28.613 274.816 28.063 274.788 27.58C274.259 27.198 273.744 27.425 273.278 27.311C273.822 26.5229 274.517 25.8503 275.323 25.332L276.345 25.843Z" fill="#F7D4C5"/>
<path d="M276.346 25.8429L275.325 25.3319C276.067 23.5908 277.396 22.1655 279.082 21.3049C279.203 21.2018 279.308 21.0815 279.394 20.9479C280.64 20.9169 281.886 20.8899 283.132 20.8549C283.498 20.8439 283.774 20.9409 283.851 21.3429C283.822 21.5919 283.705 21.8259 283.451 21.8349C282.695 21.8659 282.893 22.4219 282.851 22.8499C282.859 23.0093 282.864 23.1686 282.867 23.3279C282.149 23.3419 281.398 23.4959 280.99 22.7799C279.329 23.62 277.77 24.6477 276.344 25.8429" fill="#F7D4C5"/>
<path d="M283.851 21.343C283.773 20.943 283.498 20.843 283.132 20.855C281.886 20.891 280.64 20.918 279.394 20.949C279.448 20.234 278.662 20.471 278.418 20.09C280.328 18.918 282.302 19.327 284.281 19.842C284.689 20.749 286.073 20.396 286.45 21.49C285.479 22.447 284.701 21.103 283.85 21.343" fill="black"/>
<path d="M277.163 15.329C277.83 15.387 277.83 15.704 277.809 16.037C277.769 16.1043 277.715 16.1621 277.65 16.2064C277.586 16.2507 277.512 16.2804 277.435 16.2934C277.358 16.3065 277.279 16.3025 277.203 16.2819C277.128 16.2613 277.058 16.2245 276.998 16.174C276.773 15.852 276.865 15.586 277.163 15.328" fill="black"/>
<path d="M279.347 13.826C279.317 14.041 279.307 14.276 278.978 14.195C278.895 13.866 279.13 13.855 279.346 13.825L279.347 13.826Z" fill="black"/>
<path d="M279.347 13.825C279.377 13.61 279.387 13.375 279.716 13.457C279.798 13.786 279.564 13.797 279.348 13.826L279.347 13.825Z" fill="black"/>
<path d="M280.264 12.538L280.178 12.704L279.929 12.529L280.101 12.364L280.264 12.538Z" fill="black"/>
<path d="M273.343 129.477V125.304C274.143 123.904 275.468 124.697 276.781 124.35L277.822 123.225V121.269C278.538 121.003 279.029 120.339 279.841 120.458L280.353 121.427C279.684 122.854 278.911 124.244 278.37 125.718C277.604 127.917 277.233 130.235 277.275 132.563C276.527 132.57 276.169 131.969 275.682 131.557C274.995 130.765 274.208 130.066 273.342 129.476" fill="#EDAB93"/>
<path d="M288.851 126.464C288.854 126.543 288.874 126.621 288.909 126.691C288.945 126.762 288.995 126.825 289.056 126.874C289.118 126.924 289.189 126.961 289.265 126.981C289.342 127.001 289.422 127.004 289.5 126.991C290.959 126.982 292.418 126.991 293.877 126.991C293.858 127.236 293.838 127.481 293.819 127.72C291.306 128.905 289.057 128.758 285.913 127.204C286.761 126.589 287.812 126.323 288.851 126.459" fill="#D2D2D2"/>
<path d="M296.426 131.598C295.826 130.729 295.826 130.729 296.721 130.628C296.946 130.951 296.836 131.215 296.426 131.598Z" fill="#D2D2D2"/>
<path d="M331.91 68.888C332.227 68.9382 332.551 68.8747 332.826 68.7087C333.1 68.5427 333.307 68.2849 333.41 67.981C333.733 67.281 334.081 66.581 334.418 65.889C335.445 65.729 335.79 66.61 336.388 67.175C336.488 68.163 336.166 69.244 337.195 70.124C335.35 70.2362 333.513 69.8066 331.909 68.888" fill="#EDAB93"/>
<path d="M335.907 61.417C336.278 61.33 336.57 61.001 336.35 60.741C335.745 60.029 335.981 59.198 335.857 58.421C337.839 59.304 338.107 61.371 338.838 63.036C339.223 63.8272 339.401 64.7032 339.356 65.582C337.533 64.5 336.256 63.367 335.907 61.417Z" fill="#EDAB93"/>
<path d="M283.894 45.8519C282.586 46.4519 280.919 46.1379 279.714 47.3519C280.474 48.2709 281.403 47.5919 282.414 48.0909C284.183 51.9379 282.968 56.2719 283.424 60.3469C283.039 60.9895 282.524 61.545 281.913 61.9779C280.332 61.4009 278.725 60.8079 277.794 59.1459C277.607 58.8696 277.381 58.6223 277.122 58.4119C274.027 55.4919 271.904 51.8809 269.822 48.2349C269.222 47.1889 268.455 46.2409 267.765 45.2479C268.165 43.4479 269.011 41.7859 269.078 40.2259C269.843 39.6439 270.367 39.9909 270.826 39.8099C271.274 40.9969 272.369 41.3789 273.326 41.8559C274.171 41.7555 275.025 41.7676 275.867 41.8919C278.146 42.3825 280.458 42.711 282.784 42.8749C282.784 43.5459 283.339 43.7879 283.772 44.1379C283.815 44.7039 283.858 45.2779 283.902 45.8519" fill="#FEFEFE"/>
<path d="M282.777 42.876C280.451 42.7118 278.14 42.3833 275.86 41.893C275.019 41.7687 274.164 41.7566 273.32 41.857C272.363 41.381 271.267 40.998 270.82 39.811C271.185 38.499 271.552 37.1863 271.92 35.873C272.122 35.8356 272.331 35.853 272.524 35.9233C272.718 35.9936 272.889 36.1143 273.02 36.273C273.683 37.0177 274.39 37.7213 275.139 38.38C277.382 40.241 279.745 41.88 282.844 41.857L282.857 41.864L282.777 42.876Z" fill="#FBDBCC"/>
<path d="M282.836 41.853C279.736 41.873 277.374 40.237 275.131 38.376C274.382 37.7174 273.675 37.0137 273.012 36.269C272.881 36.1104 272.71 35.9898 272.516 35.9195C272.323 35.8492 272.114 35.8317 271.912 35.869C272.124 34.5136 272.336 33.1583 272.547 31.803C272.71 31.835 272.982 31.818 273.02 31.903C274.079 34.303 276.167 35.832 277.9 37.657C279.32 39.2978 280.984 40.7109 282.833 41.847" fill="#F7D4C5"/>
<path d="M292.861 35.358C292.538 35.406 292.209 35.3364 291.934 35.1617C291.659 34.9871 291.455 34.7192 291.361 34.407C291.153 33.69 291.879 33.259 291.92 32.614C292.909 31.916 294.135 31.6394 295.328 31.845C294.945 32.4281 294.769 33.1229 294.828 33.818L294.595 33.812L294.365 33.85C293.735 33.964 293.873 34.45 293.87 34.87L292.858 35.359" fill="#F7D4C5"/>
<path d="M295.815 24.394C295.301 24.4679 294.778 24.4367 294.277 24.3025C293.776 24.1682 293.308 23.9337 292.9 23.613C293.283 22.933 293.9 23.471 294.379 23.332C294.61 24.2 295.44 23.616 295.889 23.955C295.874 24.1032 295.849 24.2502 295.815 24.395" fill="#2C272D"/>
<path d="M295.889 23.9549C295.44 23.6159 294.61 24.1989 294.379 23.3319C294.779 23.2969 295.31 23.5079 295.379 22.8199C296.044 22.9759 295.897 23.4969 295.89 23.9549" fill="#EDAB93"/>
<path d="M296.853 24.83V25.789C296.086 25.489 295.753 25.079 295.81 24.389C295.968 24.3499 296.129 24.3265 296.291 24.319C296.391 24.605 296.527 24.856 296.891 24.857L296.853 24.83Z" fill="#2C272D"/>
<path d="M296.888 24.858C296.528 24.858 296.394 24.606 296.288 24.32C296.365 24.3056 296.443 24.3091 296.518 24.3301C296.593 24.3511 296.663 24.3891 296.721 24.4411C296.779 24.4931 296.824 24.5577 296.853 24.63C296.882 24.7023 296.894 24.7803 296.888 24.858Z" fill="#EDAB93"/>
<path d="M282.819 35.466C282.107 35.09 282.457 34.505 282.333 33.714C284.274 34.2647 286.154 35.0126 287.943 35.946C287.674 37.334 286.716 37.354 285.835 37.493C285.609 36.8807 285.197 36.3552 284.655 35.9912C284.114 35.6273 283.471 35.4435 282.819 35.466Z" fill="black"/>
<path d="M289.351 33.841C289.556 32.2225 289.323 30.5787 288.676 29.081C288.448 28.4375 288.377 27.7486 288.47 27.0722C288.564 26.3958 288.818 25.7517 289.212 25.194C289.358 26.5997 289.421 28.0128 289.401 29.426C289.909 30.455 290.757 31.621 290.282 33.12C290.024 33.403 289.841 33.807 289.369 33.859L289.351 33.841Z" fill="#EDAB93"/>
<path d="M282.869 23.3279C282.869 23.1679 282.864 23.0086 282.853 22.8499C283.615 22.9899 284.53 22.4499 285.253 23.5649C284.426 24.1289 285.199 26.1649 283.099 25.7719C282.512 24.9619 282.999 24.1169 282.865 23.3269" fill="black"/>
<path d="M282.819 35.466C283.471 35.4434 284.114 35.6273 284.655 35.9912C285.197 36.3552 285.61 36.8807 285.835 37.493C285.672 38.053 285.147 37.959 284.867 37.831C284.199 37.6342 283.584 37.2893 283.067 36.822C282.667 36.429 282.9 35.922 282.814 35.465" fill="#EDAB93"/>
<path d="M293.827 26.812L292.799 28.5459C292.059 27.5659 292.487 26.7649 292.388 26.0539L293.231 25.3199L294.339 25.8579L293.827 26.812Z" fill="black"/>
<path d="M293.827 26.813L294.339 25.8591C294.64 25.7988 294.952 25.8469 295.221 25.995C295.49 26.1431 295.698 26.3815 295.808 26.6681C295.158 27.0341 294.469 26.761 293.827 26.813Z" fill="#EDAB93"/>
<path d="M289.368 33.86C289.104 34.674 288.545 34.366 288.012 34.23C288.312 33.54 288.912 33.972 289.351 33.842L289.368 33.86Z" fill="#EDAB93"/>
<path d="M270.819 27.825C270.824 28.043 270.811 28.247 270.498 28.195C270.416 27.873 270.664 27.895 270.851 27.857L270.819 27.825Z" fill="#73150F"/>
<path d="M327.407 58.421C328.698 57.073 329.693 57.451 333.915 58.171C333.202 58.9421 332.318 59.5361 331.335 59.9055C330.352 60.275 329.296 60.4096 328.251 60.2989C328.251 60.2989 326.117 59.769 327.407 58.421Z" fill="#F3B8A1"/>
<path d="M319.8 256.562C319.8 256.562 315.287 265.151 318.053 279.127L321.62 275.488C321.62 275.488 331.665 291.574 354.666 285.242C354.666 285.242 359.252 280.442 350.007 276.942C350.007 276.942 335.668 273.742 329.844 255.542L319.8 256.562Z" fill="black"/>
<path d="M303.8 259.562C303.8 259.562 299.287 268.151 302.053 282.127L305.62 278.488C305.62 278.488 315.665 294.574 338.666 288.242C338.666 288.242 343.252 283.442 334.007 279.942C334.007 279.942 319.668 276.742 313.844 258.542L303.8 259.562Z" fill="black"/>
</svg>
