<svg width="24" height="16" viewBox="0 0 24 16" fill="none" xmlns="http://www.w3.org/2000/svg">
<path d="M18 1.14275C18 0.83967 17.8736 0.549007 17.6486 0.3347C17.4236 0.120394 17.1184 0 16.8002 0H1.19984C0.881621 0 0.576437 0.120394 0.351424 0.3347C0.126411 0.549007 0 0.83967 0 1.14275C0 1.44582 0.126411 1.73648 0.351424 1.95079C0.576437 2.1651 0.881621 2.28549 1.19984 2.28549H16.8002C17.1184 2.28549 17.4236 2.1651 17.6486 1.95079C17.8736 1.73648 18 1.44582 18 1.14275ZM1.19984 6.85725H22.8002C23.1184 6.85725 23.4236 6.97765 23.6486 7.19195C23.8736 7.40626 24 7.69692 24 8C24 8.30307 23.8736 8.59374 23.6486 8.80804C23.4236 9.02235 23.1184 9.14274 22.8002 9.14274H1.19984C0.881621 9.14274 0.576437 9.02235 0.351424 8.80804C0.126411 8.59374 0 8.30307 0 8C0 7.69692 0.126411 7.40626 0.351424 7.19195C0.576437 6.97765 0.881621 6.85725 1.19984 6.85725ZM1.19984 13.7145H12C12.3182 13.7145 12.6234 13.8349 12.8484 14.0492C13.0734 14.2635 13.1998 14.5542 13.1998 14.8572C13.1998 15.1603 13.0734 15.451 12.8484 15.6653C12.6234 15.8796 12.3182 16 12 16H1.19984C0.881621 16 0.576437 15.8796 0.351424 15.6653C0.126411 15.451 1.43032e-07 15.1603 1.43032e-07 14.8572C1.43032e-07 14.5542 0.126411 14.2635 0.351424 14.0492C0.576437 13.8349 0.881621 13.7145 1.19984 13.7145Z" fill="black"/>
</svg>
