<svg width="279" height="280" viewBox="0 0 279 280" fill="none" xmlns="http://www.w3.org/2000/svg">
<path d="M134.954 24.262C214.483 24.262 278.531 12.112 278.531 91.641C278.531 171.17 223.529 279.594 144 279.594C105.809 279.594 69.1819 264.423 42.1766 237.417C15.1714 210.412 0 173.785 0 135.594C0 56.065 55.425 24.262 134.954 24.262Z" fill="white"/>
<path d="M148.407 198.837C151.074 180.17 153.74 161.501 156.407 142.83C175.5 142.324 194.607 144.658 213.693 142.566C212.658 162.697 207.817 182.341 206.049 202.378C202.082 223.591 198.032 244.786 194.191 266.02C192.815 273.634 199.126 272.238 203.291 273.22C203.943 274.72 208.564 276.775 204.081 277.64C197.119 278.985 189.802 278.648 182.632 278.683C178.554 278.702 179.921 275.151 179.505 272.853C182.995 268.953 182.328 263.967 182.551 259.435C184.044 228.961 185.292 198.474 186.472 167.987C186.565 165.609 188.072 161.797 185.034 161.017C181.15 160.017 180.813 164.417 179.963 166.879C172.021 189.891 166.036 213.479 160.447 237.134C157.264 250.608 151.385 263.728 153.633 278.134C146.842 280.242 139.879 279.503 132.968 279.273C129.937 279.173 127.497 278.281 130.661 274.773C135.173 273.418 140.688 273.79 141.366 266.838C143.578 244.157 146.038 221.499 148.403 198.832" fill="black"/>
<path d="M213.691 142.565C194.605 144.659 175.499 142.325 156.405 142.829C153.552 131.014 156.685 119.693 159.186 108.301C160.614 101.801 161.801 95.248 163.093 88.718C163.16 88.0413 163.231 87.365 163.306 86.689L161.606 87.369C150.468 92.922 139.161 97.506 126.494 98.9C121.631 99.436 118.004 98.058 113.933 96.734C114.243 94.4113 114.552 92.0903 114.86 89.771C131.612 92.305 141.35 82.004 150.66 70.523C160.586 58.276 172.379 49.307 189.393 50.823C188.418 62.023 186.018 73.123 186.848 84.456C182.574 82.688 183.662 78.732 183.164 75.427C182.077 68.185 182.147 60.704 178.684 52.027C174.396 61.259 178.173 68.772 178.511 76.127C178.659 79.327 181.111 82.558 182.97 85.487C185.125 88.887 185.989 86.366 186.736 84.303C190.249 82.414 189.536 78.231 191.461 75.552C194.515 71.311 189.353 66.292 192.679 62.492C196.479 58.151 194.279 54.672 192.015 50.957C201.989 52.177 210.584 55.95 216.501 64.463C224.45 75.7602 230.049 88.5384 232.968 102.04C235.222 112.608 232.519 118.764 222.688 122.502C216.544 124.839 215.617 128.038 216.398 133.593C216.842 136.75 218.61 140.816 213.693 142.567M217.454 118.05C223.767 116.85 225.013 111.816 224.937 106.784C224.837 100.138 221.8 94.852 215.397 91.93V116.984C213.823 116.274 212.29 115.445 210.667 114.884C207.856 113.908 205.32 114.133 204.678 117.64C204.112 120.733 205.637 122.6 208.786 123.104C213.067 123.786 217.112 124.104 217.454 118.049" fill="#3422F2"/>
<path d="M170.57 24.213C164.639 18.85 169.29 13.867 171.79 9.557C175.063 3.908 189.73 -0.949003 194.178 1.178C203.468 5.616 209.656 16.178 208.244 25.195C207.507 29.895 207.506 29.895 212.093 32.608C208.461 34.573 203.827 33.581 200.778 36.759C202.956 23.713 192.047 22.659 184.236 19.593C179.292 17.654 174.266 20.085 170.566 24.214" fill="black"/>
<path d="M170.57 24.212C174.27 20.083 179.296 17.652 184.24 19.591C192.051 22.66 202.96 23.712 200.782 36.76L200.925 36.714C199.686 36.866 199.251 37.703 199.136 38.814C195.505 45.774 189.495 49.094 182.165 46.955C175.026 44.868 172.326 38.708 172.604 31.315C172.704 28.788 173.161 26.028 170.57 24.215" fill="white"/>
<path d="M186.843 84.455C186.013 73.117 188.413 62.024 189.388 50.822C190.267 50.864 191.143 50.9073 192.014 50.952C194.282 54.669 196.475 58.146 192.678 62.489C189.352 66.289 194.514 71.308 191.457 75.556C189.527 78.235 190.244 82.415 186.732 84.305L186.843 84.455Z" fill="#2E2E2E"/>
<path d="M114.86 89.77L113.935 96.733C107.588 97.925 102.223 94.541 96.4699 92.966C96.7379 91.99 95.3999 89.885 96.4699 88.666C96.7699 88.422 96.3699 84.248 105.332 85.483C108.894 85.772 111.887 87.751 114.86 89.773" fill="white"/>
<path d="M223.821 32.556L223.278 32.232C223.473 32.1347 223.685 32.0757 223.902 32.058C224.094 32.079 224.27 32.258 224.452 32.368L223.821 32.557" fill="#67EF80"/>
<path d="M199.136 38.809C199.251 37.699 199.686 36.863 200.925 36.709C200.325 37.409 199.729 38.109 199.136 38.809Z" fill="#364874"/>
<path d="M186.732 84.306C185.985 86.37 185.121 88.888 182.966 85.492C181.107 82.563 178.655 79.325 178.507 76.13C178.169 68.77 174.393 61.257 178.68 52.03C182.143 60.704 182.074 68.185 183.156 75.425C183.656 78.725 182.566 82.686 186.84 84.454L186.729 84.306" fill="#2E2E2E"/>
<path d="M215.395 116.984L217.452 118.049C217.112 124.105 213.067 123.786 208.784 123.102C205.635 122.602 204.112 120.732 204.676 117.64C205.319 114.131 207.854 113.907 210.665 114.884C212.29 115.448 213.822 116.276 215.395 116.984" fill="white"/>
<path d="M161.603 87.37L163.303 86.691C163.231 87.3663 163.16 88.0427 163.09 88.72C162.596 88.2707 162.1 87.8207 161.601 87.37" fill="#F0F4FB"/>
<path d="M83 178C107.301 178 127 158.301 127 134C127 109.699 107.301 90 83 90C58.6995 90 39 109.699 39 134C39 158.301 58.6995 178 83 178Z" fill="white"/>
<path d="M83 177.5C107.024 177.5 126.5 158.024 126.5 134C126.5 109.976 107.024 90.5 83 90.5C58.9756 90.5 39.5 109.976 39.5 134C39.5 158.024 58.9756 177.5 83 177.5Z" stroke="#3422F2"/>
<path d="M102.635 115.394L99.8348 117.26L95.1708 116.327L92.3708 115.394L88.6399 116.327L85.8398 115.394L87.7058 111.663H91.4369L95.0938 109.835C97.9153 111.229 100.468 113.111 102.635 115.394Z" fill="#3422F2"/>
<path d="M81.1808 111.663L80.2478 114.463L77.4478 115.396L74.6478 120.06L69.9878 122.854L63.4578 123.787V126.587L65.3238 128.454V132.185L62.5238 130.319L59.7238 128.453L58.1008 123.575C59.4838 120.278 61.5069 117.288 64.0532 114.779C66.5995 112.269 69.6183 110.289 72.9348 108.954L75.5878 110.73L81.1808 111.663Z" fill="#3422F2"/>
<path d="M83.0468 137.781L82.1138 142.445L78.3828 146.176V148.976L74.6518 151.776V156.44L71.8518 155.507L69.9878 150.845V141.517L65.3238 140.584L63.4578 136.845V134.045L65.3238 132.179L68.1238 129.379L69.9898 133.11H76.5198L79.3198 137.774L83.0468 137.781Z" fill="#3422F2"/>
<path d="M106.647 120.832C109.143 125.284 110.328 130.351 110.064 135.448C109.799 140.544 108.098 145.462 105.155 149.632L102.637 147.113V143.382L100.771 139.651L98.9049 135.92V132.189L96.1049 130.323L92.3739 131.256L85.8439 128.456L84.9109 121.926L87.7109 119.126H93.3109L95.1769 121.926L100.777 122.859L106.377 120.993L106.647 120.832Z" fill="#3422F2"/>
<path d="M88.6439 116.327L92.3749 115.394L95.1749 116.327L99.8389 117.26L102.639 115.394C104.2 117.03 105.547 118.857 106.647 120.833L106.367 120.992L100.767 122.858L95.1669 121.925L93.3009 119.125H87.7009L84.9009 121.925L85.8339 128.455L92.3639 131.255L96.0949 130.322L98.8949 132.188V135.919L100.761 139.65L102.627 143.381V147.112L105.155 149.633C101.315 155.087 95.5941 158.931 89.0927 160.424C82.5912 161.918 75.7671 160.956 69.9314 157.724C64.0957 154.493 59.6598 149.219 57.476 142.915C55.2921 136.612 55.5143 129.724 58.0999 123.575L59.7229 128.453L62.5229 130.319L65.3229 132.185L63.4589 134.05V136.85L65.3249 140.581L69.9889 141.514V150.842L71.8549 155.506L74.6549 156.439V151.773L78.3859 148.973V146.173L82.1169 142.442L83.0499 137.778H79.3159L76.5159 133.114H69.9859L68.1199 129.383L65.3199 132.183V128.453L63.4589 126.588V123.788L69.9889 122.855L74.6529 120.055L77.4529 115.391L80.2529 114.458L81.1859 111.658L75.5859 110.725L72.9359 108.958C76.4823 107.529 80.2913 106.869 84.1117 107.019C87.9321 107.17 91.6771 108.129 95.0999 109.833L91.4419 111.663H87.7109L85.8459 115.394L88.6439 116.327Z" fill="#F6F5FF"/>
<path d="M73 97C69.8184 97.0032 66.768 98.2685 64.5182 100.518C62.2685 102.768 61.0032 105.818 61 109C61 117.318 71.832 128.246 72.292 128.708C72.3849 128.801 72.4952 128.875 72.6167 128.925C72.7382 128.976 72.8685 129.002 73 129.002C73.1315 129.002 73.2618 128.976 73.3833 128.925C73.5048 128.875 73.6151 128.801 73.708 128.708C74.168 128.246 85 117.318 85 109C84.9968 105.818 83.7315 102.768 81.4818 100.518C79.232 98.2685 76.1816 97.0032 73 97V97Z" fill="black"/>
<path d="M73 115C76.3137 115 79 112.314 79 109C79 105.686 76.3137 103 73 103C69.6863 103 67 105.686 67 109C67 112.314 69.6863 115 73 115Z" fill="#FAFAFA"/>
</svg>
