<svg width="427" height="388" viewBox="0 0 427 388" fill="none" xmlns="http://www.w3.org/2000/svg">
<path d="M199.757 330.352C199.816 329.567 199.926 328.782 199.926 327.997C199.926 288.308 199.919 248.618 199.903 208.928C199.903 208.142 199.803 207.355 199.748 206.569C199.805 194.382 199.91 182.194 199.908 170.006C199.908 156.575 199.808 143.144 199.746 129.713C199.797 116.798 199.846 103.882 199.895 90.966C199.816 89.9913 199.906 89.0103 200.16 88.066C202.539 80.853 207.284 78.444 214.86 78.453C255.907 78.505 296.953 78.5164 337.999 78.487C348.158 78.487 353.128 83.512 353.184 93.695C353.223 100.712 353.33 107.728 353.407 114.745C353.333 115.982 353.196 117.218 353.195 118.455C353.184 137.81 353.184 157.165 353.195 176.521C353.207 187.496 353.274 198.47 353.316 209.443C352.025 210.67 350.464 211.577 348.758 212.092C348.692 211.625 348.625 211.159 348.558 210.692C348.569 201.607 348.58 192.522 348.591 183.437C348.582 178.681 348.572 173.925 348.562 169.168C348.562 152.384 348.56 135.6 348.554 118.816C348.554 115.892 348.556 112.968 348.561 110.045C348.598 103.845 348.739 97.636 348.639 91.434C348.663 90.295 348.453 89.1632 348.023 88.1082C347.593 87.0532 346.952 86.0974 346.139 85.2996C345.325 84.5019 344.357 83.879 343.294 83.4694C342.231 83.0599 341.095 82.8722 339.957 82.918C326.302 82.827 312.646 82.955 298.99 82.995L290.252 82.958C265.23 82.922 240.206 82.8887 215.183 82.858C207.59 82.851 204.471 85.975 204.469 93.558C204.462 125.705 204.462 157.853 204.469 190C204.469 191.015 204.562 192.029 204.611 193.044L204.566 201.821L204.601 218.221C204.605 223.392 204.608 228.563 204.612 233.735C204.603 253.708 204.593 273.68 204.584 293.653C204.584 296.582 204.584 299.51 204.584 302.439C204.547 325.512 204.466 348.585 204.504 371.657C204.512 376.663 207.732 380.141 212.759 380.182C228.365 380.309 243.974 380.151 259.581 380.104C262.073 380.392 264.591 380.382 267.081 380.075C281.459 380.152 295.837 380.251 310.215 380.29C314.283 380.301 318.352 380.133 322.421 380.048C323.921 382.198 327.086 382.206 328.347 384.66C327.332 384.706 326.318 384.79 325.303 384.79C288.516 384.797 251.729 384.797 214.942 384.79C205.082 384.79 199.942 379.617 199.91 369.722C199.865 356.602 199.811 343.482 199.75 330.362" fill="#2A2D33"/>
<path d="M328.357 384.649C327.097 382.194 323.93 382.186 322.432 380.036C319.928 377.003 317.793 373.682 316.073 370.145C314.451 367.029 315.564 362.397 312.109 360.666C308.997 359.107 305.157 358.989 301.633 358.266C300.091 357.948 298.524 357.753 296.992 357.4C295.366 357.025 293.661 356.784 292.398 355.508C292.321 354.931 292.269 354.342 291.629 354.065L291.741 354.165C291.625 353.602 291.655 352.965 290.969 352.7L291.032 352.759C289.857 344.378 291.147 342.888 299.779 342.659C299.893 342.659 300.006 342.648 300.119 342.647C315.181 342.574 330.244 342.347 345.304 342.476C357.413 342.576 369.543 342.186 381.628 343.33C388.746 344.004 396.105 344.545 401.756 349.4C409.088 355.7 417.495 358.934 426.884 360.147L426.994 360.97C410.037 361.001 393.079 361.087 376.123 361.003C373.638 360.991 372.649 361.657 372.104 364.153C370.917 370.292 367.885 375.922 363.414 380.292C361.977 381.736 360.265 382.876 358.379 383.645C356.492 384.414 354.471 384.797 352.434 384.769C344.409 384.703 336.383 384.689 328.358 384.654M353.165 361.064C349.43 361.064 345.685 361.228 341.965 361.007C339.433 360.856 339.425 361.881 340.065 363.728C341.117 367.084 342.884 370.171 345.244 372.778C350.126 377.898 356.565 377.818 361.259 372.59C363.527 369.911 365.246 366.812 366.316 363.469C367.047 361.419 366.373 360.954 364.37 361.026C360.64 361.159 356.901 361.064 353.17 361.064" fill="#121212"/>
<path d="M160.013 314.42C169.87 314.28 169.719 316.202 169.645 324.62C169.628 326.528 169.729 328.437 169.776 330.345C169.728 345.031 169.681 359.717 169.634 374.404C169.618 379.666 169.283 380.011 164.118 380.016L150.892 380.026C150.857 379.231 150.634 378.455 150.24 377.764C149.846 377.072 149.293 376.484 148.627 376.049C148.133 375.786 147.73 375.379 147.471 374.883C147.211 374.387 147.108 373.825 147.173 373.269C147.246 353.718 147.302 334.167 147.342 314.616L156.678 314.416L160.012 314.425" fill="black"/>
<path d="M87.3858 330.359C86.8758 321.388 85.4109 312.487 85.4319 303.477L96.3319 303.448C96.3446 312.415 96.3572 321.382 96.3699 330.348C96.3459 338.139 96.3809 345.93 96.2799 353.72C96.2039 359.694 96.6669 365.68 95.9619 371.643C94.5439 371.304 92.8089 372.5 91.6819 370.758C89.5819 366.578 90.1929 361.934 89.6499 357.527C88.5399 348.514 88.0999 339.418 87.3829 330.357" fill="#D2D2D2"/>
<path d="M150.617 381.845C151.749 383.258 153.335 382.68 154.737 382.718C160.715 382.879 166.676 383.427 172.583 384.36C164.269 388.416 68.4171 388.638 55.3101 384.574C66.9831 382.647 78.7781 382.347 90.5901 382.267C90.4831 383.067 89.3431 383.897 90.1071 384.546C90.8951 385.216 92.0191 384.717 92.8171 384.078C93.5781 383.469 94.2391 382.74 94.9451 382.063H101.091C101.156 382.833 101.219 383.604 101.317 384.79C103.745 379.095 103.802 379.036 108.024 383.049C110.183 385.101 112.74 385.022 115.279 384.704C117.685 384.404 115.609 383.516 115.341 382.883C116.249 381.648 117.585 382.083 118.76 382.076C126.381 382.018 134.003 382.01 141.624 381.986C144.955 385.786 147.49 385.75 150.617 381.846" fill="#DAEBEF"/>
<path d="M150.617 381.845C147.49 385.745 144.955 385.789 141.624 381.985C140.813 379.385 141.482 377.285 143.84 375.876C144.279 375.632 144.637 375.264 144.866 374.817C145.095 374.37 145.186 373.865 145.128 373.366C145.039 359.023 144.968 344.679 144.916 330.336C144.983 319.374 144.898 308.408 145.158 297.451C145.486 283.672 143.992 269.933 144.493 256.164C144.54 254.852 143.093 252.325 146.199 252.407C148.943 252.48 147.746 254.76 147.755 256.043C147.867 274.333 146.628 292.608 147.121 310.904C147.154 312.142 147.267 313.377 147.341 314.614C147.291 334.165 147.235 353.716 147.172 373.267C147.107 373.823 147.211 374.386 147.47 374.882C147.73 375.378 148.133 375.784 148.627 376.047C149.293 376.482 149.846 377.07 150.24 377.762C150.634 378.453 150.858 379.229 150.892 380.024C150.8 380.631 150.708 381.239 150.617 381.846" fill="#2A2D33"/>
<path d="M94.9451 382.067C94.2401 382.743 93.5781 383.473 92.8181 384.081C92.0181 384.72 90.8951 385.219 90.1071 384.55C89.3431 383.901 90.4831 383.068 90.5901 382.27C91.6631 379.905 91.3081 377.423 91.1421 374.97C91.0421 373.518 90.8321 372.081 91.6851 370.765C92.8131 372.505 94.5481 371.31 95.9651 371.649C96.5651 375.214 95.6391 378.63 94.9451 382.068" fill="#2A2D33"/>
<path d="M0.797058 1.27401C0.964058 1.17401 0.713077 1.365 0.429077 1.462C0.353077 1.488 0.181077 1.23001 0.0540771 1.10201C0.266677 0.895378 0.495767 0.706416 0.739075 0.53701C1.05807 0.34701 1.16706 0.46601 0.797058 1.27401Z" fill="#D9EAEE"/>
<path d="M426.881 360.141C417.492 358.928 409.081 355.695 401.753 349.394C396.102 344.538 388.743 343.994 381.625 343.324C369.54 342.18 357.411 342.571 345.301 342.47C330.241 342.345 315.178 342.57 300.117 342.641C300.003 342.641 299.89 342.649 299.777 342.653C291.145 342.885 289.854 344.375 291.03 352.753C289.411 351.753 289.638 350.097 289.516 348.553C289.143 343.799 291.589 339.362 291.075 334.595C294.832 334.201 298.645 335.211 302.587 334.388C302.23 333.389 301.555 332.535 300.665 331.957C299.776 331.379 298.721 331.109 297.663 331.188C295.304 331.2 292.946 331.196 290.587 331.198C290.179 322.804 289.056 314.38 293.281 306.428C295.394 302.694 296.702 298.56 297.119 294.29C301.75 295.77 306.716 295.843 311.389 294.5C316.062 293.156 320.23 290.456 323.367 286.741C323.707 286.326 324.279 285.98 324.023 285.319C323.753 284.619 323.082 284.826 322.567 284.819C319.747 284.798 316.884 285.128 314.115 284.756C309.378 284.118 304.425 283.713 301.128 279.441C301.712 278.152 301.954 276.735 301.831 275.325C301.709 273.916 301.226 272.562 300.428 271.393C297.336 266.393 294.35 261.304 291.628 256.093C290.349 253.638 289.228 253.448 286.964 254.773C272.604 263.18 258.201 271.515 243.756 279.78C241.83 280.88 241.597 282.026 242.492 283.919C250.414 300.685 255.276 318.456 259.613 336.395C263.092 350.782 266.013 365.266 267.088 380.066C264.598 380.372 262.08 380.382 259.588 380.095C259.327 377.172 259.205 374.227 258.779 371.329C256.488 356.03 253.288 340.881 249.195 325.962C245.816 313.511 242.041 301.183 236.713 289.399C234.746 285.049 234.627 285.087 230.465 287.487C221.837 292.46 213.213 297.441 204.593 302.428C204.593 299.499 204.593 296.57 204.593 293.641C212.33 289.198 220.013 284.658 227.837 280.372C230.137 279.112 230.706 278.099 229.295 275.734C224.551 267.783 220.017 259.708 215.335 251.72C211.805 245.697 208.691 239.42 204.621 233.72C204.617 228.549 204.614 223.377 204.61 218.206C204.839 218.453 205.049 218.716 205.237 218.995C215.528 236.814 225.803 254.643 236.062 272.48C237.062 274.225 237.73 274.602 239.646 273.48C254.176 264.947 268.765 256.518 283.413 248.193C285.634 246.933 285.613 245.844 284.505 243.951C280.847 237.707 277.286 231.407 273.672 225.137C265.09 210.248 256.507 195.358 247.926 180.467C246.933 178.739 246.015 178.087 244.009 179.307C237.728 183.122 231.38 186.825 224.964 190.417C218.173 194.225 211.694 198.593 204.575 201.817C204.591 198.891 204.606 195.965 204.621 193.039C205.945 192.418 207.321 191.892 208.584 191.163C220.918 184.03 233.242 176.879 245.558 169.71C245.988 170.072 246.373 170.485 246.705 170.939C248.085 173.379 249.205 173.439 250.861 170.998C252.883 168.019 255.32 165.321 257.576 162.498L258.27 161.663L258.248 161.693C259.04 161.766 259.832 161.568 260.496 161.131C278.402 150.742 296.318 140.371 314.245 130.018C315.674 129.193 316.182 128.589 315.179 126.9C310.846 119.608 306.617 112.256 302.493 104.843C298.418 97.543 293.856 90.5199 290.26 82.9559L298.998 82.994C299.066 83.3242 299.168 83.6464 299.304 83.955C306.745 97.0063 314.187 110.057 321.63 123.107C322.63 124.873 323.63 124.661 325.172 123.739C332.933 119.111 340.763 114.598 348.572 110.045C348.572 112.968 348.57 115.892 348.565 118.815C342.125 122.548 335.684 126.279 329.24 130.006C327.455 131.034 326.661 131.876 328.04 134.166C335.016 145.753 341.753 157.485 348.573 169.166C348.583 173.922 348.592 178.678 348.602 183.435C347.584 182.709 346.786 181.717 346.295 180.567C338.127 166.481 329.904 152.426 321.808 138.298C320.469 135.962 319.378 135.734 317.054 137.131C308.814 142.08 300.415 146.765 292.09 151.571C280.139 158.47 268.192 165.375 256.249 172.286C254.342 173.386 252.934 174.286 254.549 176.936C258.614 183.593 262.421 190.41 266.243 197.211C267.319 199.126 268.343 198.898 270.002 197.918C277.402 193.543 284.915 189.363 292.309 184.98C294.839 183.48 296.622 184.099 298.039 186.346C299.366 188.446 300.527 190.655 301.752 192.82C303.936 196.683 303.564 197.92 299.762 200.098C292.401 204.312 285.083 208.598 277.704 212.785C276.326 213.565 275.974 214.131 276.919 215.612C278.802 218.565 280.453 221.667 282.157 224.732C285.5 230.743 289.363 236.462 292.248 242.732C289.663 242.332 289.103 239.997 288.075 238.213C276.549 218.222 265.056 198.213 253.595 178.184C252.761 176.729 251.865 175.161 249.979 176.343C248.322 177.381 249.156 178.859 249.937 180.203C252.666 184.896 255.35 189.613 258.048 194.323C267.098 210.123 276.15 225.925 285.203 241.729C288.703 247.829 293.585 249.076 299.757 245.548C301.918 244.313 304.069 243.062 306.228 241.823C320.355 233.717 334.482 225.612 348.61 217.508C348.61 217.951 348.608 218.395 348.602 218.838C341.859 223.638 334.444 227.318 327.342 231.518C318.089 236.99 308.732 242.287 299.387 247.602C297.408 248.728 296.549 249.802 297.965 252.111C301.272 257.511 304.357 263.051 307.517 268.543C308.164 269.668 308.855 270.766 310.372 270.46C314.223 269.686 318.222 269.681 321.839 267.725C330.803 262.878 339.839 258.174 348.854 253.413C350.428 252.607 352.338 252.382 353.437 250.758C355.406 250.333 357.308 249.641 359.09 248.702C363.901 246.596 368.664 244.314 373.79 243.07C375.739 242.597 378.075 242.25 378.69 245.245C363.759 251.021 349.802 258.879 335.202 265.515C340.549 265.615 345.809 265.224 351.073 265.153C373.385 264.853 395.697 264.606 418.01 264.411C421.076 264.38 424.126 264.32 427.004 263.071C426.953 267.895 426.903 272.719 426.852 277.542C419.252 275.967 411.671 275.373 404.004 277.33C396.318 279.215 388.542 280.708 380.704 281.804C376.231 282.472 371.752 283.104 367.291 283.845C366.017 284.057 363.909 284.572 365.631 286.285C369.738 290.367 373.531 294.932 380.415 294.585C395.9 293.812 411.404 293.419 426.899 292.871L426.889 360.139M341.595 302.492H355.844C363.51 302.492 363.509 302.492 364.454 294.917C364.496 294.583 364.585 294.254 364.654 293.917C365.412 289.983 365.094 289.566 361.11 289.56C350.592 289.545 340.075 289.545 329.558 289.56C321.784 289.56 321.791 289.56 320.786 297.16C320.686 297.938 320.397 298.691 320.26 299.468C319.886 301.581 320.585 302.568 322.94 302.527C329.158 302.411 335.379 302.488 341.6 302.49M372.772 334.315C373.572 334.525 374.389 334.666 375.213 334.737C388.252 334.688 401.29 334.621 414.327 334.537C415.692 334.491 417.024 334.101 418.197 333.402C418.783 333.082 419.566 332.762 419.497 331.986C419.389 330.85 418.341 331.076 417.628 331.078C404.363 331.135 391.097 331.178 377.828 331.358C375.848 331.385 373.771 331.884 372.771 334.315" fill="#FEFEFD"/>
<path d="M378.688 245.243C394.44 240.511 410.688 239.049 426.988 237.904C426.993 246.293 426.999 254.681 427.004 263.069C424.125 264.319 421.075 264.378 418.004 264.41C395.692 264.639 373.38 264.886 351.068 265.151C345.804 265.222 340.544 265.609 335.196 265.513C349.796 258.877 363.753 251.018 378.684 245.243" fill="#2A2D33"/>
<path d="M355.948 213.083C354.985 213.643 353.854 213.983 353.22 215.019C351.502 215.457 349.918 216.311 348.607 217.504C334.48 225.609 320.352 233.714 306.225 241.819C304.067 243.058 301.915 244.309 299.754 245.544C293.582 249.071 288.702 247.82 285.201 241.725C276.134 225.933 267.082 210.131 258.045 194.319C255.345 189.608 252.662 184.891 249.934 180.199C249.152 178.855 248.318 177.377 249.976 176.339C251.862 175.158 252.758 176.725 253.592 178.181C265.067 198.201 276.56 218.21 288.072 238.209C289.1 239.994 289.661 242.331 292.245 242.729L292.219 242.647C294.027 244.112 295.633 243.055 297.182 242.171C303.668 238.47 310.138 234.742 316.593 230.985C327.33 224.709 338.054 218.409 348.765 212.085C350.47 211.57 352.031 210.663 353.322 209.436" fill="#828282"/>
<path d="M65.714 227.71C65.63 224.261 67.277 221.247 68.214 218.065C70.881 208.983 73.7 199.945 76.459 190.89C77.2432 188.302 78.1638 185.758 79.217 183.267C80.873 179.814 83.235 179.376 86.045 181.603C87.6066 182.928 89.4857 183.824 91.498 184.203C93.1134 186.52 94.7287 188.838 96.344 191.157C99.762 196.077 104.544 198.016 110.419 197.73C114.819 197.516 117.149 195.172 117.51 190.73C117.826 186.843 116.57 183.13 116.51 179.294C118.377 179.113 120.26 179.413 121.978 180.166C122.829 181.211 123.763 182.199 124.519 183.308C131.644 193.786 139.409 203.814 147.769 213.336C146.978 215.749 143.369 215.736 143.177 218.66C137.689 214.237 133.371 208.648 128.342 203.767C127.371 202.825 126.471 201.81 125.05 200.316C125.75 204.716 123.675 207.387 120.894 209.542C118.857 211.12 119.202 213.067 119.546 215.071C121.866 228.562 124.202 242.05 126.555 255.535C129.145 270.471 131.692 285.413 134.362 300.335C134.805 302.81 134.1 303.452 131.678 303.335C128.523 303.183 125.348 303.424 122.178 303.496L110.589 303.427L96.336 303.452L85.436 303.481C82.019 303.818 81.336 302.09 81.269 298.947C81.085 290.366 80.645 281.782 80.013 273.221C79.128 261.211 80.078 249.547 85.44 238.542C87.164 235.823 88.791 233.066 88.855 229.706C94.278 228.17 99.667 226.63 105.355 228.682C109.125 230.042 112.437 228.617 115.444 226.382C117.044 225.191 116.672 224.428 114.769 224.243L117.741 218.508C113.452 217.556 109.341 216.535 107.156 221.613C106.156 221.629 104.937 221.277 104.201 221.723C99.435 224.614 94.0201 224.088 88.8591 224.881C87.6297 215.898 86.4004 206.916 85.1711 197.933L84.639 197.77L73.829 225.6C71.285 226.916 68.0851 225.716 65.7181 227.712" fill="#D2D2D2"/>
<path d="M116.787 330.351C113.782 344.228 110.777 358.106 107.771 371.983C106.055 371.527 104.252 371.516 102.531 371.95C104.085 358.077 106.405 344.291 107.269 330.339C108.832 321.424 109.91 312.449 110.588 303.424L122.177 303.493C121.943 309.119 119.988 314.407 118.958 319.878C118.299 323.378 117.515 326.861 116.787 330.351Z" fill="#D2D2D2"/>
<path d="M147.766 213.334C153.458 210.285 158.335 206.066 163.48 202.249C167.641 199.162 172.073 196.435 175.88 192.843C176.591 192.116 177.468 191.572 178.435 191.259C179.402 190.945 180.431 190.871 181.433 191.043C180.833 191.591 179.971 192.029 179.977 192.455C179.99 193.423 181.04 193.469 181.769 193.57C184.692 193.975 186.38 191.499 188.931 190.682C187.914 193.244 186.237 195.889 183.54 196.057C178.04 196.399 173.972 199.041 170.312 202.629C166.126 206.729 161.197 210.053 157.562 214.729C155.573 216.385 153.568 218.023 151.598 219.702C148.253 222.552 145.884 222.268 143.178 218.658C143.37 215.73 146.978 215.747 147.769 213.335" fill="#D2D2D2"/>
<path d="M160.013 314.42L156.679 314.411C156.679 312.518 156.729 310.624 156.679 308.733C156.645 307.513 156.985 306.869 158.358 306.9C159.671 306.929 160.109 307.489 160.058 308.743C159.986 310.633 160.023 312.528 160.013 314.42Z" fill="#2A2D33"/>
<path d="M348.572 169.166C341.752 157.485 335.015 145.753 328.039 134.166C326.66 131.876 327.454 131.033 329.239 130.006C335.692 126.294 342.133 122.564 348.564 118.815C348.564 135.599 348.567 152.383 348.572 169.168" fill="#B1DEE5"/>
<path d="M292.225 242.646C297.925 240.372 302.913 236.787 308.217 233.792C321.712 226.17 335.123 218.4 348.567 210.692C348.634 211.159 348.7 211.625 348.767 212.092C338.044 218.394 327.32 224.694 316.595 230.992C310.148 234.76 303.677 238.489 297.184 242.178C295.636 243.061 294.029 244.119 292.221 242.654" fill="#FEFEFD"/>
<path d="M353.161 361.057C356.896 361.057 360.635 361.157 364.361 361.019C366.361 360.947 367.038 361.412 366.307 363.461C365.237 366.804 363.518 369.903 361.25 372.582C356.556 377.81 350.117 377.89 345.235 372.77C342.875 370.163 341.108 367.076 340.056 363.721C339.415 361.874 339.422 360.849 341.956 360.999C345.679 361.22 349.424 361.056 353.156 361.056" fill="#FEFEFD"/>
<path d="M291.738 354.16C291.005 353.922 291.026 353.286 290.967 352.695C291.652 352.958 291.623 353.595 291.738 354.16Z" fill="#FEFEFD"/>
<path d="M292.395 355.503C291.765 355.221 291.713 354.631 291.626 354.06C292.266 354.336 292.318 354.926 292.395 355.503Z" fill="#FEFEFD"/>
<path d="M101.092 382.058C101.572 378.688 102.052 375.317 102.532 371.946C104.253 371.512 106.056 371.523 107.772 371.978C108.29 377.003 109.756 381.369 115.341 382.878C115.608 383.512 117.685 384.397 115.279 384.699C112.74 385.018 110.179 385.099 108.024 383.044C103.802 379.031 103.746 379.091 101.317 384.786C101.217 383.6 101.156 382.829 101.092 382.057" fill="#2A2D33"/>
<path d="M115.35 147.407C119.289 151.017 120.885 155.168 118.486 160.341C117.776 161.873 119.322 162.152 120.131 162.802C125.397 167.029 126.884 172.176 124.385 177.612C123.874 178.724 123.464 179.963 121.973 180.163C120.255 179.411 118.373 179.11 116.506 179.291C107.206 179.411 107.706 180.003 106.886 173.544C106.973 172.559 107.06 171.574 107.145 170.588C112.238 165.454 112.465 159.21 111.245 152.635C111.004 151.335 110.445 150.635 109.281 151.849C107.181 154.049 104.46 154.549 101.642 155.066C98.271 155.688 97.4341 157.302 98.1061 160.637C98.8671 164.409 101.227 167.33 103.098 170.517C103.791 171.698 104.084 173.071 103.934 174.432C102.679 181.979 99.649 184.771 91.497 184.203C89.4844 183.824 87.6049 182.928 86.043 181.603C83.234 179.376 80.871 179.814 79.215 183.267C78.161 185.758 77.2401 188.303 76.456 190.891C69.83 185.191 70.1211 176.617 77.3821 171.676C79.3441 170.341 80.173 169.129 80.041 166.832C79.9271 165.53 80.1971 164.223 80.8177 163.073C81.4383 161.922 82.3823 160.979 83.5331 160.359C85.2531 159.289 87.657 158.759 88.199 156.259C90.089 154.879 89.77 152.643 90.299 150.752C93.053 140.852 100.576 138.546 108.209 141.799C109.506 142.279 110.56 143.253 111.141 144.508C111.941 146.508 113.528 147.053 115.352 147.403" fill="black"/>
<path d="M65.7141 227.71C68.0811 225.71 71.2811 226.91 73.8251 225.598C78.8701 226.084 83.8251 224.798 88.8551 224.879C94.0161 224.086 99.4311 224.612 104.197 221.721C104.933 221.274 106.155 221.627 107.153 221.611C106.571 223.397 107.526 224.084 109.097 224.162C110.983 224.255 112.875 224.221 114.765 224.241C116.665 224.426 117.045 225.189 115.44 226.38C112.432 228.612 109.121 230.037 105.351 228.68C99.6651 226.628 94.2761 228.168 88.8511 229.704C82.1511 230.858 75.4511 231.977 68.7661 233.191C67.3241 233.453 65.7371 234.202 64.7951 232.679C64.3505 232.027 64.1337 231.247 64.1784 230.459C64.223 229.671 64.5267 228.92 65.0421 228.323C65.4991 228.31 65.6681 228.013 65.7421 227.623L65.7141 227.71Z" fill="#D2D2D2"/>
<path d="M65.7391 227.616C65.6691 228.011 65.5001 228.308 65.0391 228.316C65.1991 228.01 65.0181 227.368 65.7391 227.616Z" fill="#2A2D33"/>
<path d="M290.258 82.954C293.858 90.518 298.415 97.544 302.491 104.841C306.624 112.246 310.853 119.599 315.177 126.898C316.177 128.587 315.677 129.191 314.243 130.016C296.31 140.358 278.393 150.729 260.494 161.129C259.83 161.566 259.037 161.764 258.246 161.69C259.384 159.324 261.211 157.45 262.786 155.4C264.527 153.225 265.726 150.667 266.285 147.937C266.844 145.208 266.747 142.385 266.001 139.7C265.084 136.23 263.147 133.115 260.439 130.758C257.732 128.402 254.38 126.912 250.816 126.483C247.304 126.085 243.754 126.735 240.611 128.352C237.468 129.969 234.875 132.48 233.157 135.568C231.439 138.656 230.674 142.184 230.958 145.707C231.241 149.23 232.562 152.59 234.752 155.363C238.385 160.119 241.958 164.921 245.552 169.703C233.231 176.859 220.906 184.01 208.578 191.156C207.317 191.885 205.939 192.411 204.615 193.032C204.566 192.018 204.474 191.003 204.473 189.989C204.466 157.842 204.466 125.694 204.473 93.547C204.473 85.966 207.594 82.847 215.187 82.847C240.21 82.8704 265.232 82.9037 290.255 82.9471" fill="#F4F5F6"/>
<path d="M292.247 242.727C289.362 236.46 285.499 230.741 282.157 224.727C280.457 221.662 278.801 218.56 276.919 215.607C275.974 214.125 276.327 213.559 277.703 212.779C285.082 208.597 292.403 204.307 299.761 200.093C303.561 197.917 303.936 196.678 301.751 192.815C300.526 190.649 299.364 188.443 298.038 186.34C296.621 184.093 294.838 183.474 292.308 184.975C284.914 189.358 277.4 193.538 270.001 197.913C268.343 198.894 267.317 199.121 266.241 197.206C262.42 190.406 258.612 183.588 254.547 176.931C252.928 174.279 254.337 173.38 256.247 172.281C268.201 165.389 280.148 158.484 292.087 151.566C300.413 146.76 308.811 142.075 317.051 137.125C319.376 135.725 320.467 135.956 321.806 138.293C329.901 152.421 338.124 166.475 346.293 180.562C346.784 181.711 347.581 182.703 348.599 183.429C348.588 192.515 348.577 201.6 348.566 210.685C335.121 218.395 321.71 226.165 308.216 233.785C302.916 236.785 297.929 240.366 292.224 242.639L292.247 242.727Z" fill="#F4F5F6"/>
<path d="M267.09 380.063C266.019 365.263 263.09 350.78 259.615 336.393C255.278 318.454 250.415 300.683 242.494 283.916C241.599 282.022 241.833 280.88 243.758 279.777C258.197 271.504 272.601 263.169 286.967 254.77C289.231 253.444 290.351 253.635 291.63 256.09C294.348 261.304 297.33 266.39 300.43 271.39C301.228 272.559 301.711 273.913 301.834 275.322C301.956 276.732 301.714 278.149 301.13 279.438C295.851 281.338 293.99 288.233 297.121 294.286C296.703 298.555 295.396 302.69 293.283 306.423C289.057 314.375 290.183 322.799 290.583 331.194C290.234 332.402 289.864 333.612 291.073 334.594C291.588 339.362 289.142 343.794 289.514 348.553C289.635 350.097 289.414 351.753 291.028 352.753L290.965 352.693C291.025 353.285 291.003 353.92 291.736 354.158L291.624 354.058C291.71 354.629 291.763 355.219 292.393 355.501C293.656 356.778 295.361 357.019 296.987 357.393C298.519 357.746 300.087 357.942 301.628 358.26C305.152 358.987 308.992 359.104 312.104 360.66C315.559 362.392 314.446 367.023 316.068 370.139C317.788 373.676 319.923 376.997 322.427 380.03C318.358 380.116 314.29 380.283 310.221 380.272C295.842 380.234 281.465 380.134 267.087 380.057" fill="#F4F5F6"/>
<path d="M204.575 201.812C211.694 198.592 218.175 194.224 224.963 190.412C231.372 186.817 237.721 183.113 244.009 179.302C246.015 178.083 246.934 178.734 247.926 180.462C256.487 195.364 265.068 210.254 273.671 225.132C277.285 231.401 280.847 237.701 284.504 243.945C285.613 245.838 285.633 246.927 283.413 248.187C268.759 256.502 254.17 264.931 239.646 273.473C237.731 274.598 237.063 274.221 236.063 272.473C225.835 254.618 215.56 236.79 205.238 218.989C205.049 218.711 204.839 218.447 204.61 218.2L204.575 201.8" fill="#F4F5F6"/>
<path d="M204.598 302.428C213.221 297.447 221.846 292.467 230.47 287.488C234.633 285.088 234.751 285.049 236.718 289.4C242.046 301.184 245.818 313.511 249.2 325.963C253.293 340.88 256.493 356.028 258.784 371.326C259.21 374.226 259.331 377.169 259.593 380.092C243.986 380.139 228.378 380.292 212.772 380.17C207.745 380.129 204.525 376.652 204.517 371.645C204.478 348.572 204.559 325.5 204.597 302.427" fill="#F4F5F6"/>
<path d="M348.567 110.043C340.761 114.596 332.931 119.11 325.167 123.737C323.621 124.659 322.628 124.871 321.625 123.105C314.205 110.042 306.763 96.9919 299.299 83.9539C299.164 83.6452 299.061 83.3231 298.993 82.9929C312.648 82.9519 326.305 82.8249 339.96 82.9159C341.099 82.8699 342.234 83.0575 343.297 83.467C344.361 83.8766 345.329 84.4994 346.142 85.2972C346.955 86.095 347.597 87.0509 348.027 88.1059C348.457 89.161 348.666 90.2929 348.642 91.4319C348.742 97.6319 348.601 103.84 348.564 110.044" fill="#F4F5F6"/>
<path d="M204.62 233.722C208.691 239.422 211.804 245.696 215.334 251.722C220.015 259.71 224.55 267.785 229.294 275.736C230.706 278.101 230.138 279.113 227.836 280.374C220.013 284.66 212.329 289.2 204.592 293.644C204.601 273.671 204.611 253.698 204.62 233.725" fill="#F4F5F6"/>
<path d="M348.853 253.411C339.843 258.172 330.802 262.877 321.838 267.724C318.221 269.68 314.223 269.684 310.372 270.459C308.854 270.764 308.163 269.666 307.517 268.541C304.357 263.049 301.272 257.511 297.964 252.108C296.548 249.796 297.407 248.725 299.386 247.6C308.731 242.285 318.086 236.988 327.342 231.516C334.442 227.316 341.859 223.637 348.601 218.835C348.686 230.36 348.77 241.885 348.854 253.412" fill="#F4F5F6"/>
<path d="M245.557 169.705C241.957 164.924 238.385 160.122 234.752 155.365C233.094 153.285 231.92 150.862 231.318 148.271C230.716 145.68 230.7 142.987 231.272 140.389C231.843 137.791 232.987 135.353 234.621 133.254C236.255 131.155 238.336 129.447 240.715 128.255C243.093 127.063 245.707 126.417 248.366 126.365C251.026 126.312 253.664 126.854 256.087 127.951C258.51 129.048 260.658 130.672 262.373 132.705C264.089 134.738 265.328 137.129 266.002 139.702C266.748 142.387 266.845 145.21 266.286 147.939C265.727 150.669 264.527 153.227 262.786 155.402C261.212 157.452 259.386 159.326 258.247 161.692L258.268 161.663L257.574 162.499C255.317 165.319 252.882 168.017 250.859 170.999C249.204 173.437 248.083 173.38 246.703 170.94C246.371 170.487 245.986 170.074 245.556 169.711M258.989 144.419C259.015 143.056 258.768 141.702 258.264 140.436C257.759 139.17 257.007 138.018 256.051 137.047C255.095 136.075 253.955 135.305 252.697 134.78C251.439 134.256 250.089 133.988 248.726 133.992C246.693 133.985 244.703 134.58 243.007 135.701C241.311 136.823 239.986 138.422 239.197 140.296C238.408 142.17 238.191 144.236 238.574 146.232C238.957 148.229 239.923 150.068 241.349 151.517C242.776 152.966 244.599 153.961 246.589 154.375C248.58 154.79 250.649 154.606 252.535 153.847C254.421 153.088 256.041 151.788 257.189 150.11C258.338 148.432 258.964 146.452 258.989 144.419Z" fill="#3422F2"/>
<path d="M341.596 302.492C335.376 302.492 329.155 302.414 322.937 302.53C320.581 302.574 319.882 301.585 320.257 299.471C320.395 298.695 320.68 297.942 320.783 297.163C321.783 289.563 321.783 289.563 329.555 289.563C340.072 289.563 350.59 289.565 361.107 289.568C365.091 289.573 365.407 289.991 364.651 293.925C364.587 294.257 364.497 294.586 364.451 294.925C363.506 302.5 363.507 302.5 355.841 302.5H341.592" fill="#CADFE4"/>
<path d="M348.853 253.41C348.77 241.885 348.685 230.359 348.6 218.834L348.609 217.505C349.92 216.312 351.503 215.459 353.22 215.02C353.291 226.931 353.363 238.843 353.435 250.757C352.335 252.381 350.425 252.606 348.852 253.411" fill="#2A2D33"/>
<path d="M426.891 292.873C411.391 293.42 395.891 293.813 380.406 294.587C373.518 294.931 369.728 290.365 365.622 286.287C363.9 284.574 366.008 284.059 367.282 283.847C371.743 283.105 376.222 282.474 380.694 281.805C388.532 280.71 396.308 279.217 403.994 277.332C411.662 275.375 419.241 275.969 426.843 277.543C426.856 282.654 426.871 287.765 426.887 292.876" fill="#3422F2"/>
<path d="M297.119 294.289C293.988 288.236 295.849 281.342 301.128 279.441C304.428 283.713 309.379 284.119 314.115 284.756C316.885 285.129 319.747 284.799 322.568 284.82C323.082 284.82 323.754 284.62 324.023 285.32C324.28 285.981 323.706 286.327 323.367 286.742C320.23 290.457 316.062 293.157 311.39 294.501C306.717 295.845 301.751 295.772 297.12 294.292" fill="#3422F2"/>
<path d="M372.769 334.317C373.769 331.886 375.846 331.386 377.826 331.36C391.09 331.183 404.356 331.137 417.626 331.08C418.338 331.08 419.387 330.852 419.495 331.988C419.568 332.764 418.785 333.088 418.195 333.404C417.022 334.103 415.69 334.493 414.325 334.539C401.287 334.606 388.249 334.672 375.211 334.739C374.387 334.668 373.57 334.527 372.77 334.317" fill="#3422F2"/>
<path d="M291.075 334.596C289.866 333.615 290.236 332.405 290.585 331.196C292.947 331.196 295.305 331.196 297.663 331.185C298.721 331.106 299.775 331.377 300.665 331.955C301.554 332.533 302.229 333.386 302.587 334.385C298.644 335.208 294.832 334.198 291.074 334.592" fill="#3422F2"/>
<path d="M257.574 162.496L258.267 161.661L257.574 162.496Z" fill="#B1DEE5"/>
<path d="M106.882 173.543C107.702 180.004 107.208 179.412 116.503 179.292C116.564 183.126 117.82 186.84 117.503 190.727C117.142 195.171 114.81 197.517 110.411 197.727C104.537 198.012 99.755 196.073 96.337 191.154C94.7244 188.833 93.1087 186.515 91.49 184.2C99.642 184.767 102.672 181.976 103.927 174.429L106.88 173.54" fill="white"/>
<path d="M114.764 224.242C112.874 224.222 110.982 224.256 109.096 224.163C107.525 224.085 106.57 223.398 107.152 221.612C109.339 216.534 113.452 217.556 117.736 218.507L114.764 224.242Z" fill="#FEFEFD"/>
<path d="M103.097 170.518C101.225 167.331 98.8651 164.41 98.1061 160.638C97.4341 157.303 98.269 155.688 101.641 155.066C104.459 154.546 107.182 154.045 109.28 151.849C110.438 150.636 111.002 151.335 111.244 152.635C112.466 159.21 112.238 165.454 107.144 170.588C105.789 170.83 104.46 169.659 103.095 170.517" fill="white"/>
<path d="M103.096 170.517C104.461 169.659 105.79 170.83 107.145 170.588C107.059 171.573 106.972 172.558 106.886 173.543C105.9 173.838 104.915 174.135 103.931 174.432C104.081 173.071 103.788 171.698 103.096 170.517Z" fill="#2ECB70"/>
<path d="M258.991 144.414C258.953 146.428 258.321 148.385 257.175 150.041C256.029 151.697 254.419 152.978 252.549 153.724C250.678 154.47 248.628 154.646 246.657 154.232C244.686 153.818 242.881 152.832 241.469 151.396C240.056 149.961 239.098 148.141 238.715 146.163C238.333 144.186 238.542 142.14 239.317 140.281C240.092 138.422 241.398 136.833 243.073 135.714C244.747 134.594 246.714 133.993 248.728 133.987C250.088 133.991 251.435 134.264 252.689 134.792C253.943 135.319 255.08 136.09 256.035 137.06C256.989 138.029 257.742 139.178 258.249 140.441C258.757 141.703 259.009 143.054 258.991 144.414Z" fill="#FEFEFD"/>
</svg>
