<svg width="223" height="167" viewBox="0 0 223 167" fill="none" xmlns="http://www.w3.org/2000/svg">
<path d="M103.22 65.4973V50.5264H152.344L170.466 32.4041H84.8271L66.7041 50.5264L81.6764 65.4973H103.22Z" fill="#F1F2F2"/>
<path d="M120.161 98.4679L134.615 84.0139L122.402 71.8009H79.0639L62.2471 54.9827L44.9126 72.3193V126.169H70.915V153.747H110.903V134.122L120.161 124.864V98.4679Z" fill="#F1F2F2" stroke="#F1F2F2"/>
<path d="M179.223 32.5593L154.953 56.8294H109.523V65.4966H125.011L152.59 93.0754H190.682V45.7985C190.68 42.5836 189.521 39.4768 187.417 37.0459C185.314 34.615 182.405 33.0224 179.224 32.5593" fill="#F1F2F2"/>
<path d="M38.6093 97.0148V69.7062L75.9135 32.4034H26.0021C22.4495 32.4036 19.0425 33.8149 16.5305 36.327C14.0184 38.839 12.6071 42.246 12.6069 45.7986V97.0148H38.6093Z" fill="#3422F2"/>
<path d="M149.98 99.3784L139.072 88.4702L126.464 101.077V127.473L117.206 136.732V153.747H177.284C180.836 153.747 184.243 152.336 186.755 149.823C189.267 147.311 190.679 143.904 190.679 140.352V99.3784H149.98Z" fill="#F1F2F2"/>
<path d="M64.611 132.472H38.6093V103.318H12.6069V140.352C12.6071 143.904 14.0184 147.311 16.5305 149.823C19.0425 152.335 22.4495 153.747 26.0021 153.747H64.611V132.472Z" fill="#F1F2F2"/>
<path d="M53.993 22.1785C53.993 20.2834 53.6197 18.4069 52.8945 16.6561C52.1693 14.9053 51.1063 13.3144 49.7663 11.9744C48.4263 10.6344 46.8355 9.57143 45.0846 8.84622C43.3338 8.12101 41.4573 7.74775 39.5622 7.74775C37.6672 7.74775 35.7907 8.12101 34.0398 8.84622C32.289 9.57143 30.6982 10.6344 29.3582 11.9744C28.0182 13.3144 26.9552 14.9053 26.23 16.6561C25.5048 18.4069 25.1315 20.2834 25.1315 22.1785C25.1315 22.1785 23.0984 37.4632 39.5612 49.6187C56.0274 37.4625 53.993 22.1785 53.993 22.1785Z" fill="#FF3939"/>
<path d="M40.1966 29.9872C38.5982 30.1172 36.9984 29.7536 35.6133 28.9454C34.2281 28.1372 33.1243 26.9234 32.451 25.4679C31.7777 24.0124 31.5673 22.3854 31.8482 20.8065C32.129 19.2276 32.8877 17.7729 34.0217 16.6389C35.1557 15.5049 36.6103 14.7463 38.1892 14.4654C39.7681 14.1845 41.3952 14.395 42.8507 15.0683C44.3062 15.7416 45.52 16.8454 46.3281 18.2305C47.1363 19.6157 47.4999 21.2155 47.3699 22.8139C47.219 24.6659 46.4147 26.4041 45.1008 27.718C43.7868 29.032 42.0487 29.8362 40.1966 29.9872Z" fill="white"/>
<path d="M222.2 131.524C222.2 136.121 220.837 140.615 218.283 144.438C215.729 148.26 212.099 151.239 207.851 152.999C203.604 154.758 198.93 155.218 194.421 154.322C189.912 153.425 185.77 151.211 182.52 147.96C179.269 144.709 177.055 140.567 176.158 136.058C175.261 131.549 175.721 126.876 177.481 122.628C179.24 118.381 182.219 114.751 186.042 112.197C189.865 109.642 194.359 108.279 198.956 108.279C205.121 108.279 211.033 110.728 215.392 115.087C219.752 119.446 222.2 125.359 222.2 131.524Z" fill="#B4B4B4"/>
<path d="M215.372 148.527C215.372 150.105 214.904 151.647 214.027 152.959C213.151 154.271 211.905 155.294 210.447 155.898C208.989 156.502 207.385 156.66 205.838 156.352C204.29 156.044 202.868 155.284 201.753 154.169C200.637 153.053 199.877 151.631 199.569 150.084C199.261 148.536 199.42 146.932 200.023 145.474C200.627 144.017 201.65 142.771 202.962 141.894C204.274 141.017 205.817 140.55 207.394 140.55C209.51 140.55 211.539 141.391 213.035 142.886C214.531 144.382 215.371 146.411 215.372 148.527Z" fill="#B4B4B4"/>
<path d="M214.321 116.746C214.321 119.103 213.622 121.408 212.312 123.368C211.003 125.328 209.141 126.855 206.963 127.757C204.786 128.659 202.389 128.895 200.077 128.436C197.765 127.976 195.642 126.841 193.975 125.174C192.308 123.507 191.173 121.383 190.713 119.071C190.253 116.759 190.489 114.363 191.391 112.185C192.293 110.007 193.821 108.146 195.781 106.836C197.741 105.527 200.045 104.828 202.402 104.828C205.563 104.828 208.595 106.083 210.83 108.318C213.065 110.554 214.321 113.585 214.321 116.746Z" fill="#B4B4B4"/>
<path d="M207.433 148.51L205.45 144.213L200.926 146.303V134.675H196.198V139.21L190.104 136.809L188.372 141.207L196.202 144.291V164.619H200.93V151.516L207.433 148.51Z" fill="#8F5B31"/>
<path d="M37.3867 51.1515L49.3052 63.07L41.3676 71.0124V129.714H64.1513C65.179 129.715 66.1645 130.123 66.8911 130.85C67.6178 131.576 68.0261 132.562 68.0262 133.589V155.388C68.0261 155.897 68.1263 156.401 68.3209 156.871C68.5155 157.341 68.8009 157.768 69.1606 158.128C69.5203 158.487 69.9473 158.773 70.4173 158.967C70.8873 159.162 71.391 159.262 71.8997 159.262H89.431" stroke="#63C856" stroke-miterlimit="10"/>
<path d="M151.969 126.903H138.678V123.785C138.678 123.577 138.718 123.372 138.798 123.18C138.877 122.988 138.994 122.814 139.14 122.667C139.287 122.521 139.461 122.404 139.653 122.325C139.845 122.245 140.05 122.204 140.258 122.204H150.388C150.808 122.204 151.21 122.371 151.506 122.667C151.802 122.964 151.969 123.366 151.969 123.785V126.903Z" fill="#F6DE00"/>
<path d="M182.926 148.262H94.4282V159.439H182.926V148.262Z" fill="#B4B4B4"/>
<path d="M114.768 159.439C114.768 160.793 114.367 162.116 113.615 163.242C112.862 164.368 111.793 165.246 110.542 165.764C109.291 166.282 107.915 166.418 106.586 166.154C105.258 165.89 104.038 165.238 103.081 164.28C102.123 163.323 101.471 162.103 101.207 160.775C100.943 159.447 101.079 158.07 101.597 156.819C102.115 155.568 102.993 154.499 104.119 153.747C105.245 152.994 106.568 152.593 107.923 152.593C109.738 152.593 111.479 153.314 112.763 154.598C114.047 155.882 114.768 157.623 114.768 159.439Z" fill="#404A69"/>
<path d="M115.472 159.439C115.472 160.932 115.029 162.393 114.199 163.635C113.369 164.877 112.189 165.845 110.809 166.417C109.429 166.988 107.91 167.138 106.445 166.846C104.98 166.555 103.634 165.836 102.578 164.779C101.522 163.723 100.802 162.377 100.511 160.912C100.219 159.447 100.369 157.928 100.941 156.548C101.512 155.168 102.48 153.988 103.723 153.158C104.965 152.329 106.425 151.886 107.919 151.886C109.922 151.886 111.843 152.681 113.259 154.098C114.676 155.514 115.472 157.435 115.472 159.439Z" fill="#404A69"/>
<path d="M112.325 159.439C112.325 160.31 112.067 161.161 111.583 161.885C111.099 162.61 110.411 163.174 109.606 163.508C108.802 163.841 107.916 163.928 107.062 163.758C106.207 163.588 105.423 163.169 104.807 162.553C104.191 161.937 103.771 161.152 103.601 160.298C103.431 159.443 103.519 158.558 103.852 157.753C104.185 156.948 104.75 156.26 105.474 155.777C106.198 155.293 107.05 155.034 107.921 155.034C108.499 155.034 109.072 155.148 109.606 155.369C110.141 155.591 110.626 155.915 111.035 156.324C111.444 156.733 111.769 157.219 111.99 157.753C112.211 158.287 112.325 158.86 112.325 159.439Z" fill="#323253"/>
<path d="M111.595 159.438C111.595 160.164 111.379 160.874 110.976 161.478C110.572 162.082 109.999 162.553 109.327 162.831C108.656 163.109 107.918 163.182 107.206 163.04C106.493 162.898 105.839 162.548 105.325 162.035C104.812 161.521 104.462 160.867 104.32 160.154C104.178 159.442 104.251 158.703 104.529 158.032C104.807 157.361 105.278 156.788 105.882 156.384C106.486 155.981 107.196 155.765 107.922 155.765C108.896 155.765 109.83 156.152 110.519 156.841C111.208 157.53 111.595 158.464 111.595 159.438Z" fill="#F1F2F2"/>
<path d="M187.055 156.821V145.142L185.243 143.933L184.531 141.316H182.324L171.019 127.833C170.632 127.372 170.15 127.001 169.605 126.745C169.061 126.489 168.467 126.354 167.865 126.35C156.505 126.275 131.461 126.381 125.38 126.41C124.461 126.412 123.572 126.736 122.869 127.327C118.781 130.739 108.322 140.713 108.322 140.713C102.61 142.616 94.9541 145.002 91.3703 146.873C90.5003 147.328 89.7399 147.967 89.1416 148.746C88.5434 149.525 88.1216 150.424 87.9056 151.382L86.5786 157.223L86.9805 159.641H98.6703C98.6703 159.572 98.6592 159.507 98.6592 159.439C98.6592 156.982 99.6352 154.626 101.372 152.889C103.11 151.152 105.466 150.176 107.922 150.176C110.379 150.176 112.735 151.152 114.472 152.889C116.21 154.626 117.186 156.982 117.186 159.439C117.186 159.509 117.176 159.573 117.174 159.641H159.884C159.884 159.572 159.873 159.507 159.873 159.439C159.873 158.223 160.113 157.018 160.578 155.894C161.044 154.771 161.726 153.749 162.586 152.889C163.446 152.029 164.468 151.347 165.591 150.881C166.715 150.416 167.92 150.176 169.136 150.176C170.353 150.176 171.557 150.416 172.681 150.881C173.805 151.347 174.826 152.029 175.686 152.889C176.547 153.749 177.229 154.771 177.694 155.894C178.16 157.018 178.399 158.223 178.399 159.439C178.399 159.509 178.39 159.573 178.388 159.641H188.065L187.985 156.821H187.055Z" fill="#F6DE00"/>
<path d="M144.114 127.877H125.393L114.762 137.422C114.447 137.699 114.194 138.04 114.022 138.423C113.849 138.805 113.76 139.22 113.76 139.639C113.76 139.816 113.794 139.991 113.862 140.154C113.929 140.317 114.028 140.465 114.153 140.59C114.277 140.715 114.425 140.814 114.588 140.881C114.751 140.949 114.926 140.984 115.103 140.984H143.224C143.555 140.98 143.872 140.854 144.114 140.629V127.877Z" fill="white"/>
<path d="M172.697 137.422L164.638 127.877H147.889V140.23C147.998 140.454 148.168 140.643 148.378 140.776C148.589 140.91 148.833 140.981 149.082 140.983H172.355C172.712 140.983 173.054 140.841 173.306 140.589C173.558 140.337 173.7 139.995 173.7 139.639C173.7 139.219 173.61 138.804 173.437 138.422C173.265 138.04 173.013 137.699 172.698 137.421" fill="white"/>
<path d="M114.816 142.676H114.438C114.19 142.676 113.945 142.627 113.716 142.532C113.487 142.437 113.279 142.298 113.104 142.122C112.929 141.947 112.79 141.739 112.695 141.51C112.6 141.281 112.552 141.035 112.552 140.787V139.278C112.552 139.03 112.6 138.785 112.695 138.556C112.79 138.327 112.929 138.119 113.104 137.943C113.279 137.768 113.487 137.629 113.716 137.534C113.945 137.439 114.19 137.39 114.438 137.39H114.816V142.676Z" fill="black"/>
<path d="M104.29 159.892C104.396 160.78 104.825 161.598 105.493 162.191C106.162 162.785 107.025 163.113 107.919 163.113C108.813 163.113 109.676 162.785 110.345 162.191C111.014 161.598 111.442 160.78 111.549 159.892H104.29Z" fill="#D1DBE6"/>
<path d="M115.472 159.439C115.472 160.932 115.029 162.393 114.199 163.635C113.369 164.877 112.189 165.845 110.809 166.417C109.429 166.988 107.91 167.138 106.445 166.846C104.98 166.555 103.634 165.836 102.578 164.779C101.522 163.723 100.802 162.377 100.511 160.912C100.219 159.447 100.369 157.928 100.941 156.548C101.512 155.168 102.48 153.988 103.723 153.158C104.965 152.329 106.425 151.886 107.919 151.886C109.922 151.886 111.843 152.681 113.259 154.098C114.676 155.514 115.472 157.435 115.472 159.439Z" fill="black"/>
<path d="M111.595 159.438C111.595 160.164 111.379 160.874 110.976 161.478C110.572 162.082 109.999 162.553 109.327 162.831C108.656 163.109 107.918 163.182 107.206 163.04C106.493 162.898 105.839 162.548 105.325 162.035C104.812 161.521 104.462 160.867 104.32 160.154C104.178 159.442 104.251 158.703 104.529 158.032C104.807 157.361 105.278 156.788 105.882 156.384C106.486 155.981 107.196 155.765 107.922 155.765C108.896 155.765 109.83 156.152 110.519 156.841C111.208 157.53 111.595 158.464 111.595 159.438Z" fill="#F1F2F2"/>
<path d="M176.886 159.439C176.886 160.932 176.443 162.393 175.613 163.635C174.783 164.877 173.603 165.845 172.223 166.417C170.843 166.988 169.324 167.138 167.859 166.846C166.394 166.555 165.048 165.836 163.992 164.779C162.936 163.723 162.216 162.377 161.925 160.912C161.633 159.447 161.783 157.928 162.355 156.548C162.926 155.168 163.894 153.988 165.137 153.158C166.379 152.329 167.839 151.886 169.333 151.886C171.336 151.886 173.257 152.681 174.674 154.098C176.09 155.514 176.886 157.435 176.886 159.439Z" fill="black"/>
<path d="M173.01 159.438C173.01 160.164 172.795 160.874 172.391 161.478C171.988 162.082 171.414 162.553 170.743 162.831C170.072 163.109 169.334 163.182 168.621 163.04C167.909 162.898 167.254 162.548 166.741 162.035C166.227 161.521 165.877 160.867 165.736 160.154C165.594 159.442 165.667 158.703 165.945 158.032C166.223 157.361 166.693 156.788 167.297 156.384C167.901 155.981 168.611 155.765 169.338 155.765C170.312 155.765 171.246 156.152 171.934 156.841C172.623 157.53 173.01 158.464 173.01 159.438Z" fill="#F1F2F2"/>
<path d="M193.565 -1.80474e-06L83.0273 24.3252L94.3541 75.796L204.892 51.4708L193.565 -1.80474e-06Z" fill="#B4B4B4"/>
<path d="M103.534 43.1363L99.7743 45.1139C99.6728 45.1673 99.5583 45.1912 99.444 45.1829C99.3296 45.1747 99.2198 45.1346 99.127 45.0672C99.0342 44.9998 98.9621 44.9077 98.9189 44.8015C98.8757 44.6953 98.8631 44.5791 98.8825 44.466L99.601 40.2772C99.6176 40.179 99.6101 40.0783 99.5794 39.9836C99.5486 39.8889 99.4954 39.803 99.4243 39.7333L96.381 36.7696C96.2987 36.6895 96.2405 36.588 96.2129 36.4766C96.1853 36.3651 96.1894 36.2482 96.2248 36.139C96.2602 36.0297 96.3254 35.9326 96.4132 35.8585C96.5009 35.7845 96.6076 35.7364 96.7212 35.7198L100.926 35.11C101.025 35.0956 101.119 35.0573 101.199 34.9985C101.28 34.9397 101.345 34.8622 101.389 34.7726L103.269 30.9614C103.32 30.8585 103.398 30.7718 103.496 30.7112C103.593 30.6506 103.706 30.6185 103.82 30.6185C103.935 30.6185 104.047 30.6506 104.145 30.7112C104.242 30.7718 104.321 30.8585 104.371 30.9614L106.251 34.7726C106.295 34.8622 106.361 34.9397 106.441 34.9985C106.522 35.0573 106.616 35.0956 106.715 35.11L110.919 35.7198C111.033 35.7364 111.14 35.7845 111.227 35.8585C111.315 35.9326 111.38 36.0297 111.416 36.139C111.451 36.2482 111.455 36.3651 111.428 36.4766C111.4 36.588 111.342 36.6895 111.26 36.7696L108.216 39.734C108.145 39.8035 108.091 39.8893 108.061 39.9841C108.03 40.0789 108.023 40.1797 108.04 40.2779L108.758 44.4667C108.777 44.5797 108.764 44.6958 108.721 44.8018C108.678 44.9079 108.606 44.9998 108.513 45.0672C108.42 45.1345 108.311 45.1746 108.197 45.183C108.082 45.1914 107.968 45.1677 107.866 45.1146L104.106 43.137C104.018 43.0904 103.92 43.066 103.82 43.066C103.721 43.066 103.622 43.0904 103.534 43.137" fill="white"/>
<path d="M123.195 43.1363L119.435 45.1139C119.333 45.1673 119.219 45.1912 119.105 45.1829C118.99 45.1747 118.88 45.1346 118.788 45.0672C118.695 44.9998 118.623 44.9077 118.58 44.8015C118.536 44.6953 118.524 44.5791 118.543 44.466L119.262 40.2773C119.278 40.1791 119.271 40.0783 119.24 39.9836C119.209 39.8889 119.156 39.803 119.085 39.7333L116.042 36.7689C115.959 36.6888 115.901 36.5873 115.874 36.4759C115.846 36.3644 115.85 36.2475 115.885 36.1383C115.921 36.0291 115.986 35.9319 116.074 35.8578C116.162 35.7838 116.268 35.7357 116.382 35.7191L120.587 35.1093C120.685 35.0949 120.779 35.0566 120.86 34.9978C120.941 34.939 121.006 34.8615 121.05 34.7719L122.93 30.9607C122.981 30.8578 123.059 30.7712 123.157 30.7105C123.254 30.6499 123.366 30.6178 123.481 30.6178C123.596 30.6178 123.708 30.6499 123.805 30.7105C123.903 30.7712 123.981 30.8578 124.032 30.9607L125.912 34.7719C125.956 34.8615 126.021 34.939 126.102 34.9978C126.183 35.0566 126.277 35.0949 126.375 35.1093L130.58 35.7191C130.694 35.7357 130.8 35.7838 130.888 35.8578C130.976 35.9319 131.041 36.0291 131.076 36.1383C131.112 36.2475 131.116 36.3644 131.088 36.4759C131.061 36.5873 131.003 36.6888 130.92 36.7689L127.877 39.7333C127.806 39.8028 127.752 39.8886 127.721 39.9834C127.691 40.0782 127.683 40.179 127.7 40.2773L128.419 44.466C128.438 44.5791 128.426 44.6953 128.382 44.8015C128.339 44.9077 128.267 44.9998 128.174 45.0672C128.081 45.1346 127.972 45.1747 127.857 45.1829C127.743 45.1912 127.629 45.1673 127.527 45.1139L123.767 43.1363C123.679 43.0897 123.581 43.0653 123.481 43.0653C123.381 43.0653 123.283 43.0897 123.195 43.1363Z" fill="white"/>
<path d="M142.857 43.1363L139.097 45.1139C138.996 45.1673 138.881 45.1912 138.767 45.1829C138.652 45.1747 138.543 45.1346 138.45 45.0672C138.357 44.9998 138.285 44.9077 138.242 44.8015C138.198 44.6953 138.186 44.5791 138.205 44.466L138.924 40.2773C138.94 40.1791 138.932 40.0785 138.901 39.9838C138.871 39.8892 138.818 39.8033 138.747 39.7333L135.704 36.7689C135.621 36.6888 135.563 36.5873 135.536 36.4759C135.508 36.3644 135.512 36.2475 135.548 36.1383C135.583 36.0291 135.648 35.9319 135.736 35.8578C135.824 35.7838 135.93 35.7357 136.044 35.7191L140.249 35.1093C140.348 35.0949 140.441 35.0566 140.522 34.9978C140.603 34.939 140.668 34.8615 140.712 34.7719L142.592 30.9607C142.643 30.8578 142.721 30.7712 142.819 30.7105C142.916 30.6499 143.028 30.6178 143.143 30.6178C143.258 30.6178 143.37 30.6499 143.468 30.7105C143.565 30.7712 143.643 30.8578 143.694 30.9607L145.574 34.7719C145.618 34.8615 145.683 34.939 145.764 34.9978C145.845 35.0566 145.939 35.0949 146.037 35.1093L150.242 35.7191C150.356 35.736 150.462 35.7841 150.55 35.8582C150.637 35.9324 150.702 36.0294 150.738 36.1385C150.773 36.2477 150.777 36.3645 150.75 36.4759C150.722 36.5872 150.664 36.6887 150.582 36.7689L147.539 39.7333C147.468 39.8028 147.414 39.8886 147.383 39.9834C147.353 40.0782 147.345 40.179 147.362 40.2773L148.081 44.466C148.1 44.579 148.087 44.6951 148.044 44.8012C148.001 44.9072 147.929 44.9991 147.836 45.0665C147.743 45.1338 147.634 45.1739 147.519 45.1823C147.405 45.1907 147.291 45.167 147.189 45.1139L143.429 43.1363C143.341 43.0897 143.243 43.0653 143.143 43.0653C143.043 43.0653 142.945 43.0897 142.857 43.1363Z" fill="white"/>
<path d="M162.52 43.1363L158.76 45.1139C158.658 45.1671 158.544 45.1909 158.429 45.1826C158.315 45.1742 158.205 45.1342 158.112 45.0668C158.02 44.9995 157.947 44.9076 157.904 44.8014C157.861 44.6953 157.848 44.5791 157.867 44.466L158.585 40.2772C158.602 40.1792 158.594 40.0787 158.564 39.9841C158.534 39.8895 158.481 39.8035 158.411 39.7333L155.367 36.7689C155.285 36.689 155.226 36.5876 155.198 36.4762C155.171 36.3648 155.175 36.2478 155.21 36.1385C155.245 36.0292 155.31 35.932 155.398 35.8579C155.486 35.7838 155.593 35.7357 155.706 35.7191L159.911 35.1093C160.01 35.0945 160.104 35.0561 160.185 34.9973C160.265 34.9386 160.331 34.8613 160.376 34.7719L162.254 30.9607C162.305 30.8579 162.384 30.7713 162.481 30.7108C162.579 30.6502 162.691 30.6181 162.806 30.6181C162.921 30.6181 163.033 30.6502 163.131 30.7108C163.228 30.7713 163.307 30.8579 163.358 30.9607L165.237 34.7719C165.281 34.8612 165.346 34.9386 165.427 34.9974C165.507 35.0562 165.6 35.0946 165.699 35.1093L169.904 35.7191C170.017 35.7357 170.124 35.7838 170.212 35.8578C170.299 35.9319 170.365 36.029 170.4 36.1383C170.435 36.2475 170.44 36.3644 170.412 36.4759C170.384 36.5873 170.326 36.6888 170.244 36.7689L167.201 39.7333C167.129 39.8028 167.076 39.8886 167.045 39.9834C167.014 40.0782 167.007 40.179 167.024 40.2772L167.742 44.466C167.762 44.579 167.749 44.6951 167.705 44.8011C167.662 44.9072 167.59 44.9991 167.497 45.0665C167.405 45.1338 167.295 45.1739 167.181 45.1823C167.066 45.1907 166.952 45.167 166.851 45.1139L163.092 43.1363C163.004 43.0897 162.906 43.0653 162.806 43.0653C162.706 43.0653 162.608 43.0897 162.52 43.1363Z" fill="white"/>
<path d="M182.18 43.1363L178.42 45.1139C178.319 45.1673 178.204 45.1912 178.09 45.1829C177.976 45.1747 177.866 45.1346 177.773 45.0672C177.68 44.9998 177.608 44.9077 177.565 44.8015C177.522 44.6953 177.509 44.5791 177.528 44.466L178.247 40.2773C178.263 40.1791 178.255 40.0785 178.225 39.9838C178.194 39.8892 178.141 39.8033 178.07 39.7333L175.027 36.7689C174.945 36.6888 174.886 36.5873 174.859 36.4759C174.831 36.3644 174.835 36.2475 174.871 36.1383C174.906 36.0291 174.971 35.9319 175.059 35.8578C175.147 35.7838 175.254 35.7357 175.367 35.7191L179.572 35.1093C179.671 35.0949 179.765 35.0566 179.845 34.9978C179.926 34.939 179.991 34.8615 180.035 34.7719L181.915 30.9607C181.966 30.8578 182.044 30.7712 182.142 30.7105C182.239 30.6499 182.352 30.6178 182.466 30.6178C182.581 30.6178 182.693 30.6499 182.791 30.7105C182.888 30.7712 182.967 30.8578 183.017 30.9607L184.897 34.7719C184.941 34.8615 185.006 34.939 185.087 34.9978C185.168 35.0566 185.262 35.0949 185.361 35.1093L189.565 35.7191C189.679 35.736 189.785 35.7841 189.873 35.8582C189.961 35.9324 190.026 36.0294 190.061 36.1385C190.096 36.2477 190.101 36.3645 190.073 36.4759C190.046 36.5872 189.988 36.6887 189.906 36.7689L186.865 39.734C186.794 39.8035 186.74 39.8893 186.709 39.9841C186.679 40.0789 186.671 40.1797 186.688 40.2779L187.407 44.4667C187.426 44.5797 187.413 44.6958 187.37 44.8019C187.327 44.9079 187.255 44.9998 187.162 45.0672C187.069 45.1345 186.96 45.1746 186.845 45.183C186.731 45.1914 186.617 45.1677 186.515 45.1146L182.755 43.137C182.667 43.0904 182.569 43.066 182.469 43.066C182.369 43.066 182.271 43.0904 182.183 43.137" fill="white"/>
<path d="M202.403 91.8926H198.267C198.098 91.8928 197.932 91.8598 197.777 91.7957C197.621 91.7315 197.48 91.6373 197.361 91.5185C197.242 91.3997 197.148 91.2586 197.083 91.1033C197.019 90.948 196.985 90.7816 196.985 90.6135V86.4752C196.985 86.3071 197.019 86.1405 197.083 85.9851C197.147 85.8298 197.242 85.6886 197.361 85.5698C197.48 85.4509 197.621 85.3567 197.776 85.2924C197.932 85.2282 198.098 85.1952 198.267 85.1954H202.403C202.743 85.1956 203.068 85.3305 203.308 85.5705C203.548 85.8104 203.683 86.1359 203.683 86.4752V90.6135C203.683 90.9528 203.548 91.2783 203.308 91.5182C203.068 91.7582 202.743 91.8931 202.403 91.8933" fill="#D4D7DA"/>
<path d="M10.3429 32.2059H6.20604C6.03788 32.206 5.87134 32.173 5.71595 32.1087C5.56055 32.0445 5.41933 31.9502 5.30036 31.8314C5.18138 31.7125 5.08698 31.5714 5.02255 31.4161C4.95811 31.2607 4.9249 31.0942 4.9248 30.9261V26.7886C4.9249 26.6204 4.95811 26.4539 5.02255 26.2986C5.08698 26.1432 5.18138 26.0021 5.30036 25.8833C5.41933 25.7644 5.56055 25.6702 5.71595 25.6059C5.87134 25.5417 6.03788 25.5086 6.20604 25.5087H10.3429C10.682 25.5091 11.0071 25.6441 11.2467 25.8841C11.4863 26.1241 11.6208 26.4494 11.6206 26.7886V30.9268C11.6208 31.2659 11.4863 31.5912 11.2467 31.8312C11.0071 32.0712 10.682 32.2063 10.3429 32.2066" fill="#F1F2F2"/>
<path d="M209.495 102.527H205.358C205.19 102.527 205.024 102.494 204.868 102.43C204.713 102.366 204.571 102.272 204.453 102.153C204.334 102.034 204.239 101.893 204.175 101.737C204.11 101.582 204.077 101.415 204.077 101.247V97.1125C204.077 96.9443 204.11 96.7778 204.175 96.6224C204.239 96.467 204.334 96.3259 204.453 96.207C204.571 96.0881 204.713 95.9939 204.868 95.9297C205.024 95.8654 205.19 95.8325 205.358 95.8326H209.495C209.835 95.8328 210.16 95.9677 210.4 96.2077C210.64 96.4477 210.775 96.7731 210.775 97.1125V101.251C210.775 101.59 210.64 101.916 210.4 102.155C210.16 102.395 209.835 102.53 209.495 102.531" fill="#F1F2F2"/>
<path d="M5.41806 43.8279H1.28124C0.941736 43.828 0.616056 43.6934 0.375798 43.4535C0.135539 43.2137 0.000367376 42.8882 0 42.5487L0 38.4105C9.09729e-05 38.2423 0.0333033 38.0758 0.0977408 37.9205C0.162178 37.7652 0.256579 37.624 0.375553 37.5052C0.494527 37.3864 0.635744 37.2921 0.791141 37.2278C0.946539 37.1636 1.11307 37.1305 1.28124 37.1306H5.41806C5.75719 37.131 6.0823 37.266 6.32191 37.506C6.56152 37.746 6.69602 38.0713 6.69583 38.4105V42.5487C6.69602 42.8878 6.56152 43.2132 6.32191 43.4532C6.0823 43.6932 5.75719 43.8282 5.41806 43.8285" fill="#D4D7DA"/>
</svg>
